<svg width="19" height="23" viewBox="0 0 19 23" fill="none" xmlns="http://www.w3.org/2000/svg">
<path d="M15.7689 12.3009C15.7797 11.4663 16.0014 10.6479 16.4134 9.92193C16.8255 9.19598 17.4144 8.58605 18.1255 8.14887C17.6738 7.50372 17.0778 6.97278 16.385 6.59822C15.6922 6.22367 14.9216 6.01583 14.1344 5.9912C12.4551 5.81494 10.8272 6.99603 9.97147 6.99603C9.0992 6.99603 7.7817 6.0087 6.36298 6.03789C5.4453 6.06754 4.55096 6.33439 3.76709 6.81245C2.98321 7.2905 2.33654 7.96346 1.89007 8.76575C-0.0439245 12.1142 1.39866 17.0352 3.25126 19.7418C4.17816 21.0671 5.26144 22.5476 6.67888 22.4951C8.06594 22.4376 8.58398 21.6106 10.2583 21.6106C11.917 21.6106 12.4031 22.4951 13.8493 22.4617C15.3376 22.4375 16.2754 21.1305 17.1698 19.7926C17.8357 18.8482 18.3482 17.8045 18.6882 16.7001C17.8235 16.3343 17.0856 15.7222 16.5664 14.9399C16.0473 14.1576 15.77 13.2398 15.7689 12.3009Z" />
<path d="M13.0376 4.21107C13.8491 3.23686 14.2489 1.98469 14.1521 0.720459C12.9122 0.850679 11.767 1.44324 10.9445 2.38006C10.5424 2.83773 10.2344 3.37016 10.0381 3.94693C9.84188 4.5237 9.76124 5.13349 9.8008 5.74144C10.4209 5.74783 11.0344 5.61342 11.5951 5.34833C12.1558 5.08324 12.649 4.69439 13.0376 4.21107Z" />
</svg>
