    <svg width="28" height="28" viewBox="0 0 28 28" fill="none" xmlns="http://www.w3.org/2000/svg">
      <path
        d="M14.0055 16.5044L4.27854 6.77789C4.01135 6.51007 3.65411 6.36274 3.2732 6.36274C2.89208 6.36274 2.53506 6.51007 2.26745 6.77789L1.41558 7.63018C1.14754 7.89758 1 8.25503 1 8.63594C1 9.01685 1.14754 9.37387 1.41558 9.64148L12.9964 21.2225C13.2648 21.4911 13.6235 21.6383 14.0049 21.6372C14.3879 21.6383 14.7462 21.4913 15.0148 21.2225L26.5844 9.65227C26.8524 9.38466 27 9.02763 27 8.64651C27 8.2656 26.8524 7.90858 26.5844 7.64076L25.7325 6.78867C25.1781 6.23422 24.2755 6.23422 23.7212 6.78867L14.0055 16.5044Z"
        fill="#1B8EFF"
      />
    </svg>