<svg width="50" height="50" viewBox="0 0 50 50" fill="none" xmlns="http://www.w3.org/2000/svg">
<path d="M12.9164 20.3027C12.491 21.5464 12.2748 22.8521 12.2766 24.1667C12.2766 25.6347 12.5405 27.0407 13.0284 28.3387C13.6365 29.961 14.5916 31.4309 15.827 32.6454C17.0625 33.8599 18.5483 34.7897 20.1805 35.3698C21.8128 35.9498 23.552 36.1662 25.2766 36.0036C27.0012 35.8411 28.6694 35.3035 30.1646 34.4287H30.1666C32.5222 33.0474 34.3321 30.8989 35.2935 28.3427H24.6018V20.4307H43.8076C44.3043 23.0476 44.2744 25.7374 43.7196 28.3427C42.7583 32.8465 40.2721 36.8803 36.6812 39.7627C33.1344 42.6194 28.7157 44.1737 24.1619 44.1667C20.7286 44.1686 17.3527 43.2861 14.3594 41.6041C11.366 39.9222 8.85623 37.4976 7.07173 34.5638C5.28723 31.6301 4.28819 28.2861 4.17086 24.854C4.05353 21.422 4.82187 18.0175 6.40185 14.9687C8.08742 11.7125 10.6357 8.98261 13.768 7.07749C16.9003 5.17237 20.496 4.1654 24.1619 4.16669C29.0129 4.16669 33.4619 5.89469 36.9251 8.77069L30.4466 14.0747C28.9289 13.13 27.2179 12.5395 25.4407 12.3474C23.6635 12.1552 21.8659 12.3661 20.1814 12.9646C18.497 13.563 16.9691 14.5335 15.7113 15.804C14.4535 17.0744 13.4982 18.6121 12.9164 20.3027Z" fill="black"/>
</svg>
