<svg width="165" height="157" viewBox="0 0 165 157" fill="none" xmlns="http://www.w3.org/2000/svg">
<rect x="0.75" width="164.25" height="156.67" rx="10" fill="url(#paint0_linear)"/>
<path d="M130.977 57.0133H107.816V34.9214H62.6271V57.0133H39.4663V100.117H62.6271V122.209H107.816V100.117H130.977V57.0133Z" fill="white" stroke="white" stroke-width="1.10491" stroke-miterlimit="10"/>
<path d="M130.976 95.8776C128.432 94.7054 125.659 94.1245 122.861 94.1778C121.535 94.6421 120.306 95.3475 119.235 96.2592C119.062 96.4308 118.854 96.5631 118.625 96.6465C118.396 96.7302 118.152 96.7633 117.91 96.7434C117.667 96.7237 117.432 96.6517 117.219 96.5322C117.007 96.4126 116.823 96.2485 116.68 96.0512L114.297 92.9291C114.2 92.7383 114.047 92.5822 113.859 92.4818C113.671 92.3814 113.457 92.3418 113.245 92.3684C113.034 92.3951 112.836 92.4863 112.678 92.6302C112.52 92.774 112.41 92.963 112.363 93.172C112.363 93.172 110.257 97.8548 108.012 97.5773C105.768 97.2999 104.559 97.5773 104.11 95.8429C103.662 94.1086 102.625 84.0139 102.625 84.0139C102.513 82.9361 102.052 81.9248 101.313 81.1347C100.588 80.3291 100.151 79.3039 100.07 78.2209L98.9307 60.3213C98.9307 59.2806 98.7236 59.2806 98.6544 60.3213L97.2731 77.8739C97.0933 79.063 96.4927 80.1468 95.5812 80.9267C95.1239 81.2901 94.7488 81.7472 94.4809 82.2675C94.2129 82.7879 94.0583 83.3595 94.0273 83.9446V91.0906C93.9689 92.3052 93.6384 93.4908 93.0604 94.5594C92.7476 95.0367 92.3223 95.4287 91.8224 95.7012C91.3222 95.9735 90.7632 96.1174 90.1943 96.1204L85.9124 95.8083C85.396 95.7657 84.9133 95.5336 84.5565 95.156C84.1996 94.7784 83.994 94.2819 83.9787 93.7616V90.5703C83.9191 89.3562 83.415 88.2072 82.5629 87.3441L82.3213 87.1359C81.5192 86.3406 80.9156 85.3659 80.5603 84.2916C80.5603 83.4243 80.0768 83.4243 79.8695 84.2916C79.5589 85.3039 79.0009 86.2222 78.2466 86.9625C77.472 87.7915 77.0293 88.8785 77.0034 90.0151V91.7843C77.0187 92.0113 76.9768 92.2387 76.8815 92.4452C76.7862 92.6514 76.6404 92.8305 76.4579 92.9653C76.2754 93.1003 76.0622 93.1867 75.8376 93.2168C75.613 93.2467 75.3847 93.2193 75.1734 93.1371C74.0514 92.8185 72.8781 92.7244 71.7202 92.8596C70.0283 93.1371 68.8886 95.6347 68.8886 95.6347C68.4399 96.6061 67.5765 96.8141 66.9549 96.1204C66.5769 95.756 66.1035 95.5069 65.5898 95.4026C65.0763 95.2979 64.5437 95.3425 64.0543 95.5308C62.1928 96.3212 60.2623 96.9364 58.2877 97.3694C57.1482 97.3694 54.5929 93.6228 54.5929 93.6228C53.9253 92.5448 53.4135 91.3768 53.0734 90.1538L52.2792 86.6851C52.0376 85.6444 51.6231 85.6444 51.3813 86.6851L50.6218 89.703C50.2384 90.8615 49.5166 91.877 48.5499 92.6168C46.6477 93.9345 44.5499 94.9415 42.3343 95.6001C39.8156 95.7461 37.2907 95.7461 34.772 95.6001" stroke="#54CEEC" stroke-width="1.10491" stroke-miterlimit="10"/>
<defs>
<linearGradient id="paint0_linear" x1="0.749998" y1="29.0959" x2="129.353" y2="162.748" gradientUnits="userSpaceOnUse">
<stop stop-color="#6CA9F2"/>
<stop offset="1" stop-color="#3FEDE6"/>
</linearGradient>
</defs>
</svg>
