<svg width="165" height="157" viewBox="0 0 165 157" fill="none" xmlns="http://www.w3.org/2000/svg">
<path fill-rule="evenodd" clip-rule="evenodd" d="M162.92 150.594C164.228 148.027 164.228 144.667 164.228 137.946L164.228 19.7136C164.228 12.9929 164.228 9.63262 162.92 7.06568C161.769 4.80773 159.933 2.97196 157.675 1.82148C155.109 0.513561 151.748 0.513561 145.028 0.51356L19.7005 0.51355C12.9799 0.51355 9.61956 0.51355 7.05261 1.82147C4.79467 2.97195 2.9589 4.80772 1.80842 7.06566C0.5005 9.6326 0.5005 12.9929 0.500499 19.7135L0.500497 46.4256C10.6923 42.782 21.7263 40.7901 33.2466 40.7901C84.9175 40.7901 126.805 80.8626 126.805 130.295C126.805 139.65 125.305 148.67 122.522 157.146H145.028C151.748 157.146 155.109 157.146 157.675 155.838C159.933 154.688 161.769 152.852 162.92 150.594ZM84.0492 157.146C87.5898 149.463 89.6883 140.5 89.6883 130.295C89.6883 90.6911 58.0872 69.799 33.2466 69.799C22.5646 69.799 10.6323 73.6624 0.500493 81.2157L0.500488 137.946C0.500488 144.667 0.500488 148.027 1.80841 150.594C2.95889 152.852 4.79466 154.688 7.0526 155.838C9.61954 157.146 12.9799 157.146 19.7005 157.146L84.0492 157.146Z" fill="#A8D118"/>
</svg>
