<svg width="165" height="157" viewBox="0 0 165 157" fill="none" xmlns="http://www.w3.org/2000/svg">
<rect width="164.25" height="156.67" rx="10" fill="#E9F3FF"/>
<path d="M109.942 116.245H89.4742C88.9471 116.245 88.4416 116.045 88.0689 115.689C87.6962 115.334 87.4868 114.852 87.4868 114.349V99.2233C87.4868 98.7205 87.6962 98.2384 88.0689 97.8829C88.4416 97.5274 88.9471 97.3276 89.4742 97.3276H99.218L107.099 114.441C107.336 114.974 107.732 115.428 108.237 115.749C108.742 116.07 109.335 116.242 109.942 116.245Z" fill="#810200"/>
<path d="M75.5806 40.2871H111.657C112.268 40.2762 112.87 40.4378 113.385 40.7516C113.901 41.0655 114.308 41.5175 114.555 42.0511L147.678 113.967C147.793 114.214 147.841 114.485 147.819 114.755C147.796 115.024 147.703 115.284 147.548 115.511C147.393 115.737 147.181 115.923 146.931 116.051C146.681 116.179 146.402 116.246 146.118 116.245H109.945C109.343 116.245 108.754 116.079 108.249 115.765C107.744 115.452 107.346 115.006 107.102 114.481L99.2219 97.3671L74.0211 42.5645C73.9058 42.3174 73.8573 42.0466 73.8799 41.7769C73.9026 41.5073 73.9957 41.2473 74.1508 41.0208C74.3059 40.7944 74.518 40.6085 74.7678 40.4804C75.0176 40.3522 75.297 40.2858 75.5806 40.2871Z" fill="#E50400"/>
<path d="M55.4986 114.467L63.3516 97.3536H73.1506C73.6777 97.3536 74.1832 97.5534 74.5559 97.9089C74.9286 98.2644 75.138 98.7465 75.138 99.2493V114.349C75.138 114.851 74.9286 115.334 74.5559 115.689C74.1832 116.045 73.6777 116.244 73.1506 116.244H52.6555C53.2592 116.244 53.8497 116.075 54.3546 115.76C54.8596 115.444 55.2571 114.995 55.4986 114.467Z" fill="#015179"/>
<path d="M18.8993 113.967L42.2094 63.1402C42.453 62.6149 42.8514 62.1685 43.3561 61.8553C43.8609 61.5421 44.4503 61.3757 45.0524 61.3762H77.2918C77.5754 61.3749 77.8549 61.4413 78.1047 61.5695C78.3544 61.6976 78.5665 61.8835 78.7216 62.1099C78.8767 62.3364 78.9699 62.5964 78.9925 62.866C79.0152 63.1357 78.9667 63.4065 78.8514 63.6536L63.3527 97.3277L55.4999 114.441C55.2563 114.966 54.8579 115.413 54.3531 115.726C53.8484 116.039 53.259 116.206 52.6569 116.205H20.4589C20.1806 116.204 19.9069 116.137 19.662 116.011C19.4171 115.885 19.2084 115.703 19.0543 115.482C18.9003 115.261 18.8056 115.007 18.7785 114.743C18.7515 114.479 18.793 114.213 18.8993 113.967Z" fill="#0084C4"/>
</svg>
