<svg width="33" height="24" viewBox="0 0 33 24" fill="none" xmlns="http://www.w3.org/2000/svg">
<path fill-rule="evenodd" clip-rule="evenodd" d="M9.16835 17.9919C9.87286 17.9919 10.4012 18.4968 10.4012 19.17C10.4012 19.7591 9.87286 20.3482 9.16835 20.3482C8.55192 20.3482 7.93548 19.7591 7.93548 19.17C7.93548 18.4968 8.55192 17.9919 9.16835 17.9919ZM20 3.01212V7.72483V17.9919H12.7789C12.1624 17.9919 11.546 18.4968 11.546 19.17C11.546 19.7591 11.2818 20.3482 10.9296 20.769C10.4893 21.1898 9.87288 21.4421 9.25644 21.4421C8.64 21.4421 8.02354 21.1898 7.58323 20.769C7.14291 20.4324 6.87871 19.8433 6.87871 19.17C6.87871 18.4968 6.35034 17.9919 5.64584 17.9919H3.1801V3.01212H20ZM30.5676 20.3482H31.6243C32.3288 20.3482 32.8572 19.7591 32.8572 19.17V14.5414C32.8572 14.4573 32.8572 14.2048 32.7691 14.0365L29.2466 7.21992C29.0705 6.79914 28.6302 6.46242 28.1018 6.46242H22.4658V1.83395V1.74971C22.4658 1.16062 21.9374 0.571533 21.321 0.571533H1.94723C1.24273 0.571533 0.714355 1.16062 0.714355 1.74971V19.0858V19.17C0.714355 19.7591 1.24273 20.3482 1.94723 20.3482H4.58906C4.76519 21.1898 5.20556 21.8629 5.822 22.3679C6.70263 23.2094 7.9355 23.7144 9.25644 23.7144C10.6654 23.7144 11.8102 23.1253 12.6909 22.3679C13.3073 21.7788 13.6596 21.1056 13.9237 20.3482H21.1449C21.4091 21.1898 21.7613 21.8629 22.4658 22.3679C23.3464 23.2094 24.5793 23.7144 25.9003 23.7144C27.2212 23.7144 28.366 23.2094 29.2466 22.3679L29.3347 22.2838C29.8631 21.863 30.3034 21.1898 30.5676 20.3482ZM30.0392 14.1206H22.3777V17.9919C22.9942 18.076 23.5225 18.5809 23.5225 19.17C23.5225 19.7591 23.7867 20.3482 24.139 20.769C24.5793 21.1898 25.1957 21.4421 25.8122 21.4421C26.4286 21.4421 26.957 21.1897 27.4854 20.8531V20.769C27.9257 20.4324 28.1898 19.8433 28.1898 19.17C28.1898 18.4968 28.8063 17.9919 29.4227 17.9919H30.3034V14.878L30.0392 14.1206ZM22.3777 12.7741H29.2466L27.2211 8.90301H22.3777V12.7741ZM25.9003 17.9919C26.5167 17.9919 27.1331 18.4968 27.1331 19.17C27.1331 19.7591 26.5167 20.3482 25.9003 20.3482C25.1958 20.3482 24.6674 19.7591 24.6674 19.17C24.5793 18.4968 25.1077 17.9919 25.9003 17.9919Z" fill="white"/>
</svg>
