<svg width="35" height="26" viewBox="0 0 35 26" fill="none" xmlns="http://www.w3.org/2000/svg">
<path fill-rule="evenodd" clip-rule="evenodd" d="M16.7296 22.4469V4.7592C12.2542 1.79583 10.3362 2.72202 8.23554 3.74068C6.77418 4.38891 5.4041 4.94449 3.39473 5.1297V23.1879C4.94742 23.0953 6.13483 22.5394 7.23085 22.0764C9.69689 20.7799 12.0715 19.7613 16.7296 22.4469ZM18.2824 4.7592V22.4469C22.8491 19.7613 25.2238 20.7799 27.8725 22.0764C28.9685 22.5394 30.1559 23.0953 31.7086 23.1879V5.1297C29.6993 5.0371 28.2378 4.38891 26.8678 3.74068C24.6758 2.62941 22.7578 1.79583 18.2824 4.7592ZM5.31275 8.92656C6.31744 8.64874 7.13948 8.27817 8.05283 7.90775C9.78819 7.0743 11.5236 6.33357 14.2636 7.44484C14.629 7.63005 15.0856 7.44476 15.1769 7.07434C15.3596 6.70392 15.1769 6.24102 14.8116 6.05581C11.4322 4.66673 9.42284 5.59267 7.32213 6.51873C6.59145 6.88915 5.76947 7.16702 4.85612 7.44484C4.49078 7.53744 4.2168 7.90792 4.30813 8.37095C4.39947 8.74137 4.94741 9.01917 5.31275 8.92656ZM5.31275 20.4095C6.31744 20.1317 7.13948 19.7614 8.05283 19.391C9.78819 18.5576 11.5236 17.8166 14.2636 18.9278C14.629 19.113 15.0856 18.928 15.1769 18.5576C15.3596 18.1872 15.1769 17.724 14.8116 17.5388C11.4322 16.1497 9.42284 17.0759 7.32213 18.002C6.59145 18.3724 5.76947 18.65 4.85612 18.9278C4.49078 19.0204 4.2168 19.3909 4.30813 19.8539C4.39947 20.2244 4.94741 20.4095 5.31275 20.4095ZM5.31275 16.5203C6.31744 16.2425 7.13948 15.8719 8.05283 15.5015C9.78819 14.668 11.5236 13.9271 14.2636 15.131C14.629 15.2236 15.177 15.0385 15.2683 14.6681C15.451 14.2976 15.2683 13.8345 14.903 13.7419C11.5236 12.2603 9.51419 13.1864 7.41349 14.1124C6.68281 14.4829 5.86082 14.8533 4.94747 15.0386C4.58213 15.1312 4.30808 15.5942 4.39942 15.9647C4.39942 16.4277 4.94741 16.7055 5.31275 16.5203ZM5.31275 12.7234C6.31744 12.5382 7.13948 12.075 8.05283 11.7046C9.78819 10.8712 11.5236 10.1305 14.2636 11.3344C14.629 11.427 15.177 11.2417 15.2683 10.9639C15.451 10.5935 15.2683 10.0377 14.903 9.94508C11.5236 8.556 9.51419 9.38953 7.41349 10.3156C6.68281 10.686 5.86082 11.0565 4.94747 11.2417C4.58213 11.3343 4.30808 11.7974 4.39942 12.1678C4.39942 12.5382 4.94741 12.816 5.31275 12.7234ZM30.1559 7.35214C29.2425 7.07433 28.4205 6.70413 27.6899 6.42631C25.5892 5.50026 23.5798 4.57403 20.2004 5.96312C19.8351 6.14833 19.6524 6.6115 19.8351 6.98192C20.0177 7.35235 20.4744 7.62996 20.8397 7.35214C23.5798 6.24088 25.2238 6.98189 27.0505 7.81534C27.8725 8.18576 28.7859 8.55605 29.7905 8.83386C30.1559 8.92647 30.6126 8.74119 30.7039 8.18556C30.7953 7.90774 30.5212 7.44475 30.1559 7.35214ZM30.1559 18.8354C29.2425 18.5576 28.4205 18.1871 27.6899 17.9093C25.5892 16.9832 23.5798 16.057 20.2004 17.4461C19.8351 17.6313 19.6524 18.0945 19.8351 18.4649C20.0177 18.8353 20.4744 19.1132 20.8397 18.8354C23.5798 17.7241 25.2238 18.4649 27.0505 19.2983C27.8725 19.6687 28.7859 20.0393 29.7905 20.3171C30.1559 20.4097 30.6126 20.2245 30.7039 19.6688C30.7953 19.391 30.5212 18.928 30.1559 18.8354ZM30.1559 15.0386C29.2425 14.8533 28.4205 14.3903 27.6899 14.1124C25.5892 13.1864 23.5798 12.2603 20.2004 13.7419C19.8351 13.8345 19.6524 14.3902 19.8351 14.6681C20.0177 15.0385 20.4744 15.3162 20.8397 15.131C23.5798 13.9271 25.2238 14.7606 27.0505 15.5015C27.8725 15.8719 28.7859 16.2425 29.7905 16.5203C30.1559 16.6129 30.6126 16.4277 30.7039 15.9647C30.7953 15.5942 30.5212 15.1312 30.1559 15.0386ZM30.1559 11.149C29.2425 10.9638 28.4205 10.5933 27.6899 10.2229C25.5892 9.29683 23.5798 8.46359 20.2004 9.85267C19.8351 9.94528 19.6524 10.5008 19.8351 10.8712C20.0177 11.2416 20.4744 11.4269 20.8397 11.2417C23.5798 10.0378 25.2238 10.8714 27.0505 11.6122C27.8725 11.9826 28.7859 12.4455 29.7905 12.6307C30.1559 12.7233 30.6126 12.5381 30.7039 12.0751C30.7953 11.7047 30.5212 11.3342 30.1559 11.149ZM2.29875 2.44406C4.30812 2.53667 5.76947 1.88839 7.13949 1.24015C9.87954 0.0362763 12.3456 -1.16754 17.5517 2.16626C22.7578 -1.16754 25.2238 0.0362763 27.9639 1.24015C29.4252 1.88839 30.7953 2.53686 32.896 2.35165C33.6266 2.25904 34.2659 2.81444 34.3573 3.55528V3.64798V24.3915C34.3573 25.0398 33.8093 25.6881 33.0786 25.6881C30.3386 25.8733 28.6032 25.0399 26.9592 24.2991C24.7671 23.373 22.8491 22.447 18.3737 25.503C17.917 25.7808 17.369 25.7808 16.9123 25.503C12.4369 22.447 10.5189 23.373 8.32682 24.2991C6.59146 25.0399 4.85609 25.8733 2.11604 25.6881C1.4767 25.5955 0.928711 25.0398 0.928711 24.3915V3.64798C0.928711 2.99974 1.56805 2.35165 2.2074 2.35165C2.11606 2.35165 2.29875 2.35146 2.29875 2.44406Z" fill="white"/>
</svg>
