<svg width="34" height="34" viewBox="0 0 34 34" fill="none" xmlns="http://www.w3.org/2000/svg">
<path fill-rule="evenodd" clip-rule="evenodd" d="M26.8486 25.6221H6.98884C6.62939 25.6221 6.26978 25.9798 6.26978 26.4269C6.26978 26.7845 6.62939 27.1421 6.98884 27.1421H26.8486C27.208 27.1421 27.5674 26.7845 27.5674 26.4269C27.5674 25.9798 27.208 25.6221 26.8486 25.6221ZM26.8486 19.632H6.98884C6.62939 19.632 6.26978 19.9898 6.26978 20.4368C6.26978 20.7944 6.62939 21.1519 6.98884 21.1519H26.8486C27.208 21.1519 27.5674 20.7944 27.5674 20.4368C27.5674 19.9004 27.208 19.632 26.8486 19.632ZM26.8486 13.5526L6.98884 13.5526C6.62939 13.5526 6.26978 13.9102 6.26978 14.3572C6.26978 14.7148 6.62939 15.0725 6.98884 15.0725L26.8486 15.0725C27.208 15.0725 27.5674 14.7148 27.5674 14.3572C27.5674 13.9102 27.208 13.5526 26.8486 13.5526ZM30.8026 29.2877C30.8026 29.7348 30.6229 30.1819 30.2634 30.6289C29.904 30.9865 29.4544 31.1653 28.9153 31.1653H5.01183C4.47265 31.1653 4.02312 30.9864 3.66366 30.5394H3.57399C3.21453 30.1818 3.03483 29.7348 3.03483 29.2877L3.03483 11.4963C3.03483 10.9599 3.21435 10.5128 3.66366 10.1552C4.02312 9.79757 4.47265 9.52942 5.01183 9.52942L28.9153 9.52942C29.4544 9.52942 29.904 9.79757 30.2634 10.1552C30.6229 10.5128 30.8026 10.9599 30.8026 11.4963V29.2877ZM11.1225 5.50611C11.1225 4.88028 11.3921 4.34387 11.7516 3.98625H11.8413C12.2007 3.62863 12.7399 3.36049 13.2791 3.36049L20.558 3.36049C21.0972 3.36049 21.6364 3.62863 21.9959 3.98625C22.3553 4.34387 22.625 4.88028 22.625 5.50611V7.02611H11.1225V5.50611ZM32.0605 8.36712C31.2518 7.56248 30.0835 7.02611 28.9153 7.02611H25.1411V5.50611C25.1411 4.25445 24.602 3.09219 23.7933 2.28755C22.8946 1.3935 21.8161 0.857178 20.558 0.857178L13.2791 0.857178C12.021 0.857178 10.8529 1.3935 10.0442 2.28755C9.14553 3.09219 8.60631 4.25445 8.60631 5.50611V7.02611L4.92188 7.02611C3.66379 7.02611 2.58538 7.56248 1.77661 8.36712C0.967837 9.17176 0.428711 10.2447 0.428711 11.4963L0.428711 29.2877C0.428711 30.45 0.877885 31.4335 1.68666 32.2381L1.77661 32.3275C2.58538 33.1321 3.66379 33.6686 4.92188 33.6686H28.8256C29.9938 33.6686 31.1621 33.1321 31.9709 32.3275C32.7796 31.5228 33.2288 30.45 33.2288 29.2877V11.4963C33.3187 10.2447 32.8693 9.17176 32.0605 8.36712Z" fill="white"/>
</svg>
