<svg width="33" height="35" viewBox="0 0 33 35" fill="none" xmlns="http://www.w3.org/2000/svg">
<path d="M32.3857 8.82934C32.48 9.01053 32.5742 9.28218 32.6685 9.55396C32.7628 10.0069 32.8572 10.3694 32.8572 10.8224V29.8465C32.8572 31.0242 32.2915 32.202 31.5374 33.0173C30.6891 33.8327 29.5579 34.2857 28.2383 34.2857H5.33303C4.01338 34.2857 2.8822 33.7421 2.03385 33.0173C1.18551 32.202 0.714355 31.1148 0.714355 29.8465V10.8224C0.714355 9.55409 1.27977 8.46693 2.03385 7.6516C2.8822 6.83627 4.01338 6.38317 5.33303 6.38317H16.4557C16.8327 5.20547 17.587 4.11831 18.4354 3.21239V3.12198C19.9435 1.7631 21.9229 0.857178 24.1851 0.857178C26.4474 0.857178 28.427 1.7631 29.9352 3.12198C31.4433 4.66205 32.3857 6.56454 32.3857 8.82934ZM24.1851 4.93366C25.3162 4.93366 26.259 5.38658 27.0131 6.02073C27.7672 6.74547 28.1442 7.65155 28.1442 8.73866C28.1442 9.82577 27.6729 10.7316 27.0131 11.4563C26.259 12.1811 25.3162 12.5434 24.1851 12.5434C23.054 12.5434 22.1115 12.0905 21.3574 11.4563C20.6033 10.7316 20.2263 9.82577 20.2263 8.73866C20.2263 7.65155 20.6976 6.74547 21.3574 6.02073C22.1115 5.38658 23.054 4.93366 24.1851 4.93366ZM25.9761 7.10807C25.5048 6.65511 24.9392 6.38317 24.1851 6.38317C23.5253 6.38317 22.8655 6.65511 22.3941 7.10807C21.9228 7.56103 21.6402 8.1952 21.6402 8.82934C21.6402 9.46349 21.9228 10.0974 22.3941 10.5503C22.8655 11.0033 23.431 11.2752 24.1851 11.2752C24.8449 11.2752 25.5048 11.0033 25.9761 10.5503C26.4474 10.0974 26.7303 9.55408 26.7303 8.82934C26.7303 8.1046 26.4474 7.56103 25.9761 7.10807ZM16.0789 8.73866H5.33303C4.76746 8.73866 4.20187 8.91991 3.82482 9.37287C3.44778 9.73524 3.16522 10.2788 3.16522 10.8224V29.8465C3.16522 30.3901 3.44778 30.9337 3.82482 31.296C4.20187 31.6584 4.76746 31.9303 5.33303 31.9303H28.2383C28.8038 31.9303 29.3694 31.6584 29.7465 31.296C30.1235 30.9337 30.4063 30.3901 30.4063 29.8465V13.9025C29.558 14.8084 28.5213 15.6237 27.2959 16.0766L24.845 18.9756C24.5622 19.2474 24.0911 19.3378 23.8083 19.066L23.7139 18.9756L21.2631 16.0766C19.7549 15.5331 18.5297 14.5366 17.5871 13.2683C16.5502 11.9094 16.0789 10.3693 16.0789 8.73866ZM28.8981 4.20905C27.6728 3.03135 26.0703 2.30669 24.1851 2.30669C22.3942 2.30669 20.6975 3.03126 19.4721 4.11837C18.2467 5.29607 17.4927 6.83613 17.4927 8.64798C17.4927 10.0069 17.9641 11.2751 18.7181 12.2716C19.4722 13.3587 20.6032 14.1741 21.8286 14.6271C21.9229 14.6271 22.0171 14.7176 22.1114 14.8082L24.1851 17.1637L26.1648 14.8082C26.2591 14.7176 26.3533 14.6271 26.4476 14.6271C27.7672 14.1741 28.804 13.3587 29.558 12.2716C30.3121 11.2751 30.6891 10.0069 30.6891 8.64798C30.8776 6.92673 30.1235 5.38675 28.8981 4.20905ZM19.1893 17.7979C19.4721 17.5261 19.9436 17.5261 20.2263 17.7979C20.5091 18.0697 20.5091 18.5225 20.2263 18.7943L18.1526 20.7873L22.3941 24.8641L27.1072 20.3345C27.39 20.0627 27.8614 20.0627 28.1442 20.3345C28.427 20.6062 28.427 21.0591 28.1442 21.3308L23.4312 25.8605L25.0334 27.4006C25.3162 27.6724 25.3162 28.1253 25.0334 28.397C24.7507 28.6688 24.2795 28.6688 23.9967 28.397L21.923 26.404L17.2099 21.8744L8.6322 30.1183C8.34942 30.3901 7.87825 30.3901 7.59547 30.1183C7.31269 29.8465 7.31269 29.3937 7.59547 29.1219L16.0789 20.878L12.5913 17.5261L6.84123 23.0521C6.55845 23.3239 6.08728 23.3239 5.8045 23.0521C5.52172 22.7803 5.52172 22.3275 5.8045 22.0557L11.5543 16.5295L7.97231 13.0872C7.68953 12.8154 7.68953 12.3623 7.97231 12.0905C8.25509 11.8188 8.72654 11.8188 9.00932 12.0905L13.1568 16.0766L17.2099 19.972L19.1893 17.7979Z" fill="white"/>
</svg>
