<svg width="29" height="33" viewBox="0 0 29 33" fill="none" xmlns="http://www.w3.org/2000/svg">
<path d="M14.7741 0.714355C22.3447 0.714355 26.6708 7.17748 27.3364 14.4161C28.4179 15.2778 29.0001 16.5704 29.0001 18.0353C29.0001 19.1556 28.5841 20.2758 27.9185 21.0513C27.3362 21.7407 26.5876 22.2578 25.7557 22.4301C24.6741 24.4121 23.1767 26.0495 21.3464 27.1697C21.18 27.2559 21.0135 27.3421 20.9303 27.4282V32.1678C20.9303 32.5125 20.5976 32.8572 20.2649 32.8572C20.0985 32.8572 20.0152 32.8571 19.932 32.771L17.6859 31.306C17.4363 31.6507 17.0202 31.9093 16.5211 31.9093H13.1934C12.7774 31.9093 12.3616 31.6507 12.0288 31.306L9.78241 32.771C9.69921 32.8571 9.53276 32.8572 9.44956 32.8572C9.11679 32.8572 8.78413 32.5987 8.78413 32.1678V27.4282C8.61774 27.3421 8.45146 27.2559 8.36826 27.1697C6.53801 26.0495 5.04054 24.4121 3.95902 22.4301C3.12709 22.1716 2.29507 21.6546 1.79591 21.0513C1.13036 20.2758 0.714355 19.1556 0.714355 18.0353C0.714355 16.6566 1.38 15.2778 2.37833 14.4161C2.79429 7.17748 7.12027 0.714355 14.7741 0.714355ZM19.5162 28.2038C18.9338 28.4623 18.4345 28.6347 17.8522 28.807V30.0135L19.5162 31.1336V28.2038ZM11.6959 30.0135V28.807C11.1136 28.6347 10.5311 28.4623 10.032 28.2038V31.1336L11.6959 30.0135ZM16.5211 29.0655C15.9387 29.1517 15.3564 29.2378 14.7741 29.2378C14.1917 29.2378 13.6094 29.1517 13.0271 29.0655C13.0271 29.5826 13.0271 30.0996 13.0271 30.6166V30.7029C13.0271 30.7029 13.0269 30.7029 13.1101 30.7029H16.438H16.5211C16.5211 30.7029 16.5211 30.7028 16.5211 30.6166C16.5211 30.0996 16.5211 29.5826 16.5211 29.0655ZM11.0303 17.3459C11.6126 17.3459 12.1118 17.8629 12.1118 18.4661C12.1118 19.0693 11.6126 19.5864 11.0303 19.5864C10.4479 19.5864 9.94896 19.0693 9.94896 18.4661C9.94896 17.8629 10.4479 17.3459 11.0303 17.3459ZM18.4346 17.3459C19.017 17.3459 19.5162 17.8629 19.5162 18.4661C19.5162 19.0693 19.017 19.5864 18.4346 19.5864C17.8522 19.5864 17.353 19.0693 17.353 18.4661C17.353 17.8629 17.8522 17.3459 18.4346 17.3459ZM10.6977 23.5504C10.3649 23.3781 10.2815 22.9472 10.5311 22.6025C10.6975 22.2578 11.1136 22.1716 11.4464 22.4301C11.9455 22.7748 12.5279 23.0333 13.0271 23.2057C13.6094 23.378 14.1917 23.4642 14.7741 23.4642C15.3564 23.4642 15.9387 23.378 16.5211 23.2057C17.1034 23.0333 17.6026 22.7748 18.1018 22.4301C18.4345 22.2578 18.8506 22.344 19.017 22.6025C19.1834 22.9472 19.1 23.2919 18.8505 23.5504C18.2681 23.9813 17.6027 24.2398 16.9372 24.4984C16.2716 24.6707 15.5229 24.843 14.8573 24.843C14.1086 24.843 13.4431 24.7569 12.7775 24.4984C11.9456 24.2398 11.28 23.8951 10.6977 23.5504ZM25.1732 15.2777C20.8472 16.1395 18.0186 15.8809 15.8556 14.8468C13.9422 13.8989 12.6942 12.434 11.3631 10.6244C11.0303 12.1755 10.1985 13.2958 9.11697 13.9852C7.86907 14.8469 6.20514 15.1915 4.37489 15.3638C4.29169 15.6224 4.12533 15.8809 3.87575 16.0532C3.2102 16.4841 2.79419 17.2598 2.79419 18.0353C2.79419 18.6386 3.04383 19.1555 3.37661 19.5864C3.70938 20.0173 4.2084 20.2758 4.79075 20.3619C5.12353 20.4481 5.45635 20.6205 5.62274 20.9652C6.53786 22.7749 7.86889 24.2398 9.44956 25.2739C11.0302 26.308 12.8607 26.825 14.8573 26.825C16.854 26.825 18.6842 26.2218 20.2649 25.2739C21.8455 24.2398 23.1766 22.7748 24.0917 21.0513C24.2581 20.7066 24.591 20.3619 25.0069 20.3619C25.5893 20.2758 26.0883 20.0173 26.4211 19.5864C26.7539 19.1555 27.0035 18.6386 27.0035 18.0353C27.0035 17.1736 26.5875 16.4841 25.922 16.0532C25.4228 15.8809 25.1732 15.6224 25.1732 15.2777ZM4.45816 13.9852C6.03884 13.899 7.36994 13.5543 8.36826 12.8649C9.53297 12.0893 10.1985 10.7967 10.1985 8.8147C10.1985 8.64235 10.2817 8.38385 10.4481 8.29768C10.7809 8.03916 11.1135 8.12537 11.3631 8.47006C12.9438 10.7106 14.2749 12.6925 16.3548 13.6404C18.2682 14.5883 20.8472 14.8469 24.9237 13.9852C24.1749 8.12536 20.7641 3.04108 14.6078 3.04108C8.61784 3.04108 5.12371 8.12536 4.45816 13.9852Z" fill="white"/>
</svg>
