<svg width="32" height="31" viewBox="0 0 32 31" fill="none" xmlns="http://www.w3.org/2000/svg">
<path fill-rule="evenodd" clip-rule="evenodd" d="M17.2196 5.08791L13.4186 9.15573C13.1652 9.51731 12.7429 9.51731 12.405 9.24613C12.1516 8.88454 12.1516 8.43256 12.405 8.07098L14.8545 5.5399L14.77 5.4495C13.7564 4.45514 12.5739 3.73198 11.3069 3.28C10.2089 3.00881 9.02634 3.0088 7.75935 3.37039C6.66129 3.73197 5.64767 4.36474 4.80301 5.2687C3.95835 6.17266 3.36709 7.16702 3.02923 8.34216C2.60689 9.51731 2.60691 10.7829 2.94477 11.958C3.28264 13.2235 3.95836 14.3987 4.88749 15.393L15.8681 27.1445L26.7643 15.4834V15.393C27.7778 14.3987 28.3691 13.2235 28.707 11.958C29.0448 10.7829 29.0448 9.60771 28.6225 8.34216C28.2846 7.16702 27.6934 6.17266 26.8487 5.2687C26.004 4.36474 24.9905 3.82237 23.8924 3.37039C22.7099 3.0088 21.4429 3.00881 20.3448 3.28C19.1623 3.64158 18.1487 4.18396 17.2196 5.08791ZM14.939 29.9468L3.19816 17.2914C1.93117 16.0258 1.08651 14.3987 0.66418 12.7716C0.326315 11.1444 0.326319 9.42692 0.833117 7.7094C1.25545 6.17267 2.18457 4.72633 3.19816 3.64158C4.29622 2.46643 5.56322 1.65287 6.99915 1.20089C8.68847 0.568116 10.3778 0.568114 11.9827 1.11049C13.3341 1.47207 14.6856 2.28564 15.8681 3.28C16.9662 2.28564 18.3176 1.56247 19.6691 1.11049C21.2739 0.65851 22.9633 0.748908 24.6526 1.20089C26.0885 1.65287 27.44 2.55683 28.4536 3.64158C29.5516 4.81673 30.3963 6.17267 30.8186 7.7094C31.4099 9.42692 31.4099 11.2348 30.9876 12.7716C30.5652 14.4891 29.6361 16.0258 28.4536 17.2914L28.3691 17.3818L16.6283 29.9468C16.1215 30.3988 15.4458 30.3988 14.939 29.9468Z" fill="white"/>
</svg>
