<svg width="31" height="29" viewBox="0 0 31 29" fill="none" xmlns="http://www.w3.org/2000/svg">
<path fill-rule="evenodd" clip-rule="evenodd" d="M2.79351 11.9491H12.4967L9.26224 2.69166C7.49103 3.54738 5.95096 4.86987 4.79582 6.50353C3.7177 8.0594 3.02454 9.92645 2.79351 11.9491ZM6.10484 24.0071C5.79681 23.6959 5.33473 23.4625 4.87267 23.4625C3.94856 23.4625 3.17846 24.2405 3.17846 25.174C3.17846 26.1075 3.94856 26.8854 4.87267 26.8854C5.79678 26.8854 6.56688 26.1075 6.56688 25.174C6.56688 24.7072 6.33587 24.3183 6.10484 24.0071ZM24.433 24.0071C24.125 23.6959 23.6629 23.4625 23.2009 23.4625C22.7388 23.4625 22.3537 23.6181 21.9687 23.9293C21.6606 24.2405 21.4298 24.7072 21.4298 25.174C21.4298 25.6407 21.6606 26.0297 21.9687 26.4187C22.2767 26.7298 22.7388 26.8854 23.2009 26.8854C23.6629 26.8854 24.125 26.7298 24.433 26.4187C24.7411 26.1075 24.9721 25.6407 24.9721 25.174C24.8951 24.7072 24.7411 24.3183 24.433 24.0071ZM28.0525 6.11457C27.9754 6.03677 27.8215 6.03677 27.6675 6.03677C27.5905 6.03677 27.4364 6.03677 27.3594 6.11457C27.2824 6.19236 27.1283 6.19236 27.0513 6.34795C26.9743 6.42575 26.8973 6.58133 26.8203 6.65913C26.7433 6.73692 26.7432 6.8925 26.7432 7.04809C26.7432 7.35926 26.8203 7.59264 27.0513 7.74823C27.1283 7.82602 27.2824 7.90381 27.3594 7.98161C27.4364 8.0594 27.5905 8.0594 27.6675 8.0594C27.9755 8.0594 28.2064 7.98161 28.4374 7.74823C28.5144 7.67044 28.5914 7.59264 28.6684 7.43706C28.7454 7.35926 28.7455 7.20368 28.7455 7.12588C28.7455 6.9703 28.7454 6.81471 28.6684 6.73691C28.5914 6.65912 28.5914 6.50353 28.4374 6.42574C28.2834 6.19236 28.2065 6.11457 28.0525 6.11457ZM24.3559 14.1273V16.0721C24.3559 16.3833 24.048 16.6945 23.74 16.6945C23.4319 16.6945 23.0469 16.3833 23.0469 16.0721V14.1273H14.1138H14.0368H2.8706C3.10162 16.8501 4.33364 19.2617 6.10484 21.0509C8.18409 23.1513 10.9564 24.396 14.0368 24.396C17.1941 24.396 19.9665 23.1513 22.0458 21.0509C23.894 19.2617 25.0492 16.8501 25.2802 14.1273H24.3559ZM27.5133 13.0382C27.5133 16.6167 26.1272 19.884 23.8939 22.2956C24.433 22.3734 24.972 22.6846 25.3571 23.0735C25.8962 23.6181 26.2812 24.396 26.2812 25.2518C26.2812 26.0297 25.9732 26.8076 25.3571 27.3522C24.818 27.8967 24.125 28.2079 23.2779 28.2079C22.5078 28.2079 21.6606 27.8967 21.1985 27.3522C20.6595 26.8076 20.2745 26.0297 20.2745 25.2518L20.3516 25.0962C18.5033 26.1075 16.3471 26.5743 14.1138 26.5743C11.9576 26.5743 9.80128 26.0297 8.03007 25.0962V25.2518C8.03007 26.8854 6.64403 28.2857 5.02684 28.2857C3.40965 28.2857 2.02338 26.8854 2.02338 25.2518C2.02338 23.7737 3.02463 22.6068 4.33379 22.2178C2.10053 19.8062 0.714355 16.5389 0.714355 12.9604V12.8826C0.714355 10.0042 1.63844 7.35926 3.10162 5.18105L3.17846 5.10325C4.79565 2.76944 7.02896 1.05799 9.72428 0.046676C10.2633 -0.108911 10.9564 0.124471 11.1875 0.746819L15.0379 11.7935H23.2779V10.9378C23.2779 10.0042 23.586 9.14851 24.0481 8.37058C24.3561 7.82602 24.972 7.28147 25.5881 6.8925C25.5881 6.58133 25.6653 6.34794 25.7423 6.03677C25.8193 5.7256 26.0501 5.49222 26.2812 5.25884C26.4352 5.02546 26.7433 4.86988 27.0513 4.71429C27.3593 4.63649 27.5905 4.5587 27.8985 4.5587C28.2066 4.5587 28.5146 4.63649 28.8226 4.71429C29.1306 4.79208 29.3617 5.02546 29.5927 5.25884C29.8238 5.49222 29.9776 5.7256 30.1316 6.03677C30.2086 6.34794 30.2858 6.58133 30.2858 6.9703C30.2858 7.28147 30.2086 7.51485 30.1316 7.82603C30.0546 8.1372 29.8238 8.37058 29.5927 8.60396C29.2077 9.07072 28.5916 9.3041 27.8985 9.3041C27.5905 9.3041 27.3593 9.22631 27.0513 9.14851C26.7433 9.07072 26.5122 8.83734 26.2812 8.60396C26.2042 8.52617 26.0503 8.37058 25.9733 8.29279C25.6653 8.52617 25.28 8.83734 25.049 9.22631C24.741 9.77086 24.5101 10.3932 24.5101 11.0156V11.8713H26.5893C26.9743 11.9491 27.5133 12.338 27.5133 13.0382Z" fill="white"/>
</svg>
