<svg width="30" height="31" viewBox="0 0 30 31" fill="none" xmlns="http://www.w3.org/2000/svg">
<path fill-rule="evenodd" clip-rule="evenodd" d="M13.6823 23.1615C13.27 22.8341 12.6928 22.8341 12.2805 23.1615L8.40489 26.0263L9.97162 21.4427C10.1365 20.9516 9.97161 20.3786 9.55931 20.1331L5.60127 17.2683H10.4664C11.0436 17.2683 11.5383 16.9409 11.6208 16.4498L13.1051 11.8662L14.6718 16.4498C14.8367 17.0227 15.3315 17.2683 15.8262 17.2683H20.6913L16.7333 20.1331C16.321 20.4605 16.1561 20.9516 16.321 21.4427L17.8877 26.0263L13.6823 23.1615ZM24.8143 17.0228C25.1441 16.8591 25.3091 16.5318 25.3091 16.1226C25.3091 15.5496 24.7318 14.9765 24.1546 14.9765H16.4859L14.0946 7.77375C14.0121 7.44635 13.7647 7.20083 13.3524 7.03713C12.7752 6.87344 12.0331 7.11895 11.8682 7.77375L9.55931 14.9765H1.89059C1.56076 14.9765 1.23093 15.1402 0.98355 15.4676C0.653713 16.0406 0.736162 16.6954 1.23092 17.0228L7.49783 21.5244L5.10652 28.7272C5.02406 29.0546 5.02406 29.4639 5.18898 29.7913C5.60127 30.2824 6.3434 30.3642 6.83815 30.0368L13.0226 25.5352L19.2071 30.0368C19.5369 30.2824 19.8667 30.3644 20.279 30.2007C20.8562 30.037 21.2685 29.382 21.0212 28.7272L18.7123 21.5244L24.8143 17.0228ZM4.36438 7.85568C4.61176 7.77383 4.77667 7.61023 4.85913 7.44653L4.94159 7.03713L5.02406 7.44653C5.10651 7.61023 5.27143 7.77383 5.43635 7.85568L5.84865 7.93761L5.43635 8.01929C5.18897 8.10114 5.10651 8.26482 5.02406 8.51036L4.94159 8.91976L4.85913 8.59229C4.77667 8.34675 4.61176 8.18307 4.36438 8.10122L4.03454 8.01929L4.36438 7.85568ZM1.39584 8.59229L3.62225 9.24698L4.28192 11.4571C4.36438 11.6208 4.44683 11.8663 4.69421 11.9482C5.02405 12.03 5.51881 11.8663 5.60127 11.4571L6.26094 9.24698L8.40489 8.59229C8.65226 8.51044 8.81718 8.34677 8.89964 8.10122C8.9821 7.77382 8.81719 7.36452 8.48735 7.28267L6.26094 6.62799L5.60127 4.41789C5.51881 4.25419 5.35389 4.09052 5.10652 3.92682C4.77668 3.84497 4.36438 4.00865 4.28192 4.41789L3.62225 6.62799L1.39584 7.28267C1.14846 7.36452 0.983549 7.5282 0.901089 7.77375C0.81863 8.10115 0.983544 8.51044 1.39584 8.59229ZM25.6389 24.6347C25.3915 24.7166 25.2266 24.8804 25.1441 25.0441L25.0617 25.4533L24.9792 25.0441C24.8968 24.8804 24.7318 24.7166 24.5669 24.6347L24.1546 24.553L24.5669 24.4711C24.7318 24.3893 24.8968 24.2257 24.9792 24.062L25.0617 23.6526L25.1441 24.062C25.2266 24.2257 25.3915 24.3893 25.6389 24.4711L25.9687 24.553L25.6389 24.6347ZM28.525 23.8981L26.2986 23.2434L25.6389 21.0333C25.5564 20.8696 25.3915 20.7059 25.1441 20.5422C24.8143 20.4604 24.402 20.6241 24.3195 21.0333L23.6599 23.2434L21.5159 23.8981C21.2685 23.9799 21.1036 24.1436 21.0212 24.3892C20.9387 24.7166 21.1036 25.1259 21.4335 25.2077L23.6599 25.8627L24.3195 28.0725C24.402 28.2362 24.5669 28.3999 24.8143 28.5636C25.1441 28.6454 25.5564 28.4817 25.6389 28.0725L26.2986 25.8627L28.525 25.2077C28.6899 25.1259 28.8548 24.9622 29.0197 24.7166C29.1846 24.3074 28.9373 23.9799 28.525 23.8981ZM20.1966 6.21859C20.444 6.13674 20.6089 5.97306 20.6913 5.72751L21.2685 3.76321L21.8457 5.72751C21.9282 5.97306 22.0931 6.13674 22.3405 6.21859L24.3195 6.7916L22.3405 7.3646C22.0931 7.44645 21.9282 7.61013 21.8457 7.85568L21.2685 9.81999L20.6913 7.85568C20.6089 7.61013 20.444 7.44645 20.1966 7.3646L18.2176 6.7916L20.1966 6.21859ZM15.6613 7.52821L19.5369 8.67422L20.6913 12.4392C20.7738 12.6848 20.9387 12.8485 21.1861 12.9303C21.5159 13.0122 21.9282 12.8486 22.0107 12.5212L23.1651 8.67422L26.9582 7.52821C27.2056 7.44636 27.3705 7.28268 27.453 7.03713C27.5354 6.70974 27.3705 6.30044 27.0407 6.21859L23.1651 5.07283L22.0107 1.2259C21.9282 1.0622 21.7633 0.816669 21.5159 0.734819C21.1861 0.65297 20.7738 0.816649 20.6913 1.2259L19.5369 5.07283L15.6613 6.21859C15.4964 6.30044 15.249 6.46429 15.1665 6.62799C15.0016 6.95539 15.249 7.36451 15.6613 7.52821Z" fill="white"/>
</svg>
