<svg width="29" height="26" viewBox="0 0 29 26" fill="none" xmlns="http://www.w3.org/2000/svg">
<path fill-rule="evenodd" clip-rule="evenodd" d="M20.9186 4.2369L17.4216 7.96062L20.5299 12.9256L26.6689 11.8498V10.3604L24.4931 9.53284C24.1823 9.45009 23.9492 9.11911 23.7937 8.70536L23.4828 7.54688L21.6179 6.7194C21.1517 6.63665 20.8408 6.14015 20.8408 5.64366V4.2369H20.9186ZM4.98822 8.9536H3.20108C2.89025 8.9536 2.73477 9.03636 2.65706 9.28461C2.57936 9.36735 2.57928 9.45011 2.57928 9.61561C2.57928 9.78111 2.57936 9.78111 2.65706 9.94661C2.73477 10.1121 2.89025 10.2776 3.20108 10.2776H4.98822C5.60989 10.2776 6.07625 10.7741 6.07625 11.4361V23.1865C6.07625 23.352 6.15387 23.5174 6.23158 23.6002C6.30929 23.6829 6.46485 23.7657 6.62027 23.7657C6.77568 23.7657 6.931 23.6829 7.00871 23.6002C7.08642 23.5174 7.16404 23.352 7.16404 23.1865V18.3043V18.2215C7.16404 17.6423 7.63041 17.063 8.25207 17.063H16.6445H16.7223C17.2662 17.063 17.8103 17.6423 17.8103 18.2215V23.1865C17.8103 23.352 17.8879 23.5174 17.9656 23.6002C18.0433 23.6829 18.1986 23.7657 18.3541 23.7657C18.4318 23.7657 18.665 23.6829 18.7427 23.6002C18.8205 23.5174 18.8981 23.352 18.8981 23.1865V14.5805L15.4011 8.9536H4.98822ZM3.20108 6.63664H4.98822H15.6342L21.307 0.595954C21.6956 0.182208 22.4727 0.182208 22.8613 0.595954C23.0944 0.844201 23.1719 1.09244 23.1719 1.42343V1.5062V4.98165L24.9593 5.72639C25.2702 5.89189 25.5034 6.14015 25.5811 6.5539L25.8918 7.62962L28.2232 8.45713C28.6894 8.62262 29.0001 9.03635 29.0001 9.53284V12.8428C29.0001 13.4221 28.534 13.9186 27.9901 14.0013L21.2292 15.1598V23.1037C21.2292 23.9312 20.9186 24.676 20.4523 25.1725C19.9861 25.6689 19.2866 25.9999 18.5872 25.9999C17.8878 25.9999 17.1107 25.6689 16.6445 25.1725C16.1005 24.5932 15.8676 23.8485 15.8676 23.1037V19.2972H9.65077V23.1037C9.65077 23.9312 9.33989 24.676 8.87364 25.1725C8.32968 25.6689 7.6303 25.9999 6.93093 25.9999C6.15384 25.9999 5.45447 25.6689 4.98822 25.1725C4.52197 24.5932 4.21133 23.8485 4.21133 23.1037V12.5118H3.51174C2.1907 12.5118 1.33601 11.6843 0.947471 10.6914C0.792054 10.3604 0.714355 9.86384 0.714355 9.53284C0.714355 9.20185 0.792054 8.70536 0.947471 8.37436C0.947471 7.46412 1.88004 6.63664 3.20108 6.63664Z" fill="white"/>
</svg>
