<svg width="29" height="29" viewBox="0 0 29 29" fill="none" xmlns="http://www.w3.org/2000/svg">
<path fill-rule="evenodd" clip-rule="evenodd" d="M26.7521 8.70944L26.037 9.50847H25.9575C25.878 9.66828 25.6396 9.74818 25.4012 9.74818C25.2423 9.74818 25.0836 9.66828 24.8452 9.58838L18.8862 3.59564C18.7273 3.43583 18.6478 3.19613 18.6478 3.03632C18.6478 2.79661 18.7273 2.6368 18.8862 2.477L18.9655 2.3971L19.6808 1.67797C19.8397 1.51816 19.9984 1.43826 20.2368 1.43826C20.3957 1.43826 20.6341 1.51816 20.793 1.67797L26.6725 7.5908L26.7521 7.6707C26.8315 7.8305 26.9109 7.99032 26.9109 8.23002C26.9903 8.38983 26.9904 8.62954 26.7521 8.70944ZM25.2424 13.0242L24.5274 13.7433L24.4478 13.8232C24.2889 13.9031 24.1302 14.063 23.8918 14.063C23.7329 14.063 23.4945 13.983 23.3356 13.8232L14.7544 5.1937V5.1138C14.5955 5.0339 14.4367 4.79419 14.4367 4.55448C14.4367 4.39467 14.5162 4.15496 14.6751 3.99516L14.7544 3.91526L15.4694 3.11622C15.6284 3.03632 15.8668 2.87651 16.0257 2.87651C16.264 2.87651 16.5025 2.95641 16.5819 3.11622L23.8123 10.3874L25.1629 11.7458C25.3218 11.9056 25.4012 12.0654 25.4012 12.3051C25.4807 12.5448 25.4013 12.7845 25.2424 13.0242ZM18.4887 10.9467L10.9407 18.5375L9.98732 17.4988L17.4558 9.9879L17.5353 9.90799L18.4887 10.9467ZM13.8805 23.2518C13.96 23.4116 14.1189 23.6513 14.1189 23.8111C14.1189 24.0508 14.0394 24.2906 13.8805 24.3705L13.801 24.4504L13.0859 25.1695C12.927 25.3293 12.6886 25.4092 12.5297 25.4092C12.2913 25.4092 12.0531 25.3293 11.9737 25.1695L7.68308 20.8547L3.39248 16.6199C3.23357 16.46 3.15413 16.2203 3.15413 16.0605C3.15413 15.8208 3.23357 15.5811 3.39248 15.5012L4.18707 14.7022C4.34598 14.5424 4.50495 14.4625 4.74331 14.4625C4.98167 14.4625 5.1404 14.5424 5.2993 14.7022H5.37884L13.8805 23.2518ZM9.5899 26.0484L8.87485 26.7675L8.79531 26.8475C8.6364 26.9274 8.47768 27.0872 8.23932 27.0872C8.00095 27.0872 7.84199 27.0073 7.68308 26.8475L1.80354 20.8547C1.64463 20.6949 1.56494 20.5351 1.56494 20.2954C1.56494 20.0557 1.64463 19.8959 1.80354 19.7361L2.59789 18.937C2.67734 18.7772 2.91576 18.6973 3.15413 18.6973C3.31303 18.6973 3.55146 18.7772 3.71036 18.937L6.72967 21.8935L9.74897 24.9298C9.82842 25.0896 9.90779 25.2494 9.90779 25.4891C9.82834 25.6489 9.82827 25.8886 9.5899 26.0484ZM4.42542 25.8087C4.18706 25.8087 4.02809 25.7288 3.86919 25.4891L3.07459 24.6901C2.91569 24.6102 2.83624 24.3705 2.83624 24.1307C2.83624 24.0508 2.83632 23.9709 2.91577 23.8111L4.8226 25.7288C4.58424 25.7288 4.58433 25.8087 4.42542 25.8087ZM24.1302 2.6368C24.3685 2.6368 24.5273 2.71671 24.6862 2.87651L25.4808 3.67554C25.6397 3.83535 25.7191 3.99516 25.7191 4.23487C25.7191 4.31477 25.7193 4.47458 25.6398 4.55448L23.7328 2.6368C23.9711 2.6368 24.0507 2.6368 24.1302 2.6368ZM27.785 6.63196L26.7521 5.59322C27.0699 5.1937 27.1492 4.79419 27.1492 4.31477C27.1492 3.75545 26.911 3.19612 26.5137 2.79661L25.7191 1.99758V1.83777C25.3218 1.51816 24.6862 1.27845 24.2095 1.27845C23.8122 1.27845 23.3354 1.43826 22.9382 1.67797L21.9055 0.639224C21.5082 0.239709 20.8725 0 20.3958 0C19.8396 0 19.2834 0.239709 18.8862 0.639224L18.0916 1.35835V1.43826C17.8532 1.59806 17.7738 1.83777 17.6149 2.15738C17.2176 1.83777 16.6614 1.59806 16.1052 1.59806C15.549 1.59806 15.0723 1.75787 14.5956 2.15738L13.8805 2.95642L13.801 3.03632C13.4037 3.43584 13.2447 3.99516 13.2447 4.55448C13.2447 5.1138 13.4038 5.67312 13.8805 6.07264L16.0257 8.30993L15.9464 8.38983L8.47767 15.9806L6.33225 13.7433H6.25296C5.85569 13.3438 5.22003 13.1041 4.74331 13.1041C4.26658 13.1041 3.63093 13.3438 3.23366 13.7433L2.43907 14.5424C2.04179 14.9419 1.80354 15.5012 1.80354 16.0605C1.80354 16.5399 1.96226 17.0993 2.35953 17.4988C2.04172 17.5787 1.80338 17.8184 1.64447 17.9782L0.849883 18.7772C0.373157 19.1768 0.214355 19.816 0.214355 20.2954C0.214355 20.7748 0.373157 21.414 0.849883 21.8136L1.88283 22.8523C1.56501 23.1719 1.48565 23.6513 1.48565 24.1307C1.48565 24.6901 1.72391 25.2494 2.12118 25.7288L2.91577 26.5278C3.31304 26.9274 3.86924 27.0872 4.42542 27.0872C4.8227 27.0872 5.29945 27.0073 5.69672 26.6876L6.72967 27.7264C7.12694 28.1259 7.76259 28.2857 8.23932 28.2857C8.7955 28.2857 9.3517 28.1259 9.74897 27.7264L9.82826 27.6465L10.5433 26.9274C10.7817 26.6877 10.8611 26.4479 11.02 26.2082C11.4173 26.5278 11.9735 26.7675 12.5297 26.7675C13.0859 26.7675 13.5626 26.5278 14.0393 26.1283L14.7544 25.4092L14.8339 25.3293C15.2312 24.9298 15.3902 24.3705 15.3902 23.8111C15.3902 23.2518 15.2312 22.6925 14.8339 22.293L12.6092 20.0557L20.0779 12.5448L20.1575 12.4649L22.3822 14.7022L22.4615 14.7821C22.8587 15.1017 23.4149 15.3414 23.9711 15.3414C24.5273 15.3414 25.0835 15.1017 25.4808 14.7022L25.5603 14.6223L26.2754 13.9031C26.6726 13.5036 26.9109 12.8644 26.9109 12.385C26.9109 11.9056 26.7522 11.3462 26.3549 10.8668C26.6727 10.7869 26.9109 10.6271 27.1492 10.3874L27.8645 9.58838C28.3413 9.18886 28.5001 8.62954 28.5001 8.07021C28.3412 7.5908 28.1823 7.03148 27.785 6.63196Z" fill="white"/>
</svg>
