<svg width="34" height="22" viewBox="0 0 34 22" fill="none" xmlns="http://www.w3.org/2000/svg">
<path fill-rule="evenodd" clip-rule="evenodd" d="M22.4519 16.7692C23.4463 17.1419 24.1695 17.6079 24.1695 17.9807C24.1695 18.3534 23.5367 18.726 22.4519 19.1919C21.1864 19.5646 19.3784 19.8443 17.3897 19.8443C15.4009 19.8443 13.5929 19.5646 12.237 19.1919C11.2426 18.8191 10.5194 18.3534 10.5194 17.9807C10.5194 17.6079 11.1522 17.2351 12.237 16.7692C13.5929 16.3964 15.4009 16.1168 17.3897 16.1168C19.288 16.1168 21.096 16.3964 22.4519 16.7692ZM24.0791 15.9305C23.7175 15.7442 23.356 15.5578 22.904 15.3714C21.4576 14.8123 19.4688 14.5325 17.2993 14.5325C15.1297 14.5325 13.141 14.8123 11.6946 15.3714C11.2426 15.4646 10.7906 15.7442 10.5194 15.9305V10.3392C10.5194 9.96642 11.1522 9.50044 12.237 9.12768C13.5929 8.66174 15.4009 8.3823 17.3897 8.3823C19.3784 8.3823 21.1864 8.66174 22.4519 9.12768C23.5367 9.50044 24.1695 9.87324 24.1695 10.3392V15.9305H24.0791ZM9.25381 9.22096L5.72829 7.91619L17.2993 3.62961L28.8703 7.91619L25.3447 9.22096C24.9831 8.56865 24.0791 8.00939 22.904 7.63664C21.4576 7.1707 19.4688 6.89126 17.2993 6.89126C15.1297 6.89126 13.141 7.1707 11.6946 7.63664C10.5194 8.00939 9.70581 8.56865 9.25381 9.22096ZM1.93158 9.31396V12.2961L0.213992 16.4896C0.0331958 16.8624 0.214001 17.3282 0.575593 17.5146C0.937186 17.6078 1.38918 17.5148 1.56998 17.142L1.84116 16.4896V17.235C1.84116 17.6078 2.20277 18.0737 2.56437 18.0737C2.92596 18.0737 3.28757 17.701 3.28757 17.235V16.4896L3.55875 17.142C3.73955 17.5148 4.19154 17.701 4.55314 17.5146C4.91473 17.3282 5.18593 16.8624 4.91474 16.4896L3.19715 12.2961V9.87307L8.71145 11.9232V17.9807V18.0737C8.80185 19.1919 9.79625 20.124 11.4234 20.5899C12.8698 21.1491 14.8585 21.4286 17.0281 21.4286C19.1976 21.4286 21.1864 21.1491 22.6328 20.5899C24.3503 20.0308 25.3447 19.0988 25.3447 18.0737V17.9807V11.9232L32.7573 9.12768C33.1189 9.0345 33.3901 8.75506 33.4805 8.3823C33.7517 7.72999 33.3901 6.89107 32.7573 6.7047L17.4801 0.927069C17.2089 0.833881 16.9377 0.833881 16.5761 0.927069L1.2988 6.7047C0.937203 6.79789 0.665992 7.07761 0.575593 7.45036C0.394797 8.10268 0.666008 8.94131 1.2988 9.12768L1.93158 9.31396Z" fill="white"/>
</svg>
