<svg width="29" height="29" viewBox="0 0 29 29" fill="none" xmlns="http://www.w3.org/2000/svg">
<path fill-rule="evenodd" clip-rule="evenodd" d="M23.0395 0.995714C26.2134 -2.08355 30.7808 2.68932 27.8391 5.6916L23.9684 9.54068L25.5941 23.4744C25.6716 23.7823 25.5168 24.0902 25.2845 24.3212L22.8073 26.7846C22.3428 27.2465 21.6461 27.2465 21.259 26.7846C21.1042 26.7076 21.0267 26.4766 20.9493 26.3997L16.9239 16.546L13.9048 19.5483L14.6788 24.3212C14.6788 24.7061 14.6015 25.091 14.3692 25.3219L11.7372 27.9393C11.2727 28.4012 10.5759 28.4012 10.1889 27.9393C10.1114 27.8623 10.034 27.7083 9.95662 27.6314L7.16974 21.8577L1.13152 18.8555C0.589623 18.5475 0.357445 17.9317 0.589685 17.3928C0.667098 17.2389 0.744502 17.1619 0.821915 17.0849L3.53131 14.4675C3.76355 14.2366 4.07328 14.1596 4.46035 14.1596L9.25993 14.8524L12.3564 11.8501L2.29279 7.84708C1.75089 7.61613 1.5186 7.00029 1.75084 6.38444C1.82825 6.30746 1.82824 6.0765 1.98307 6.0765L4.46035 3.53612C4.69259 3.30518 5.0022 3.22819 5.38927 3.22819L19.3237 4.9218L23.0395 0.995714ZM24.5877 2.45838L20.3301 6.69237C20.0979 6.92332 19.7882 7.0003 19.4785 7.0003L5.46664 5.38367L4.53772 6.30747L14.4466 10.3105C14.6014 10.3875 14.7562 10.3875 14.9111 10.6184C15.2981 11.0033 15.2981 11.6962 14.9111 12.1581L10.3437 16.7C10.1115 16.9309 9.80178 17.0079 9.33731 17.0079L4.53772 16.2381L3.29908 17.4698L8.33101 19.9332C8.48584 20.0102 8.64065 20.1642 8.79547 20.3951L11.1179 25.168L12.3564 23.9362L11.5824 19.2404C11.5049 18.9325 11.6597 18.4706 11.892 18.2396L16.4594 13.6977V13.7747C16.5368 13.6977 16.6142 13.5437 16.769 13.4668C17.3109 13.2358 18.0077 13.5437 18.2399 14.0826L22.2654 24.0132L23.1943 23.0895L21.5686 9.23275C21.4912 8.92482 21.6461 8.53992 21.8783 8.30898L26.1361 4.07499C27.2973 3.07423 25.6715 1.45762 24.5877 2.45838Z" fill="white"/>
</svg>
