<svg width="34" height="35" viewBox="0 0 34 35" fill="none" xmlns="http://www.w3.org/2000/svg">
<path fill-rule="evenodd" clip-rule="evenodd" d="M12.9312 19.3457H21.1596V26.5355H12.9312V19.3457ZM21.891 28.1229C22.3481 28.1229 22.7138 27.7495 22.7138 27.376V18.5987C22.7138 18.1318 22.3481 17.7583 21.891 17.7583H12.1998C11.7427 17.7583 11.377 18.1318 11.377 18.5987V27.376C11.377 27.7495 11.7427 28.1229 12.1998 28.1229H21.891ZM25.3652 10.2882L22.2567 7.11334V2.44455H25.3652V10.2882ZM33.5021 18.5987L26.828 11.8756V1.6042C26.828 1.2307 26.4623 0.857178 26.0965 0.857178H21.5253C21.0681 0.857178 20.7024 1.2307 20.7024 1.6042V5.52597L18.0511 2.72481C17.5025 2.25793 16.6797 2.25793 16.2226 2.72481L0.771558 18.5052C0.314429 19.0655 0.314429 19.906 0.771558 20.3728C1.32011 20.9331 2.14295 20.9331 2.60008 20.3728L17.1368 5.52597L31.765 20.3728C32.2221 20.9331 33.0449 20.9331 33.5935 20.3728C33.9592 19.9993 33.9592 19.1589 33.5021 18.5987ZM27.6508 18.7853C27.0108 18.7853 26.3708 19.3457 26.3708 20.0927V31.6712H7.71995V20.0927C7.71995 19.3457 7.07997 18.7853 6.43999 18.7853C5.70858 18.7853 5.16003 19.3457 5.16003 20.0927V32.9785C5.16003 33.6321 5.70858 34.2857 6.43999 34.2857H27.6508C28.2908 34.2857 28.9308 33.6321 28.9308 32.9785V20.0927C29.0222 19.3457 28.3822 18.7853 27.6508 18.7853Z" fill="white"/>
</svg>
