<svg width="23" height="29" viewBox="0 0 23 29" fill="none" xmlns="http://www.w3.org/2000/svg">
<path fill-rule="evenodd" clip-rule="evenodd" d="M3.47686 13.9058C7.21954 16.5131 16.3515 16.5131 20.1691 13.9058H3.47686ZM2.80297 15.9601C2.72812 16.0391 2.65343 16.1181 2.50372 16.2761C2.35402 16.5922 2.20424 17.0662 2.20424 17.5403C2.20424 18.0144 2.27916 18.4883 2.50372 18.8044C2.65343 18.9624 2.80319 19.1205 3.02775 19.1205C3.02775 19.1205 3.10245 19.1205 3.10245 19.0415L3.17738 18.9624C3.25223 18.9624 3.32708 18.8835 3.40193 18.8835C3.70135 18.8045 4.15051 18.9625 4.15051 19.2785C4.37507 20.0686 4.67453 20.7006 4.8991 21.4117C5.64763 22.9129 6.77031 24.3351 8.04282 25.3622C9.24048 26.3894 10.513 26.8635 11.7855 26.8635C12.9832 26.8635 14.2556 26.3104 15.4533 25.3622C16.7258 24.3351 17.9235 22.8339 18.5972 21.4117C18.8966 20.7006 19.1212 20.0686 19.3458 19.2785C19.4207 18.9625 19.795 18.7254 20.0944 18.8835C20.1692 18.8835 20.1692 18.9624 20.3189 18.9624L20.3936 19.0415C20.4685 19.1205 20.4686 19.1205 20.4686 19.1205C20.6183 19.1205 20.768 18.9624 20.9926 18.8044C21.1423 18.4883 21.2918 18.0144 21.2918 17.5403C21.2918 17.0662 21.2171 16.5922 20.9926 16.2761C20.9177 16.1971 20.8428 16.0391 20.6931 15.9601C16.3516 18.6465 7.29419 18.7255 2.80297 15.9601ZM12.9083 2.29125V9.87629C12.9083 10.4294 12.3844 10.9033 11.8604 10.9033C11.3365 10.9033 10.8124 10.4294 10.8124 9.87629V2.29125C9.83927 2.37026 8.86621 2.68635 8.04282 3.0814V8.21702C8.04282 8.53306 7.74343 8.84912 7.36917 8.84912C7.06975 8.84912 6.77044 8.53306 6.77044 8.21702V3.95052C4.44997 5.68874 3.02775 8.53305 3.02775 11.5354V12.5626H20.6931V11.5354C20.6931 8.45404 19.2709 5.68874 16.9504 3.95052V8.21702C16.9504 8.53306 16.6511 8.84912 16.3517 8.84912C16.0523 8.84912 15.6778 8.53306 15.6778 8.21702V3.0814C14.7796 2.68635 13.8814 2.37026 12.9083 2.29125ZM11.7855 28.2857C10.2884 28.2857 8.71653 27.6535 7.36917 26.4684C5.94695 25.2832 4.67442 23.703 3.85103 22.0438C3.55162 21.4908 3.40194 21.0168 3.17738 20.3847C3.10253 20.3847 3.10261 20.3847 3.02775 20.3847C2.42892 20.3847 1.82993 20.0686 1.45566 19.4365C1.15625 18.9624 0.931632 18.2514 0.931632 17.5403C0.931632 16.7502 1.08139 16.0391 1.45566 15.644C1.53052 15.565 1.60543 15.407 1.75514 15.328C1.15631 14.775 0.856934 14.0639 0.856934 13.3528V11.6145C0.856934 5.2937 5.79721 0 11.7855 0C17.7738 0 22.7141 5.2937 22.7141 11.6145V13.3528C22.7141 14.0639 22.4147 14.775 21.8159 15.328C21.8907 15.407 21.9656 15.486 22.1153 15.644C22.4148 16.1181 22.6394 16.8292 22.6394 17.5403C22.6394 18.3304 22.4148 19.0414 22.1153 19.4365C21.7411 19.9895 21.1423 20.3847 20.5435 20.3847C20.4686 20.3847 20.4685 20.3847 20.3936 20.3847C20.1691 20.9378 20.0194 21.4908 19.72 22.0438C18.8966 23.7821 17.6989 25.3622 16.2018 26.4684C14.8545 27.6535 13.2826 28.2857 11.7855 28.2857Z" fill="white"/>
</svg>
