<svg width="182" height="60" viewBox="0 0 182 60" fill="none" xmlns="http://www.w3.org/2000/svg">
<path d="M0 15C0 6.71573 6.71573 0 15 0H167C175.284 0 182 6.71573 182 15V45C182 53.2843 175.284 60 167 60H15C6.71573 60 0 53.2843 0 45V15Z" fill="url(#paint0_linear)"/>
<path d="M70.7713 18.3351C70.7849 18.7202 70.7217 19.1041 70.5857 19.4632C70.4497 19.8222 70.2436 20.1487 69.9803 20.4227C69.3654 21.0037 68.583 21.3621 67.7521 21.4435V21.5123C68.6401 21.5857 69.4826 21.9472 70.1585 22.5446C70.431 22.8157 70.6451 23.1425 70.7871 23.5041C70.9291 23.8657 70.9958 24.2539 70.9829 24.6437C71.0076 25.1965 70.8983 25.747 70.6649 26.2456C70.4315 26.7441 70.0814 27.1751 69.6461 27.4998C68.5396 28.2509 67.2253 28.6093 65.9028 28.5207C64.6567 28.5694 63.4157 28.3303 62.271 27.8209V26.4101C63.4212 26.9564 64.6697 27.2493 65.9362 27.2704C66.8494 27.335 67.7587 27.0979 68.532 26.5936C68.8232 26.3721 69.0575 26.0809 69.2147 25.7451C69.372 25.4093 69.4474 25.0391 69.4344 24.6666C69.4487 24.3008 69.3661 23.9377 69.1953 23.6164C69.0246 23.2952 68.7722 23.0278 68.4652 22.8429C67.5601 22.3823 66.5541 22.1728 65.5463 22.235H63.6524V20.9503H65.4683C66.4309 21.0074 67.3894 20.7805 68.2312 20.2965C68.5351 20.1052 68.7846 19.8349 68.9548 19.5127C69.1249 19.1905 69.2097 18.8279 69.2004 18.4613C69.2096 18.1662 69.1508 17.8731 69.0288 17.606C68.9068 17.3388 68.7251 17.1052 68.4986 16.9243C67.9477 16.5208 67.2796 16.3225 66.6047 16.3622C66.0221 16.3532 65.4411 16.4266 64.8779 16.5802C64.2465 16.7873 63.6465 17.0846 63.0954 17.4634L62.3713 16.4425C62.967 15.9914 63.6342 15.6499 64.3431 15.4331C65.0653 15.2061 65.8161 15.0901 66.5712 15.089C67.6598 15.021 68.739 15.3321 69.6349 15.9722C69.9962 16.2417 70.2884 16.5976 70.4864 17.0093C70.6843 17.4209 70.7821 17.8759 70.7713 18.3351Z" fill="white"/>
<path d="M83.7502 31.7553H82.3465V28.3143H73.5231V31.7553H72.1194V26.9723H73.0998C74.0829 25.1988 74.85 23.3072 75.3836 21.3404C75.9772 19.3781 76.3327 17.3478 76.442 15.2957H82.146V26.9952H83.7502V31.7553ZM80.6754 26.9723V16.6491H77.7788C77.611 18.4184 77.26 20.1642 76.7316 21.8566C76.2279 23.6414 75.529 25.3614 74.6483 26.9838L80.6754 26.9723Z" fill="white"/>
<path d="M96.908 21.7877C97.0168 23.5864 96.4678 25.3619 95.3705 26.7658C94.2115 27.9079 92.6691 28.5453 91.0648 28.5453C89.4604 28.5453 87.918 27.9079 86.7589 26.7658C85.6616 25.3623 85.1168 23.5855 85.2326 21.7877C85.1202 19.9974 85.665 18.229 86.7589 16.8326C87.3167 16.2339 87.9941 15.767 88.7442 15.464C89.4943 15.161 90.2993 15.0292 91.1037 15.0777C91.8991 15.0337 92.6941 15.1713 93.4317 15.4806C94.1694 15.79 94.8315 16.2634 95.3705 16.867C96.4567 18.2549 97.0049 20.0081 96.908 21.7877ZM86.7923 21.7877C86.6969 23.226 87.0908 24.6535 87.9064 25.8252C88.3001 26.2893 88.7923 26.6537 89.3449 26.8904C89.8974 27.1271 90.4954 27.2297 91.0926 27.1902C91.6903 27.2341 92.2896 27.1336 92.8429 26.8966C93.3961 26.6596 93.8879 26.2927 94.2788 25.8252C95.0911 24.6518 95.4849 23.2255 95.3928 21.7877C95.4762 20.3651 95.0828 18.9562 94.2788 17.7961C93.8879 17.3323 93.3975 16.9686 92.8465 16.7337C92.2954 16.4987 91.6988 16.3991 91.1037 16.4426C90.5031 16.4013 89.9012 16.5029 89.3448 16.7396C88.7885 16.9763 88.2924 17.3417 87.8952 17.8076C87.091 18.9627 86.7012 20.3696 86.7923 21.7877Z" fill="white"/>
<path d="M107.792 19.0808C107.834 19.6681 107.735 20.2566 107.506 20.7961C107.277 21.3356 106.924 21.8097 106.478 22.1778C105.378 22.966 104.05 23.3462 102.712 23.256H101.219V28.3947H99.7383V15.2957H103.08C106.199 15.2957 107.792 16.5459 107.792 19.0808ZM101.219 21.9025H102.545C103.535 21.9836 104.525 21.7557 105.387 21.2487C105.688 21.0017 105.926 20.6821 106.079 20.3181C106.233 19.954 106.297 19.5567 106.266 19.1611C106.29 18.7936 106.228 18.4256 106.084 18.0882C105.94 17.7508 105.72 17.4539 105.442 17.2226C104.666 16.739 103.762 16.5183 102.858 16.5918H101.219V21.9025Z" fill="white"/>
<path d="M121.473 21.7877C121.582 23.5884 121.029 25.3657 119.924 26.7658C119.383 27.3703 118.719 27.8442 117.98 28.1536C117.24 28.4629 116.443 28.6001 115.646 28.5551C114.84 28.6038 114.034 28.4686 113.285 28.1593C112.536 27.85 111.862 27.3742 111.312 26.7658C110.22 25.3597 109.676 23.5848 109.786 21.7877C109.68 19.9981 110.223 18.2317 111.312 16.8326C111.87 16.2339 112.548 15.767 113.298 15.464C114.048 15.161 114.853 15.0292 115.658 15.0777C116.455 15.0328 117.251 15.1699 117.991 15.4792C118.73 15.7886 119.394 16.2625 119.935 16.867C121.021 18.2549 121.569 20.0081 121.473 21.7877ZM111.357 21.7877C111.261 23.2259 111.656 24.6534 112.471 25.8252C112.867 26.2895 113.361 26.6539 113.915 26.8906C114.47 27.1272 115.07 27.2297 115.669 27.1902C116.266 27.2332 116.865 27.1323 117.418 26.8953C117.971 26.6584 118.463 26.292 118.855 25.8252C119.662 24.6493 120.055 23.225 119.969 21.7877C120.052 20.3651 119.659 18.9562 118.855 17.7961C118.462 17.3276 117.969 16.9609 117.413 16.7258C116.857 16.4906 116.256 16.3936 115.658 16.4426C115.057 16.403 114.455 16.5055 113.899 16.742C113.343 16.9786 112.847 17.3431 112.448 17.8076C111.648 18.9643 111.262 20.3709 111.357 21.7877Z" fill="white"/>
<path d="M124.302 15.2954H127.889C129.154 15.1992 130.42 15.4694 131.543 16.0753C131.919 16.3509 132.218 16.7217 132.414 17.1518C132.608 17.5819 132.693 18.0566 132.657 18.53C132.682 19.2289 132.461 19.9135 132.033 20.457C131.55 20.993 130.899 21.3379 130.195 21.4319V21.5237C132.122 21.8563 133.08 22.9001 133.08 24.655C133.111 25.1676 133.026 25.6803 132.833 26.1536C132.639 26.627 132.343 27.0483 131.967 27.3849C131.039 28.093 129.899 28.4423 128.747 28.3714H124.291L124.302 15.2954ZM125.772 20.8928H128.212C128.987 20.9529 129.762 20.7774 130.44 20.3881C130.682 20.1856 130.872 19.9247 130.992 19.6285C131.112 19.3324 131.16 19.0102 131.131 18.6906C131.154 18.3782 131.094 18.0653 130.959 17.7848C130.824 17.5042 130.617 17.2663 130.362 17.0962C129.608 16.719 128.77 16.5528 127.933 16.6144H125.706L125.772 20.8928ZM125.772 22.1775V27.0753H128.479C129.297 27.1338 130.11 26.9164 130.797 26.4559C131.064 26.2222 131.274 25.927 131.409 25.5942C131.545 25.2613 131.602 24.9003 131.576 24.5403C131.6 24.1966 131.539 23.8523 131.399 23.5395C131.259 23.2266 131.044 22.9553 130.774 22.751C130.041 22.3169 129.2 22.1172 128.357 22.1775H125.772Z" fill="white"/>
<path d="M144.591 24.5406C144.618 25.0711 144.526 25.6008 144.321 26.0884C144.116 26.5759 143.804 27.0081 143.41 27.3508C142.443 28.0738 141.261 28.4267 140.068 28.3488H135.834V15.2957H137.316V20.8587H139.834C141.082 20.7716 142.325 21.1015 143.377 21.7993C143.781 22.1191 144.104 22.5363 144.315 23.0143C144.527 23.4921 144.622 24.0163 144.591 24.5406ZM137.305 27.0297H139.901C142.006 27.0297 143.054 26.2038 143.054 24.5406C143.079 24.1984 143.019 23.8553 142.878 23.544C142.737 23.2328 142.522 22.9638 142.252 22.7627C141.448 22.3126 140.535 22.1096 139.623 22.1778H137.283L137.305 27.0297Z" fill="white"/>
<path d="M154.338 28.3488H147.263V15.2957H154.338V16.6262H148.767V20.8358H154.037V22.1778H148.767V26.9838H154.338V28.3488Z" fill="white"/>
<path d="M52.6008 20.7439H43.4878V11.3613H25.7073V20.7439H16.5942V39.0504H25.7073V48.433H43.4878V39.0504H52.6008V20.7439Z" stroke="white" stroke-width="1.13" stroke-miterlimit="10"/>
<path d="M68.2215 45.118H67.1074V36.0565H62.0384V45.118H60.9243V34.9897H68.2437L68.2215 45.118Z" fill="white"/>
<path d="M76.3866 45.118H70.9165V34.9897H76.3866V36.0335H72.064V39.2911H76.1193V40.3234H72.064V44.0398H76.3866V45.118Z" fill="white"/>
<path d="M81.5902 45.1186H80.4761V36.0572H77.3345V35.0134H84.6985V36.0572H81.5902V45.1186Z" fill="white"/>
<path d="M91.6492 45.118H86.1458V34.9897H91.627V36.0335H87.3155V39.2911H91.3819V40.3234H87.3155V44.0398H91.6492V45.118Z" fill="white"/>
<path d="M100.038 37.9376C100.064 38.3843 99.9844 38.8308 99.808 39.2398C99.6324 39.6487 99.3631 40.0085 99.0246 40.289C98.1729 40.8921 97.1487 41.1829 96.1174 41.1149H95.003V45.118H93.8889V34.9897H96.4289C98.8133 34.9897 100.038 35.9418 100.038 37.9376ZM94.9584 40.1055H95.9831C96.7586 40.1763 97.5365 40.0001 98.2118 39.6008C98.4438 39.409 98.6266 39.1608 98.7433 38.8786C98.8601 38.5965 98.907 38.2889 98.88 37.9835C98.8991 37.7006 98.8514 37.4172 98.741 37.1575C98.6297 36.8978 98.4597 36.6696 98.2452 36.4924C97.6501 36.1192 96.9564 35.9467 96.262 35.9992H94.9584V40.1055Z" fill="white"/>
<path d="M108.427 42.1472C108.461 42.5622 108.4 42.9798 108.249 43.3663C108.099 43.7528 107.861 44.0974 107.558 44.3724C106.801 44.9125 105.891 45.1751 104.973 45.118H102.098V34.9897H107.88V36.0335H103.235V39.3026H104.761C105.475 39.2784 106.188 39.3832 106.866 39.6122C107.353 39.7711 107.775 40.0894 108.07 40.5184C108.345 41.0122 108.469 41.5797 108.427 42.1472ZM103.201 44.0742H104.805C105.456 44.1283 106.107 43.9719 106.666 43.6268C106.884 43.4539 107.056 43.2284 107.169 42.9703C107.282 42.7123 107.331 42.4295 107.312 42.1472C107.335 41.8817 107.294 41.6146 107.191 41.3701C107.087 41.1256 106.926 40.9117 106.722 40.7479C106.085 40.4164 105.372 40.2735 104.661 40.3349H103.235L103.201 44.0742Z" fill="white"/>
<path d="M111.145 45.2323C110.699 45.2409 110.254 45.1711 109.83 45.0258V43.8789C110.228 44.0723 110.661 44.174 111.101 44.1771C111.522 44.2017 111.939 44.0762 112.282 43.8216C112.674 43.4637 112.979 43.0157 113.173 42.5139L109.351 34.9895H110.655L113.551 40.7246C113.661 40.9358 113.747 41.159 113.808 41.3898C113.884 41.1404 113.973 40.8954 114.075 40.6557L116.481 34.978H117.695L114.554 42.2042C114.286 42.8685 113.946 43.4996 113.54 44.0854C113.268 44.4499 112.917 44.7444 112.515 44.9456C112.084 45.142 111.617 45.2398 111.145 45.2323Z" fill="white"/>
<path d="M125.284 37.9376C125.309 38.3843 125.23 38.8308 125.054 39.2398C124.877 39.6487 124.609 40.0085 124.27 40.289C123.418 40.8921 122.394 41.1829 121.362 41.1149H120.248V45.118H119.134V34.9897H121.674C124.025 34.9897 125.284 35.9418 125.284 37.9376ZM120.204 40.1055H121.229C122.004 40.18 122.783 40.0036 123.457 39.6008C123.693 39.4115 123.878 39.1643 123.998 38.8816C124.116 38.5989 124.164 38.2901 124.136 37.9835C124.155 37.7006 124.107 37.4172 123.997 37.1575C123.886 36.8978 123.716 36.6696 123.501 36.4924C122.906 36.1192 122.213 35.9467 121.518 35.9992H120.204V40.1055Z" fill="white"/>
<path d="M130.007 39.899L126.153 34.9897H127.423L131.244 39.8876V34.9897H132.358V39.8876L136.179 34.9897H137.461L133.595 39.8876L137.572 45.118H136.279L132.369 39.9908V45.118H131.255V39.9678L127.367 45.118H126.03L130.007 39.899Z" fill="white"/>
<path d="M146.306 44.0283H147.42V47.7332H146.306V45.118H138.953V34.9897H140.067V44.0283H145.192V34.9897H146.306V44.0283Z" fill="white"/>
<path d="M155.218 45.1179L153.992 41.9062H150.093L148.89 45.1179H147.775L151.652 34.9668H152.622L156.432 45.1179H155.218ZM153.636 40.851L152.522 37.7196C152.376 37.3182 152.221 36.8364 152.065 36.2514C151.965 36.6988 151.819 37.1805 151.641 37.7196L150.527 40.851H153.636Z" fill="white"/>
<path d="M50.1275 32.7875C49.3069 32.3999 48.4121 32.2078 47.5094 32.2254C47.0817 32.3789 46.6853 32.6122 46.3396 32.9136C46.2838 32.9704 46.2166 33.0141 46.1429 33.0417C46.0691 33.0694 45.9904 33.0803 45.9122 33.0738C45.8339 33.0672 45.7579 33.0434 45.6894 33.0039C45.6209 32.9644 45.5616 32.9101 45.5152 32.8449L44.7465 31.8125C44.7154 31.7495 44.666 31.6978 44.6053 31.6646C44.5446 31.6314 44.4754 31.6183 44.4073 31.6271C44.339 31.636 44.2751 31.6661 44.2242 31.7137C44.1733 31.7612 44.1378 31.8237 44.1227 31.8928C44.1227 31.8928 43.4431 33.4413 42.719 33.3495C41.9948 33.2578 41.6049 33.3495 41.46 32.776C41.3153 32.2025 40.981 28.8646 40.981 28.8646C40.9447 28.5083 40.796 28.1739 40.5577 27.9126C40.3238 27.6463 40.1827 27.3073 40.1566 26.9492L39.789 21.0305C39.789 20.6864 39.7221 20.6864 39.6998 21.0305L39.2542 26.8344C39.1962 27.2276 39.0024 27.586 38.7083 27.8439C38.5608 27.964 38.4398 28.1152 38.3533 28.2872C38.2669 28.4593 38.217 28.6483 38.207 28.8417V31.2046C38.1881 31.6062 38.0815 31.9983 37.895 32.3516C37.7941 32.5094 37.6569 32.639 37.4956 32.7292C37.3343 32.8192 37.1539 32.8668 36.9704 32.8678L35.5889 32.7646C35.4223 32.7505 35.2666 32.6737 35.1514 32.5489C35.0363 32.424 34.97 32.2599 34.965 32.0878V31.0326C34.9458 30.6311 34.7832 30.2512 34.5083 29.9658L34.4303 29.897C34.1715 29.634 33.9768 29.3117 33.8622 28.9565C33.8622 28.6697 33.7062 28.6697 33.6393 28.9565C33.5391 29.2912 33.3591 29.5949 33.1157 29.8396C32.8658 30.1137 32.723 30.4732 32.7146 30.849V31.434C32.7195 31.509 32.706 31.5842 32.6753 31.6525C32.6445 31.7207 32.5975 31.7799 32.5386 31.8245C32.4797 31.8691 32.4109 31.8977 32.3385 31.9077C32.266 31.9176 32.1924 31.9085 32.1242 31.8813C31.7622 31.776 31.3837 31.7448 31.0101 31.7896C30.4643 31.8813 30.0966 32.7072 30.0966 32.7072C29.9518 33.0284 29.6732 33.0971 29.4727 32.8678C29.3507 32.7473 29.198 32.6649 29.0323 32.6304C28.8666 32.5958 28.6948 32.6106 28.5369 32.6728C27.9363 32.9342 27.3135 33.1376 26.6764 33.2807C26.3088 33.2807 25.4844 32.0419 25.4844 32.0419C25.269 31.6855 25.1039 31.2993 24.9941 30.8949L24.7379 29.7479C24.66 29.4038 24.5262 29.4038 24.4482 29.7479L24.2032 30.7458C24.0795 31.1289 23.8466 31.4646 23.5347 31.7093C22.921 32.145 22.2442 32.4779 21.5294 32.6957C20.7168 32.744 19.9022 32.744 19.0896 32.6957" stroke="white" stroke-width="1.13" stroke-miterlimit="10"/>
<defs>
<linearGradient id="paint0_linear" x1="12" y1="1.12957e-05" x2="135.039" y2="67.9293" gradientUnits="userSpaceOnUse">
<stop stop-color="#3CF0E5"/>
<stop offset="1" stop-color="#6CA9F1"/>
</linearGradient>
</defs>
</svg>
