<svg width="70" height="70" viewBox="0 0 70 70" fill="none" xmlns="http://www.w3.org/2000/svg">
<rect x="70" y="70" width="70" height="70" rx="20" transform="rotate(-180 70 70)" fill="url(#paint0_linear)"/>
<path fill-rule="evenodd" clip-rule="evenodd" d="M56.4715 42.7745H44.2882C43.7778 42.7745 43.36 42.3698 43.36 41.8751C43.36 41.3805 43.7778 40.9758 44.2882 40.9758H56.4715C56.9841 40.9758 57.3998 41.3784 57.3998 41.8751C57.3998 42.3719 56.9841 42.7745 56.4715 42.7745ZM59.1585 45.8293H40.8583C40.5189 45.8293 40.2461 45.8183 40.0188 45.7969C39.7914 45.7754 39.6098 45.7435 39.4529 45.7014C39.3639 45.6776 39.2834 45.6505 39.2068 45.6204C39.1302 45.5901 39.0581 45.5567 38.9864 45.5203C38.9822 45.5182 38.9779 45.5159 38.9734 45.5138C38.9691 45.5116 38.9649 45.5093 38.9604 45.507C38.7575 45.4019 38.5765 45.2723 38.4193 45.1197C38.2618 44.9672 38.1278 44.7918 38.0194 44.5953C38.017 44.5911 38.0148 44.5869 38.0125 44.5827C38.0102 44.5784 38.008 44.5743 38.0057 44.5701C37.9681 44.5005 37.9336 44.4306 37.9025 44.3566C37.8713 44.2825 37.8435 44.2043 37.8189 44.1181C37.7755 43.9662 37.7424 43.7901 37.7203 43.5699C37.6982 43.3497 37.6868 43.0853 37.6868 42.7564V27.6784C37.6868 27.6771 37.6868 27.6758 37.6868 27.6744C37.6868 27.6732 37.6869 27.6718 37.6869 27.6705C37.6875 27.4925 37.7106 27.3223 37.7535 27.1622C37.7965 27.0022 37.8595 26.8524 37.94 26.7149C38.0211 26.5764 38.1201 26.4506 38.2346 26.3397C38.3491 26.2289 38.479 26.1329 38.6219 26.0543C38.7648 25.9757 38.9207 25.9144 39.0872 25.8727C39.2537 25.831 39.4308 25.8091 39.6161 25.8091H57.229C57.7558 25.8091 58.2333 26.0136 58.5814 26.3449C58.9296 26.6763 59.1485 27.1348 59.1582 27.6427C59.1685 28.1665 58.9438 28.6428 58.5817 28.9881C58.2193 29.3334 57.7195 29.5478 57.1788 29.5478H42.7057C42.3854 29.5478 42.0954 29.6736 41.8856 29.8771C41.6754 30.0805 41.5456 30.3615 41.5456 30.672V36.5041C41.5456 36.8144 41.6754 37.0955 41.8856 37.2989C42.0954 37.5024 42.3854 37.6283 42.7057 37.6283H55.9672C56.5221 37.6283 56.8999 37.6561 57.19 37.7104C57.48 37.7646 57.6823 37.8453 57.8848 37.9504C58.0852 38.0541 58.2669 38.1851 58.4252 38.3386C58.5839 38.4921 58.7189 38.6682 58.8261 38.8622C58.9344 39.0587 59.0177 39.2544 59.0737 39.5354C59.1297 39.8164 59.1585 40.1827 59.1585 40.7203V45.8293ZM58.797 36.383C58.4419 36.199 58.0886 36.0581 57.5808 35.9631C57.0734 35.8681 56.4116 35.8192 55.4407 35.8192H43.3814V31.336H57.2399C58.2853 31.336 59.2317 30.9254 59.9169 30.2617C60.602 29.598 61.0256 28.6809 61.0256 27.668C61.0256 26.6552 60.602 25.7382 59.9169 25.0744C59.2317 24.4106 58.2853 24 57.2399 24H39.6055C38.5607 24 37.6151 24.41 36.9302 25.0729C36.2453 25.7357 35.8211 26.6516 35.8198 27.6634V42.227C35.8198 43.1679 35.8704 43.8088 35.9683 44.3006C36.0663 44.7924 36.2119 45.1349 36.4017 45.4788C36.5915 45.8228 36.8258 46.1298 37.1012 46.3966C37.3768 46.6636 37.6936 46.8905 38.0485 47.0744C38.4036 47.2584 38.7572 47.3993 39.2646 47.4943C39.772 47.5893 40.4339 47.6382 41.4048 47.6382H61.0256V41.2304C61.0256 40.2895 60.975 39.6486 60.8772 39.1569C60.7791 38.665 60.6335 38.3225 60.4437 37.9786C60.2538 37.6347 60.0198 37.3276 59.7443 37.0608C59.4688 36.7939 59.1518 36.5669 58.797 36.383ZM22.5012 30.672V43.9418C22.5012 44.4573 22.2835 44.9338 21.9329 45.2792C21.5822 45.6245 21.0986 45.8386 20.5666 45.8289C20.0509 45.8195 19.5854 45.6108 19.2489 45.2789C18.9123 44.9471 18.7047 44.492 18.7047 43.99V30.672C18.7047 30.3615 18.5748 30.0805 18.3648 29.8771C18.1549 29.6736 17.8647 29.5478 17.5444 29.5478H9.86715V28.9225C9.86715 28.4052 9.89674 28.0437 9.95406 27.7613C10.0115 27.4789 10.0967 27.2754 10.2078 27.0741C10.3176 26.8752 10.4562 26.6947 10.6186 26.5373C10.7811 26.3799 10.9673 26.2455 11.1726 26.1393C11.3805 26.0316 11.5904 25.949 11.8819 25.8934C12.1735 25.8378 12.5465 25.8091 13.0805 25.8091H29.3562C29.8922 25.8091 30.3904 26.0215 30.7534 26.3637C31.1164 26.7059 31.3439 27.1779 31.3387 27.6971C31.3335 28.2056 31.1141 28.6683 30.7646 29.0038C30.4151 29.3394 29.9354 29.5478 29.4095 29.5478H23.6615C23.341 29.5478 23.0509 29.6736 22.841 29.8771C22.631 30.0805 22.5012 30.3615 22.5012 30.672ZM29.4201 24H13.5849C12.6139 24 11.9523 24.049 11.4448 24.144C10.9373 24.2389 10.5838 24.3799 10.2287 24.5638C9.87377 24.7479 9.557 24.9747 9.28143 25.2416C9.00598 25.5086 8.77172 25.8155 8.58189 26.1594C8.39206 26.5034 8.24656 26.846 8.14852 27.3377C8.05059 27.8294 8 28.4705 8 29.4112V31.336H16.8221V43.975C16.8221 44.9865 17.2453 45.9024 17.9295 46.5653C18.6137 47.2282 19.5589 47.6382 20.6029 47.6382C21.647 47.6382 22.5923 47.2282 23.2764 46.5653C23.9606 45.9024 24.3838 44.9865 24.3838 43.975V31.336H29.4201C30.4656 31.336 31.4119 30.9254 32.0971 30.2617C32.7821 29.598 33.2059 28.6809 33.2059 27.668C33.2059 26.6552 32.7821 25.7382 32.0971 25.0744C31.4119 24.4106 30.4656 24 29.4201 24Z" fill="white"/>
<defs>
<linearGradient id="paint0_linear" x1="70" y1="83" x2="127.5" y2="140" gradientUnits="userSpaceOnUse">
<stop stop-color="#873AF6"/>
<stop offset="1" stop-color="#873AF6"/>
</linearGradient>
</defs>
</svg>
