<svg width="25" height="25" viewBox="0 0 25 25" fill="none" xmlns="http://www.w3.org/2000/svg">
<path d="M5 13.75L5 11.25L15 11.25L10.625 6.875L12.4 5.1L19.8 12.5L12.4 19.9L10.625 18.125L15 13.75L5 13.75ZM25 12.5C25 14.1415 24.6767 15.767 24.0485 17.2835C23.4203 18.8001 22.4996 20.1781 21.3388 21.3388C18.9946 23.683 15.8152 25 12.5 25C9.18479 25 6.00537 23.683 3.66117 21.3388C1.31696 18.9946 -4.0148e-07 15.8152 -5.46392e-07 12.5C-6.18146e-07 10.8585 0.323321 9.23303 0.951505 7.71646C1.57969 6.19989 2.50043 4.8219 3.66116 3.66117C4.8219 2.50043 6.19989 1.57969 7.71646 0.951503C9.23303 0.32332 10.8585 -4.74639e-07 12.5 -5.46392e-07C15.8152 -6.91305e-07 18.9946 1.31696 21.3388 3.66116C23.683 6.00537 25 9.18479 25 12.5ZM22.5 12.5C22.5 9.84783 21.4464 7.30429 19.5711 5.42893C17.6957 3.55357 15.1522 2.5 12.5 2.5C9.84783 2.5 7.3043 3.55357 5.42893 5.42893C3.55357 7.30429 2.5 9.84783 2.5 12.5C2.5 15.1522 3.55357 17.6957 5.42893 19.5711C7.3043 21.4464 9.84783 22.5 12.5 22.5C15.1522 22.5 17.6957 21.4464 19.5711 19.5711C21.4464 17.6957 22.5 15.1522 22.5 12.5Z" fill="#C7E1FF"/>
</svg>
