<svg width="56" height="57" viewBox="0 0 56 57" fill="none" xmlns="http://www.w3.org/2000/svg">
<g clip-path="url(#clip0)">
<path d="M0 27.3333C0 14.684 0 8.3593 3.92965 4.42965C7.8593 0.5 14.184 0.5 26.8333 0.5H29.1667C41.816 0.5 48.1407 0.5 52.0703 4.42965C56 8.3593 56 14.684 56 27.3333V29.6667C56 42.316 56 48.6407 52.0703 52.5703C48.1407 56.5 41.816 56.5 29.1667 56.5H26.8333C14.184 56.5 7.8593 56.5 3.92965 52.5703C0 48.6407 0 42.316 0 29.6667L0 27.3333Z" fill="#1B8EFF"/>
<path fill-rule="evenodd" clip-rule="evenodd" d="M15.1677 18H11.0835C9.91651 18 9.68311 18.5493 9.68311 19.1548C9.68311 20.2364 11.0678 25.6006 16.1303 32.6952C19.5054 37.5403 24.2605 40.1667 28.5875 40.1667C31.1837 40.1667 31.5049 39.5833 31.5049 38.5786V34.9167C31.5049 33.75 31.7508 33.5171 32.5729 33.5171C33.1787 33.5171 34.2172 33.82 36.6403 36.156C39.4097 38.9246 39.8662 40.1667 41.4238 40.1667H45.508C46.6751 40.1667 47.2585 39.5833 46.9219 38.4322C46.5536 37.2849 45.2314 35.6202 43.477 33.647C42.525 32.5222 41.0971 31.311 40.6644 30.7052C40.0587 29.9266 40.2317 29.5804 40.6644 28.8884C40.6644 28.8884 45.6405 21.8802 46.1597 19.501C46.4193 18.6357 46.1598 18 44.9246 18H40.8403C39.8019 18 39.3231 18.5493 39.0634 19.1548C39.0634 19.1548 36.9865 24.2162 34.0442 27.504C33.0922 28.4557 32.6594 28.7585 32.1402 28.7585C31.8806 28.7585 31.5048 28.4557 31.5048 27.5906V19.501C31.5048 18.4627 31.2034 18 30.3379 18H23.9197C23.2708 18 22.8804 18.4818 22.8804 18.9386C22.8804 19.9228 24.3516 20.1498 24.5033 22.9184V28.9317C24.5033 30.25 24.265 30.489 23.7459 30.489C22.3613 30.489 18.9932 25.4049 16.9957 19.5875C16.6042 18.4568 16.2115 18 15.1677 18Z" fill="white"/>
</g>
<defs>
<clipPath id="clip0">
<rect width="56" height="56" fill="white" transform="translate(0 0.5)"/>
</clipPath>
</defs>
</svg>
