<svg width="70" height="70" viewBox="0 0 70 70" fill="none" xmlns="http://www.w3.org/2000/svg">
<rect x="70" y="70" width="70" height="70" rx="20" transform="rotate(-180 70 70)" fill="url(#paint0_linear)"/>
<path d="M55 25.8707H45.1293V16H25.8707V25.8707H16V45.1293H25.8707V55H45.1293V45.1293H55V25.8707Z" fill="white" stroke="white" stroke-width="1.13" stroke-miterlimit="10"/>
<path d="M55 43.2352C53.916 42.7115 52.734 42.452 51.5416 42.4758C50.9767 42.6832 50.4529 42.9984 49.9964 43.4057C49.9226 43.4824 49.8339 43.5415 49.7365 43.5788C49.639 43.6162 49.535 43.631 49.4317 43.6221C49.3283 43.6133 49.2279 43.5811 49.1374 43.5277C49.047 43.4743 48.9686 43.401 48.9074 43.3128L47.8919 41.9179C47.8508 41.8326 47.7856 41.7629 47.7054 41.718C47.6252 41.6732 47.5338 41.6555 47.4438 41.6674C47.3536 41.6793 47.2692 41.72 47.202 41.7843C47.1347 41.8486 47.0879 41.933 47.0678 42.0264C47.0678 42.0264 46.1701 44.1187 45.2136 43.9947C44.257 43.8707 43.7419 43.9947 43.5506 43.2198C43.3593 42.4449 42.9178 37.9345 42.9178 37.9345C42.8698 37.453 42.6735 37.0011 42.3586 36.6481C42.0496 36.2882 41.8632 35.8301 41.8288 35.3462L41.3432 27.3487C41.3432 26.8838 41.2549 26.8838 41.2254 27.3487L40.6367 35.1912C40.5601 35.7225 40.3041 36.2067 39.9157 36.5552C39.7208 36.7176 39.5609 36.9218 39.4467 37.1543C39.3325 37.3868 39.2666 37.6422 39.2534 37.9036V41.0964C39.2285 41.6391 39.0877 42.1689 38.8413 42.6463C38.7081 42.8595 38.5268 43.0347 38.3137 43.1565C38.1006 43.2781 37.8623 43.3424 37.6199 43.3438L35.795 43.2043C35.5749 43.1853 35.3692 43.0816 35.2171 42.9128C35.0651 42.7441 34.9774 42.5223 34.9709 42.2898V40.864C34.9455 40.3215 34.7307 39.8081 34.3675 39.4225L34.2646 39.3295C33.9227 38.9741 33.6655 38.5386 33.514 38.0586C33.514 37.6711 33.308 37.6711 33.2196 38.0586C33.0873 38.5109 32.8495 38.9213 32.528 39.252C32.1979 39.6224 32.0092 40.1081 31.9982 40.6159V41.4064C32.0047 41.5078 31.9868 41.6094 31.9462 41.7017C31.9056 41.7938 31.8435 41.8738 31.7657 41.934C31.6879 41.9943 31.597 42.033 31.5013 42.0464C31.4056 42.0598 31.3083 42.0475 31.2183 42.0108C30.7401 41.8685 30.2401 41.8264 29.7466 41.8868C29.0255 42.0108 28.5398 43.1267 28.5398 43.1267C28.3486 43.5608 27.9806 43.6537 27.7157 43.3438C27.5546 43.1809 27.3529 43.0696 27.1339 43.023C26.9151 42.9763 26.6881 42.9962 26.4795 43.0803C25.6862 43.4335 24.8634 43.7083 24.0219 43.9018C23.5363 43.9018 22.4473 42.2278 22.4473 42.2278C22.1627 41.7462 21.9446 41.2243 21.7997 40.6779L21.4612 39.128C21.3583 38.6631 21.1816 38.6631 21.0786 39.128L20.7549 40.4764C20.5915 40.9941 20.2838 41.4478 19.8719 41.7783C19.0612 42.3671 18.1671 42.817 17.2229 43.1113C16.1495 43.1765 15.0734 43.1765 14 43.1113" stroke="#54CEEC" stroke-width="1.13" stroke-miterlimit="10"/>
<defs>
<linearGradient id="paint0_linear" x1="70" y1="83" x2="127.5" y2="140" gradientUnits="userSpaceOnUse">
<stop stop-color="#6CA9F2"/>
<stop offset="1" stop-color="#3FEDE6"/>
</linearGradient>
</defs>
</svg>
