<svg width="23" height="42" viewBox="0 0 23 42" fill="none" xmlns="http://www.w3.org/2000/svg">
<path d="M0 0H23V42L11.5 35L0 42V0Z" fill="#599CF6"/>
<path d="M7.804 26.282C7.804 25.5167 8.06067 24.8867 8.574 24.392C9.08733 23.888 9.79667 23.636 10.702 23.636L15 23.636L15 25.442L10.926 25.442C10.4593 25.442 10.1047 25.568 9.862 25.82C9.61 26.072 9.484 26.408 9.484 26.828C9.484 27.2947 9.62867 27.668 9.918 27.948C10.2073 28.228 10.6413 28.368 11.22 28.368L15 28.368L15 30.174L8 30.174L8 28.368L8.784 28.368C8.13067 27.9293 7.804 27.234 7.804 26.282ZM12.242 20.5679C13.1193 20.3253 13.558 19.6673 13.558 18.5939C13.558 17.9033 13.3247 17.3806 12.858 17.0259L13.698 15.5699C14.6967 16.2606 15.196 17.2779 15.196 18.6219C15.196 19.7793 14.846 20.7079 14.146 21.4079C13.446 22.1079 12.564 22.4579 11.5 22.4579C10.4453 22.4579 9.568 22.1126 8.868 21.4219C8.15867 20.7313 7.804 19.8446 7.804 18.7619C7.804 17.7353 8.15867 16.8906 8.868 16.2279C9.57733 15.5559 10.4547 15.2199 11.5 15.2199C11.7333 15.2199 11.9807 15.2433 12.242 15.2899L12.242 20.5679ZM10.842 20.5959L10.842 17.0259C10.366 17.1286 10.0113 17.3433 9.778 17.6699C9.54467 17.9873 9.428 18.3513 9.428 18.7619C9.428 19.2473 9.554 19.6486 9.806 19.9659C10.0487 20.2833 10.394 20.4933 10.842 20.5959ZM8 6.35059L8 4.43259L15 6.65859L15 8.38059L10.758 9.66859L15 10.9566L15 12.6786L8 14.9046L8 12.9866L12.298 11.7966L8 10.5226L8 8.81459L12.312 7.54059L8 6.35059Z" fill="white"/>
</svg>
