<svg width="70" height="70" viewBox="0 0 70 70" fill="none" xmlns="http://www.w3.org/2000/svg">
<rect x="70" y="70" width="70" height="70" rx="20" transform="rotate(-180 70 70)" fill="#F78500"/>
<path fill-rule="evenodd" clip-rule="evenodd" d="M6 24.9574L66 21L60.2012 44.6719L10.7742 48L6 24.9574Z" fill="white"/>
<path d="M26 41H23.381V35.8235H18.619V41H16V29H18.619V33.7059H23.381V29H26V41Z" fill="#F78500"/>
<path d="M36.1837 41L35.3265 38.2039H30.7959L29.9388 41H27L31.4082 29H34.5918L39 41H36.1837ZM34.7143 35.9903C33.8571 33.4272 33.3673 32.0291 33.2449 31.6796C33.1224 31.3301 33.1224 31.0971 33 30.8641C32.7551 31.5631 32.2653 33.3107 31.4082 35.9903H34.7143Z" fill="#F78500"/>
<path d="M48.7891 38.8823H52.5391V29H55V41H40V29H42.5781V38.8823H46.3281V29H48.9063V38.8823H48.7891Z" fill="#F78500"/>
</svg>
