<svg width="70" height="70" viewBox="0 0 70 70" fill="none" xmlns="http://www.w3.org/2000/svg">
<rect x="70" y="70" width="70" height="70" rx="20" transform="rotate(-180 70 70)" fill="#E9F3FF"/>
<path d="M46.8548 51.9379H38.1321C37.9075 51.9379 37.6921 51.8487 37.5332 51.6898C37.3744 51.531 37.2852 51.3156 37.2852 51.0909V44.3328C37.2852 44.1082 37.3744 43.8927 37.5332 43.7339C37.6921 43.5751 37.9075 43.4858 38.1321 43.4858H42.2846L45.6431 51.1321C45.7443 51.3701 45.9129 51.5733 46.1283 51.7165C46.3436 51.8597 46.5962 51.9367 46.8548 51.9379Z" fill="#810200"/>
<path d="M32.2115 18.0002H47.5864C47.847 17.9954 48.1033 18.0676 48.323 18.2078C48.5427 18.348 48.7162 18.55 48.8216 18.7884L62.9378 50.9204C62.9869 51.0308 63.0076 51.1518 62.9979 51.2723C62.9883 51.3928 62.9486 51.5089 62.8825 51.6101C62.8164 51.7113 62.726 51.7943 62.6195 51.8516C62.5131 51.9089 62.394 51.9385 62.2731 51.9379H46.8571C46.6004 51.9382 46.3492 51.8638 46.1341 51.7239C45.919 51.5839 45.7492 51.3845 45.6454 51.1498L42.2869 43.5035L31.5469 19.0178C31.4977 18.9073 31.477 18.7864 31.4867 18.6659C31.4963 18.5454 31.536 18.4292 31.6021 18.3281C31.6682 18.2269 31.7586 18.1438 31.8651 18.0866C31.9715 18.0293 32.0906 17.9996 32.2115 18.0002Z" fill="#E50400"/>
<path d="M23.653 51.1438L26.9998 43.4976H31.1758C31.4004 43.4976 31.6159 43.5868 31.7747 43.7456C31.9335 43.9045 32.0228 44.1199 32.0228 44.3445V51.0909C32.0228 51.3155 31.9335 51.531 31.7747 51.6898C31.6159 51.8486 31.4004 51.9379 31.1758 51.9379H22.4414C22.6987 51.9376 22.9503 51.8624 23.1655 51.7214C23.3807 51.5803 23.5501 51.3796 23.653 51.1438Z" fill="#015179"/>
<path d="M8.0549 50.9205L17.9892 28.211C18.093 27.9763 18.2628 27.7768 18.4779 27.6369C18.693 27.497 18.9442 27.4226 19.2008 27.4229H32.9406C33.0615 27.4222 33.1806 27.4519 33.287 27.5092C33.3934 27.5665 33.4838 27.6495 33.5499 27.7507C33.616 27.8519 33.6557 27.968 33.6654 28.0885C33.6751 28.209 33.6544 28.33 33.6052 28.4404L27 43.4859L23.6533 51.1322C23.5495 51.3669 23.3797 51.5664 23.1646 51.7063C22.9495 51.8462 22.6983 51.9206 22.4417 51.9204H8.71954C8.60094 51.9197 8.48431 51.8899 8.37993 51.8336C8.27555 51.7773 8.18662 51.6962 8.12096 51.5974C8.0553 51.4986 8.01494 51.3852 8.00342 51.2672C7.9919 51.1491 8.00958 51.0301 8.0549 50.9205Z" fill="#0084C4"/>
</svg>
