<svg width="23" height="42" viewBox="0 0 23 42" fill="none" xmlns="http://www.w3.org/2000/svg">
<path d="M0 0H23V42L11.5 35L0 42V0Z" fill="#FC479E"/>
<path d="M18.3334 17.6667C18.3334 16.9267 17.7334 16.3334 17.0001 16.3334H12.7867L13.4267 13.2867C13.4401 13.22 13.4467 13.1467 13.4467 13.0734C13.4467 12.8 13.3334 12.5467 13.1534 12.3667L12.4467 11.6667L8.06008 16.0534C7.81341 16.3 7.66675 16.6334 7.66675 17V23.6667C7.66675 24.0203 7.80722 24.3594 8.05727 24.6095C8.30732 24.8595 8.64646 25 9.00008 25H15.0001C15.5534 25 16.0267 24.6667 16.2267 24.1867L18.2401 19.4867C18.3001 19.3334 18.3334 19.1734 18.3334 19V17.6667ZM3.66675 25H6.33341V17H3.66675V25Z" fill="white"/>
</svg>
