<svg width="64" height="37" viewBox="0 0 64 37" fill="none" xmlns="http://www.w3.org/2000/svg">
<rect x="0.265625" y="0.569824" width="63.1392" height="35.65" rx="5" fill="#FFC722"/>
<g clip-path="url(#clip0)">
<path d="M11.5469 20.6211H4.99121V5.98999H10.2087C12.9284 5.98999 14.8694 7.6751 14.8694 10.0697C14.8694 11.134 14.5125 12.0209 13.7772 12.7089C15.4047 13.3082 16.386 14.5499 16.386 16.3237C16.386 18.8473 14.3801 20.6211 11.5469 20.6211ZM7.88924 8.56199V11.9107H9.96274C11.1901 11.9107 11.8794 11.2684 11.8794 10.2256C11.8794 9.18282 11.1874 8.56199 9.96274 8.56199H7.88924ZM11.3252 14.3698H7.89194V18.0491H11.3252C12.6418 18.0491 13.4204 17.3611 13.4204 16.2081C13.4204 15.0793 12.6391 14.3698 11.3252 14.3698Z" fill="white"/>
<path d="M18.8389 5.98999H28.7414V8.69368H21.8477V11.6634H26.9085V14.2139H21.8477V17.9174H29.0063V20.6211H18.8389V5.98999Z" fill="white"/>
<path d="M32.6702 16.0979C33.6299 17.4067 34.6761 18.2264 36.2819 18.2264C37.5984 18.2264 38.377 17.6056 38.377 16.6085C38.377 15.7431 37.9093 15.4341 36.5036 14.7917L34.9194 14.0822C32.6675 13.0851 31.3509 11.822 31.3509 9.87079C31.3536 7.36329 33.4488 5.72388 36.2359 5.72388C38.4879 5.72388 40.1829 6.80965 41.0966 8.49476L39.0448 10.0697C38.2878 8.93821 37.3497 8.38457 36.2359 8.38457C35.187 8.38457 34.4085 8.89521 34.4085 9.8036C34.4085 10.5803 34.8761 10.9351 36.1251 11.4887L37.7985 12.2197C40.2748 13.3055 41.4346 14.5257 41.4346 16.4983C41.4346 19.1805 39.2259 20.8871 36.2846 20.8871C33.7867 20.8871 31.7348 19.624 30.5967 17.6513L32.6702 16.0979Z" fill="black"/>
<path d="M47.406 8.69368H42.7021V5.98999H55.1458V8.69368H50.4176V20.6211H47.406V8.69368Z" fill="black"/>
<path d="M56.5541 16.7642C57.7139 16.7642 58.606 17.6726 58.606 18.8255C58.606 20 57.7355 20.8869 56.5541 20.8869C55.3727 20.8869 54.459 20 54.459 18.8255C54.4563 17.6726 55.37 16.7642 56.5541 16.7642Z" fill="black"/>
<path d="M5.02637 25.5984H7.21341C8.42993 25.5984 9.31394 26.3536 9.31394 27.4663C9.31394 28.5708 8.43263 29.3422 7.21341 29.3422H6.21856V31.3847H5.02637V25.5984ZM7.21611 28.3101C7.77301 28.3101 8.09741 27.9688 8.09741 27.4689C8.09741 26.9771 7.75408 26.6439 7.21611 26.6439H6.21856V28.3101H7.21611Z" fill="black"/>
<path d="M10.2686 25.5984H14.1858V26.668H11.458V27.8425H13.4613V28.8503H11.458V30.3151H14.2912V31.3847H10.2686V25.5984Z" fill="black"/>
<path d="M16.639 26.6707H14.7764V25.6011H19.6992V26.6707H17.8285V31.3901H16.6363V26.6707H16.639Z" fill="black"/>
<path d="M20.4839 25.5984H24.4011V26.668H21.6761V27.8425H23.6793V28.8503H21.6761V30.3151H24.5092V31.3847H20.4839V25.5984Z" fill="black"/>
<path d="M29.112 31.3901L27.6035 29.3475H26.7303V31.3901H25.5381V25.5984H27.7251C28.9416 25.5984 29.8257 26.3536 29.8257 27.4662C29.8257 28.2026 29.4364 28.7993 28.8011 29.1164L30.4501 31.3874H29.112V31.3901ZM26.7303 28.3021H27.7278C28.2847 28.3021 28.6091 27.9688 28.6091 27.4689C28.6091 26.9771 28.2658 26.6439 27.7278 26.6439H26.7303V28.3021Z" fill="black"/>
<path d="M31.5576 29.6003C31.9361 30.119 32.3524 30.4415 32.9877 30.4415C33.5095 30.4415 33.8177 30.1969 33.8177 29.8018C33.8177 29.4605 33.6311 29.3369 33.0769 29.0816L32.4498 28.8021C31.5576 28.407 31.0386 27.9071 31.0386 27.1358C31.0386 26.144 31.8685 25.4963 32.9715 25.4963C33.8636 25.4963 34.5341 25.9263 34.8963 26.5929L34.0853 27.2164C33.7852 26.7702 33.4149 26.5499 32.9742 26.5499C32.5606 26.5499 32.2497 26.7514 32.2497 27.1116C32.2497 27.418 32.4362 27.5577 32.9283 27.7781L33.5906 28.0683C34.5692 28.4984 35.0288 28.9794 35.0288 29.7615C35.0288 30.8231 34.1556 31.4977 32.9904 31.4977C32.001 31.4977 31.19 30.9978 30.7412 30.2157L31.5576 29.6003Z" fill="black"/>
<path d="M38.6646 31.3901H36.0693V25.5984H38.1347C39.2107 25.5984 39.9784 26.2649 39.9784 27.2136C39.9784 27.6356 39.8379 27.9849 39.5459 28.2564C40.1893 28.4929 40.5786 28.9847 40.5786 29.6862C40.5786 30.686 39.7838 31.3901 38.6646 31.3901ZM37.2183 26.617V27.9419H38.0401C38.524 27.9419 38.7998 27.6866 38.7998 27.2754C38.7998 26.8642 38.5267 26.617 38.0401 26.617H37.2183ZM38.5754 28.9148H37.2156V30.3715H38.5754C39.0971 30.3715 39.4053 30.1001 39.4053 29.6432C39.4053 29.197 39.0971 28.9148 38.5754 28.9148Z" fill="black"/>
<path d="M41.4946 25.5984H42.6868V29.0815C42.6868 29.9227 43.2167 30.3984 43.9655 30.3984C44.7333 30.3984 45.2442 29.9254 45.2442 29.0815V25.5984H46.4364V28.9928C46.4364 30.5274 45.3767 31.4922 43.9655 31.4922C42.5354 31.4922 41.4946 30.5274 41.4946 28.9928V25.5984Z" fill="black"/>
<path d="M51.2985 31.3901L49.79 29.3475H48.9168V31.3901H47.7246V25.5984H49.9116C51.1282 25.5984 52.0122 26.3536 52.0122 27.4662C52.0122 28.2026 51.6229 28.7993 50.9876 29.1164L52.6367 31.3874H51.2985V31.3901ZM48.9141 28.3021H49.9116C50.4685 28.3021 50.7929 27.9688 50.7929 27.4689C50.7929 26.9771 50.4496 26.6439 49.9116 26.6439H48.9141V28.3021Z" fill="black"/>
<path d="M56.0163 25.4936C57.0409 25.4936 57.9033 25.9504 58.4683 26.7487L57.6221 27.442C57.2085 26.8723 56.6678 26.5901 55.9974 26.5901C54.8863 26.5901 54.1266 27.3883 54.1266 28.4929C54.1266 29.6163 54.9106 30.4306 56.0677 30.4306C56.7381 30.4306 57.2761 30.1592 57.6032 29.7104V29.24H55.9974V28.2134H58.7954V29.9227C58.5305 30.3876 58.152 30.7746 57.6573 31.0622C57.1734 31.3525 56.6246 31.4922 56.0163 31.4922C54.3051 31.5271 52.875 30.1511 52.902 28.4929C52.8669 26.8266 54.2969 25.4667 56.0163 25.4936Z" fill="black"/>
</g>
<defs>
<clipPath id="clip0">
<rect x="4.99121" y="5.72388" width="53.8028" height="25.7711" rx="5" fill="white"/>
</clipPath>
</defs>
</svg>
