<svg width="135" height="27" viewBox="0 0 135 27" fill="none" xmlns="http://www.w3.org/2000/svg">
<g clip-path="url(#clip0)">
<path fill-rule="evenodd" clip-rule="evenodd" d="M17.256 0.83252V0.87899C13.6652 4.57336 12.1374 8.73243 12.1684 13.7512C12.1374 18.646 13.9987 22.7741 17.2405 26.2749H0V0.83252H17.256Z" fill="#243D78"/>
<path fill-rule="evenodd" clip-rule="evenodd" d="M23.9181 2.67577C25.9578 1.35137 28.3077 0.685303 30.8748 0.685303C31.5883 0.685303 32.3018 0.708538 33.0075 0.708538V26.2438C32.2863 26.2438 31.5883 26.2826 30.8748 26.2826C28.1526 26.2826 25.7329 25.539 23.6001 24.0597C22.9797 23.626 22.398 23.0916 21.8396 22.534C19.3346 20.0323 18.0859 17.0118 18.0859 13.4646C18.0859 9.94834 19.3346 6.95102 21.8396 4.48036C22.4833 3.76782 23.1813 3.16371 23.9181 2.67577Z" fill="#243D78"/>
<path d="M50.6838 0.762939C50.3969 1.07274 50.0789 1.42127 49.7221 1.80077C49.3654 2.18028 48.9853 2.57527 48.5976 2.97027C48.2098 3.37301 47.822 3.76026 47.4342 4.14751C47.0465 4.53476 46.682 4.89103 46.3407 5.22407C46.7363 5.50289 47.155 5.83592 47.5971 6.24641C48.0392 6.64915 48.4735 7.08287 48.8923 7.53982C49.3188 7.99678 49.7144 8.46923 50.0866 8.94167C50.4589 9.42186 50.7691 9.87107 51.0173 10.3048H49.4429C49.1637 9.87107 48.8535 9.43735 48.489 9.00363C48.1322 8.56991 47.7522 8.15168 47.3489 7.74894C46.9457 7.3462 46.5424 6.98218 46.1391 6.6414C45.728 6.30062 45.3325 6.01406 44.9447 5.77396V10.3048H43.603V0.762939H44.9447V4.97623C45.2705 4.67417 45.6195 4.33339 46.0072 3.94614C46.395 3.56663 46.775 3.17938 47.155 2.79988C47.5351 2.41263 47.8918 2.04087 48.2253 1.69234C48.5588 1.33607 48.8458 1.02627 49.0707 0.762939H50.6838Z" fill="#243D78"/>
<path d="M57.3342 7.3926C57.148 7.81858 56.9619 8.21357 56.7603 8.58533C56.5586 8.9571 56.326 9.28239 56.0545 9.55346C55.7831 9.83228 55.4573 10.0414 55.0773 10.204C54.6973 10.3589 54.2242 10.4364 53.6658 10.4364C53.5572 10.4364 53.4409 10.4286 53.3246 10.4132C53.2082 10.3977 53.0919 10.3822 52.9833 10.3589C52.8748 10.3357 52.7739 10.3125 52.6964 10.2815C52.6111 10.2505 52.5568 10.2273 52.518 10.1963L52.7507 9.06553C52.867 9.112 53.0144 9.15847 53.185 9.20494C53.3556 9.25141 53.534 9.27464 53.7124 9.27464C53.9915 9.27464 54.232 9.24366 54.4336 9.17395C54.643 9.10425 54.8291 9.01131 54.992 8.88739C55.1549 8.76347 55.3022 8.60857 55.4341 8.43043C55.5659 8.2523 55.69 8.05093 55.8063 7.83407C55.403 7.18349 55.023 6.53291 54.6585 5.88232C54.3018 5.23174 53.9683 4.61214 53.6658 4.00029C53.3634 3.39618 53.0842 2.8153 52.836 2.27315C52.5878 1.72325 52.3706 1.22757 52.1768 0.762872H53.6968C53.9993 1.56061 54.3871 2.45128 54.8602 3.4349C55.3333 4.41852 55.8606 5.4486 56.4423 6.51742C56.8068 5.68095 57.1636 4.7593 57.497 3.75245C57.8305 2.7456 58.1485 1.74649 58.4432 0.755127H59.8935C59.6841 1.41345 59.4669 2.0408 59.2575 2.62167C59.0481 3.20255 58.831 3.76794 58.6216 4.30234C58.4122 4.83675 58.195 5.36341 57.9856 5.87458C57.7762 6.3935 57.5591 6.89692 57.3342 7.3926Z" fill="#243D78"/>
<path d="M64.3958 1.90902C64.3726 2.42019 64.3571 2.92362 64.3415 3.40381C64.326 3.884 64.295 4.35645 64.2562 4.80566C64.2175 5.26261 64.1632 5.70408 64.0934 6.1378C64.0236 6.57152 63.915 6.98975 63.7909 7.40798C63.6591 7.81847 63.504 8.20572 63.3178 8.56973C63.1317 8.93375 62.8913 9.25129 62.6121 9.52237C62.3329 9.79344 61.9994 10.0103 61.6194 10.1729C61.2394 10.3356 60.7895 10.4285 60.2777 10.4518L60.1226 9.29776C60.7663 9.22806 61.2626 9.01894 61.6194 8.69365C61.9761 8.36062 62.2631 7.85719 62.4957 7.17563C62.7517 6.40113 62.9145 5.47173 62.9843 4.38743C63.0541 3.30313 63.0852 2.0949 63.0852 0.770508H68.5063V10.3201H67.1645V1.90902H64.3958Z" fill="#243D78"/>
<path d="M78.4787 7.32296C78.4787 8.35305 78.1065 9.11981 77.362 9.63872C76.6174 10.1499 75.5704 10.4132 74.2132 10.4132C73.8255 10.4132 73.4067 10.3977 72.9413 10.3668C72.4838 10.3358 72.0572 10.2738 71.6694 10.1809V0.762939H73.0111V4.2327C73.1973 4.21721 73.3834 4.20172 73.5695 4.20172C73.7557 4.19398 73.9418 4.19398 74.1279 4.19398C77.0285 4.19398 78.4787 5.23956 78.4787 7.32296ZM77.0672 7.32296C77.0672 6.93571 76.9897 6.61817 76.8501 6.36258C76.7027 6.107 76.5011 5.90563 76.2374 5.75847C75.9737 5.61132 75.6635 5.51063 75.299 5.44867C74.9345 5.38671 74.5312 5.35573 74.0891 5.35573C73.9108 5.35573 73.7401 5.35573 73.554 5.35573C73.3756 5.35573 73.1895 5.36348 73.0111 5.38671V9.205C73.174 9.22049 73.3601 9.23598 73.5695 9.23598C73.7789 9.24373 74.0271 9.24373 74.3218 9.24373C74.6786 9.24373 75.0276 9.21275 75.3533 9.15853C75.6868 9.10432 75.9737 9.00363 76.2297 8.85648C76.4856 8.70932 76.6872 8.5157 76.8346 8.26786C76.9897 8.02002 77.0672 7.71021 77.0672 7.32296Z" fill="#243D78"/>
<path d="M87.3649 0.762939V1.91695H84.3557V10.3048H83.014V1.92469H80.0049V0.762939H87.3649Z" fill="#243D78"/>
<path d="M94.092 7.3926C93.9059 7.81858 93.7198 8.21357 93.5181 8.58533C93.3165 8.9571 93.0838 9.28239 92.8124 9.55346C92.5409 9.83228 92.2152 10.0414 91.8352 10.204C91.4552 10.3589 90.9821 10.4364 90.4237 10.4364C90.3151 10.4364 90.1988 10.4286 90.0824 10.4132C89.9661 10.3977 89.8498 10.3822 89.7412 10.3589C89.6326 10.3357 89.5318 10.3125 89.4542 10.2815C89.3689 10.2505 89.3146 10.2273 89.2759 10.1963L89.5085 9.06553C89.6249 9.112 89.7722 9.15847 89.9428 9.20494C90.1135 9.25141 90.2918 9.27464 90.478 9.27464C90.7572 9.27464 90.9976 9.24366 91.1992 9.17395C91.4086 9.10425 91.5948 9.01131 91.7576 8.88739C91.9205 8.76347 92.0678 8.60857 92.1997 8.43043C92.3315 8.2523 92.4556 8.05093 92.572 7.83407C92.1687 7.18349 91.7886 6.53291 91.4241 5.88232C91.0674 5.23174 90.7339 4.61214 90.4314 4.00029C90.129 3.39618 89.8498 2.8153 89.6016 2.27315C89.3534 1.72325 89.1363 1.22757 88.9424 0.762872H90.4625C90.7649 1.56061 91.1527 2.45128 91.6258 3.4349C92.0989 4.41852 92.6262 5.4486 93.2079 6.51742C93.5724 5.68095 93.9292 4.7593 94.2627 3.75245C94.5961 2.7456 94.9141 1.74649 95.2088 0.755127H96.6591C96.4497 1.41345 96.2325 2.0408 96.0231 2.62167C95.8137 3.20255 95.5966 3.76794 95.3872 4.30234C95.1778 4.83675 94.9606 5.36341 94.7512 5.87458C94.5263 6.3935 94.3092 6.89692 94.092 7.3926Z" fill="#243D78"/>
<path d="M101.276 0.669922C102.617 0.669922 103.649 0.925507 104.37 1.43668C105.091 1.94785 105.456 2.70686 105.456 3.71371C105.456 4.26361 105.355 4.73605 105.161 5.1233C104.967 5.51055 104.68 5.8281 104.308 6.07594C103.936 6.31604 103.486 6.49417 102.951 6.6026C102.416 6.71103 101.819 6.76525 101.144 6.76525H100.081V10.3047H98.7397V0.902272C99.1198 0.809332 99.5386 0.747372 100.004 0.716392C100.469 0.685412 100.888 0.669922 101.276 0.669922ZM101.392 1.83942C100.818 1.83942 100.384 1.85491 100.081 1.87814V5.62673H101.09C101.547 5.62673 101.966 5.59575 102.331 5.53379C102.695 5.47183 103.005 5.37114 103.261 5.23173C103.517 5.09232 103.711 4.89095 103.851 4.64311C103.99 4.39527 104.06 4.07773 104.06 3.69048C104.06 3.32646 103.99 3.01666 103.843 2.78431C103.703 2.54421 103.509 2.35833 103.261 2.21118C103.021 2.07177 102.734 1.97108 102.416 1.91687C102.09 1.8704 101.749 1.83942 101.392 1.83942Z" fill="#243D78"/>
<path d="M113.937 0.762939H115.279V10.3125H113.937V5.90563H109.261V10.3125H107.919V0.762939H109.261V4.74388H113.937V0.762939Z" fill="#243D78"/>
<path d="M124.838 10.3122C124.683 9.9017 124.535 9.49121 124.396 9.09622C124.256 8.69348 124.116 8.29074 123.969 7.88025H119.642L118.773 10.3199H117.377C117.741 9.31308 118.09 8.37593 118.408 7.51624C118.726 6.65654 119.044 5.84331 119.355 5.06881C119.665 4.29431 119.967 3.55853 120.27 2.86148C120.572 2.15669 120.89 1.45964 121.224 0.778076H122.449C122.783 1.46738 123.101 2.16443 123.403 2.86148C123.705 3.56628 124.008 4.30206 124.318 5.06881C124.628 5.84331 124.939 6.65654 125.264 7.51624C125.59 8.37593 125.931 9.31308 126.296 10.3199H124.838V10.3122ZM123.581 6.77271C123.287 5.97498 122.992 5.20048 122.705 4.44921C122.418 3.69795 122.116 2.9854 121.805 2.2961C121.48 2.9854 121.177 3.70569 120.89 4.44921C120.603 5.20048 120.316 5.97498 120.029 6.77271H123.581Z" fill="#243D78"/>
<path d="M132.436 0.669922C132.63 0.669922 132.839 0.677667 133.056 0.685412C133.274 0.693157 133.499 0.708647 133.723 0.724137C133.948 0.739627 134.173 0.762862 134.39 0.793842C134.608 0.824822 134.817 0.855802 134.995 0.902272V10.3125H133.654V6.57936H132.506C132.374 6.57936 132.242 6.57936 132.103 6.57162C131.963 6.56387 131.769 6.54838 131.529 6.52515C131.366 6.74201 131.187 7.00534 130.993 7.29965C130.8 7.59396 130.606 7.90376 130.412 8.2368C130.218 8.56983 130.024 8.91061 129.838 9.26688C129.652 9.62315 129.473 9.97168 129.318 10.3125H127.915C128.062 9.95619 128.24 9.58443 128.442 9.19718C128.644 8.80993 128.853 8.44591 129.07 8.09739C129.287 7.74886 129.497 7.42357 129.691 7.12926C129.884 6.83495 130.063 6.58711 130.21 6.39348C130.001 6.33152 129.776 6.23858 129.551 6.11466C129.318 5.99849 129.109 5.8281 128.915 5.61898C128.721 5.40987 128.566 5.14654 128.442 4.82899C128.318 4.51145 128.256 4.13194 128.256 3.69048C128.256 3.1948 128.349 2.76107 128.543 2.38157C128.737 2.00206 129.016 1.69226 129.38 1.43668C129.745 1.18109 130.179 0.995212 130.699 0.863547C131.211 0.731882 131.792 0.669922 132.436 0.669922ZM132.327 1.83942C131.978 1.83942 131.645 1.8704 131.327 1.92461C131.009 1.97883 130.73 2.07951 130.482 2.21118C130.233 2.35059 130.032 2.53647 129.892 2.77656C129.745 3.01666 129.675 3.31097 129.675 3.67499C129.675 4.35655 129.892 4.82899 130.327 5.08458C130.761 5.34791 131.42 5.47957 132.289 5.47957H133.669V1.87814C133.568 1.87814 133.452 1.8704 133.312 1.86265C133.196 1.85491 133.056 1.84716 132.894 1.83942C132.723 1.83942 132.537 1.83942 132.327 1.83942Z" fill="#243D78"/>
<path d="M47.7765 26.05C47.1018 26.05 46.4968 25.9416 45.9385 25.717C45.3878 25.5001 44.9147 25.1749 44.5192 24.7566C44.1237 24.3306 43.8212 23.8117 43.6041 23.1921C43.3869 22.5725 43.2783 21.86 43.2783 21.0623C43.2783 20.2645 43.4024 19.552 43.6428 18.9324C43.8832 18.3128 44.2167 17.7939 44.6278 17.3679C45.0388 16.9419 45.5274 16.6244 46.0781 16.4075C46.6287 16.1906 47.2181 16.0745 47.8463 16.0745C48.2418 16.0745 48.5986 16.1054 48.9166 16.1597C49.2345 16.2139 49.506 16.2758 49.7464 16.3533C49.9791 16.423 50.1729 16.5004 50.3203 16.5701C50.4677 16.6398 50.5685 16.7018 50.6228 16.7328L50.235 17.8326C50.1497 17.7784 50.0334 17.7164 49.8782 17.6544C49.7231 17.5925 49.5448 17.5228 49.3509 17.4608C49.157 17.3989 48.9398 17.3446 48.6994 17.3059C48.4667 17.2672 48.2263 17.244 47.9859 17.244C47.4818 17.244 47.0242 17.3292 46.6209 17.5073C46.2177 17.6854 45.8687 17.9333 45.5895 18.2663C45.3025 18.5993 45.0853 19.0021 44.938 19.4745C44.7829 19.947 44.7131 20.4814 44.7131 21.0623C44.7131 21.6354 44.7829 22.1543 44.9147 22.619C45.0466 23.0837 45.2482 23.4864 45.5119 23.8272C45.7756 24.1603 46.1091 24.4236 46.5124 24.6017C46.9156 24.7876 47.381 24.8805 47.9161 24.8805C48.5288 24.8805 49.0406 24.8186 49.4439 24.6869C49.8472 24.5553 50.1497 24.4468 50.3513 24.3461L50.6926 25.4459C50.6305 25.4924 50.5142 25.5466 50.3513 25.6163C50.1885 25.686 49.9791 25.7557 49.7309 25.8177C49.4827 25.8796 49.1958 25.9339 48.8623 25.9803C48.521 26.0268 48.1565 26.05 47.7765 26.05Z" fill="#243D78"/>
<path d="M59.6349 16.2993V17.4533H56.6257V25.8412H55.284V17.4533H52.2749V16.2993H59.6349Z" fill="#243D78"/>
<path d="M61.0869 21.0623C61.0869 20.2413 61.211 19.521 61.4514 18.9014C61.6918 18.274 62.0253 17.7551 62.4441 17.3369C62.8629 16.9187 63.3515 16.6011 63.9099 16.392C64.4683 16.1829 65.0577 16.0745 65.6859 16.0745C66.2986 16.0745 66.8803 16.1829 67.4309 16.392C67.9815 16.6011 68.4546 16.9187 68.8734 17.3369C69.2845 17.7551 69.618 18.274 69.8584 18.9014C70.0988 19.5287 70.2229 20.249 70.2229 21.0623C70.2229 21.8832 70.0988 22.6035 69.8584 23.2231C69.618 23.8505 69.2845 24.3694 68.8734 24.7876C68.4624 25.2058 67.9815 25.5234 67.4309 25.7325C66.8803 25.9416 66.2986 26.05 65.6859 26.05C65.0577 26.05 64.4683 25.9416 63.9099 25.7325C63.3515 25.5234 62.8629 25.2058 62.4441 24.7876C62.0253 24.3694 61.6918 23.8505 61.4514 23.2231C61.2032 22.6035 61.0869 21.8832 61.0869 21.0623ZM62.4907 21.0623C62.4907 21.6431 62.5605 22.1698 62.7078 22.6422C62.8552 23.1147 63.0646 23.5174 63.336 23.8505C63.6075 24.1835 63.9409 24.4391 64.3287 24.6172C64.7165 24.7953 65.1585 24.8883 65.6471 24.8883C66.1357 24.8883 66.57 24.7953 66.9578 24.6172C67.3456 24.4391 67.6713 24.1835 67.9428 23.8505C68.2142 23.5174 68.4236 23.1147 68.571 22.6422C68.7183 22.1698 68.7881 21.6431 68.7881 21.0623C68.7881 20.4814 68.7106 19.9547 68.571 19.4823C68.4236 19.0098 68.2142 18.6071 67.9428 18.274C67.6713 17.941 67.3456 17.6854 66.9578 17.5073C66.57 17.3292 66.1357 17.2362 65.6471 17.2362C65.1585 17.2362 64.7242 17.3292 64.3287 17.5073C63.9409 17.6854 63.6075 17.941 63.336 18.274C63.0646 18.6071 62.8552 19.0098 62.7078 19.4823C62.5682 19.9625 62.4907 20.4891 62.4907 21.0623Z" fill="#243D78"/>
<path d="M75.95 17.4456C75.9345 17.9568 75.9113 18.4602 75.8957 18.9404C75.8802 19.4206 75.8492 19.8931 75.8104 20.3423C75.7717 20.7992 75.7174 21.2407 75.6476 21.6744C75.5778 22.1081 75.4692 22.5264 75.3451 22.9446C75.2133 23.3551 75.0582 23.7423 74.872 24.1064C74.6859 24.4704 74.4455 24.7879 74.1663 25.059C73.8871 25.3301 73.5536 25.5469 73.1736 25.7096C72.7935 25.8722 72.3437 25.9652 71.8319 25.9884L71.6768 24.8344C72.3205 24.7647 72.8168 24.5556 73.1736 24.2303C73.5303 23.8972 73.8173 23.3938 74.0499 22.7123C74.3059 21.9377 74.4687 21.0083 74.5385 19.924C74.6083 18.8397 74.6394 17.6315 74.6394 16.3071H80.0604V25.8412H78.7187V17.4456H75.95Z" fill="#243D78"/>
<path d="M83.2344 25.8412V16.2993H84.5451V23.3628C84.8398 22.8748 85.1965 22.3172 85.6308 21.6976C86.0574 21.0702 86.515 20.4352 86.9958 19.7923C87.4766 19.1417 87.9652 18.5144 88.4616 17.9025C88.9502 17.2907 89.4155 16.7563 89.8498 16.2993H90.9123V25.8412H89.6017V18.3905C89.3457 18.6848 89.0665 19.0256 88.7641 19.4128C88.4616 19.8001 88.1514 20.2106 87.8256 20.6443C87.4999 21.078 87.1819 21.5349 86.8562 21.9996C86.5305 22.4644 86.2125 22.9291 85.91 23.386C85.6076 23.843 85.3206 24.2767 85.0647 24.7027C84.801 25.1286 84.5683 25.5081 84.3667 25.8489H83.2344V25.8412Z" fill="#243D78"/>
<path d="M101.342 24.7029H102.544V26.6779H101.272V25.8414H94.0747V16.2996H95.4164V24.7029H100.008V16.2996H101.349V24.7029H101.342Z" fill="#243D78"/>
<path d="M111.513 25.8412C111.357 25.4308 111.21 25.0203 111.07 24.6253C110.931 24.2225 110.791 23.8198 110.644 23.4093H106.316L105.448 25.849H104.052C104.416 24.8421 104.765 23.905 105.083 23.0453C105.401 22.1856 105.719 21.3724 106.029 20.5979C106.34 19.8234 106.642 19.0876 106.945 18.3905C107.247 17.6857 107.565 16.9887 107.898 16.3071H109.124C109.457 16.9964 109.775 17.6935 110.078 18.3905C110.38 19.0953 110.683 19.8311 110.993 20.5979C111.303 21.3724 111.613 22.1856 111.939 23.0453C112.265 23.905 112.606 24.8421 112.971 25.849H111.513V25.8412ZM110.256 22.3018C109.961 21.504 109.667 20.7295 109.38 19.9783C109.093 19.227 108.79 18.5145 108.48 17.8252C108.154 18.5145 107.852 19.2347 107.565 19.9783C107.278 20.7295 106.991 21.504 106.704 22.3018H110.256Z" fill="#243D78"/>
</g>
<defs>
<clipPath id="clip0">
<rect width="135" height="26" fill="white" transform="translate(0 0.669922)"/>
</clipPath>
</defs>
</svg>
