<svg width="335" height="335" viewBox="0 0 335 335" fill="none" xmlns="http://www.w3.org/2000/svg">
<rect width="335" height="335" rx="30" fill="#2D7AF0"/>
<path d="M296.064 264.567C295.532 264.305 294.985 264.075 294.426 263.879C293.392 263.62 292.561 264.084 292.751 265.102C292.941 266.12 292.058 267.255 293.417 268.13C293.79 268.37 293.614 269.887 293.289 270.651C292.965 271.416 292.079 271.362 291.306 270.931C290.85 270.769 290.374 270.667 289.892 270.629C290.078 271.272 290.2 271.689 290.42 272.36C288.856 271.792 287.555 271.776 286.331 272.923C285.955 273.273 284.87 273.156 284.253 272.906C280.351 271.291 276.314 269.952 272.968 267.214C271.879 266.316 270.454 265.813 269.185 265.127C267.173 264.037 265.086 263.061 263.176 261.812C261.681 260.865 260.06 260.134 258.361 259.639C251.675 257.563 244.583 257.147 237.7 258.427C234.473 259.006 231.328 260.196 228.223 261.323C224.53 262.616 221.059 264.473 217.933 266.826C214.984 269.085 211.799 271.001 207.973 271.714C206.016 272.076 204.258 273.461 202.303 273.884C199.679 274.443 196.961 274.603 194.274 274.817C190.658 275.111 187.21 274.318 183.879 272.969C183.799 272.939 183.696 272.947 183.634 272.902C179.407 269.998 174.155 269.408 169.843 266.479C166.446 264.159 162.386 262.83 158.76 260.813C154.633 258.508 150.217 257.304 145.663 256.166C141.108 255.028 136.687 253.67 131.973 253.468C129.808 253.365 127.798 253.551 125.823 254.616C120.737 257.319 115.576 259.884 110.446 262.508C110.297 262.582 110.16 262.678 110.039 262.793C105.717 266.999 100.095 268.284 94.5071 269.577C92.1152 270.137 89.6785 270.484 87.2256 270.615C81.2097 270.912 75.7518 268.673 70.3109 266.522C68.2667 265.722 66.408 264.467 64.3762 263.62C62.5816 262.868 60.6967 262.344 59.5912 260.548C55.6241 259.75 54.3054 255.711 51.3208 253.695C50.8415 253.365 50.0868 252.919 50.7959 252.048C50.574 251.578 50.2124 251.189 49.7607 250.932C48.702 250.605 47.6241 250.342 46.5333 250.146C49.2652 247.024 49.2609 246.898 45.9514 243.335L48.2556 242.32C47.9939 241.112 47.7032 239.878 47.4496 238.633C50.4676 237.153 51.2628 237.284 53.738 239.454C55.1421 240.682 56.6273 241.824 58.0986 242.971C58.4738 243.319 58.9293 243.568 59.4244 243.697C63.1041 244.168 65.3144 247.063 68.099 248.978C69.085 249.715 70.2577 250.161 71.4841 250.265C74.6865 250.562 77.8549 251.152 80.9492 252.029C84.5981 253.095 87.9793 253.189 91.5977 251.754C96.2396 249.881 100.131 246.859 104.328 244.295C107.884 242.137 111.464 240.011 115.09 237.976C118.715 235.942 122.768 235.437 126.767 234.849C130.375 234.326 134.05 234.26 137.647 233.691C140.015 233.314 142.204 233.702 144.402 234.337C149.047 235.673 153.819 236.734 158.274 238.536C163.281 240.571 168.619 241.785 173.249 244.825C175.848 246.531 179.03 247.348 181.647 249.03C184.557 250.904 187.798 251.807 190.91 253.07C194.232 254.424 197.731 254.397 200.656 252.265C205.262 248.929 210.536 247.076 215.546 244.615C219.921 242.466 224.615 241.279 229.023 239.297C230.599 238.592 232.458 238.495 234.202 238.182C235.034 238.031 235.921 238.122 236.729 237.931C240.971 236.825 245.325 236.908 249.642 236.721C251.306 236.663 253.012 237.039 254.662 237.389C258.644 238.225 262.668 238.909 266.543 240.136C269.876 241.131 273.059 242.576 276.002 244.432C278.74 246.236 281.45 248.145 284.091 250.108C286.223 251.695 287.81 254.002 289.724 255.906C291.308 257.489 292.078 259.726 294.238 260.896C295.081 261.307 295.282 262.928 296.064 264.567Z" fill="#FF0000"/>
<path d="M58.0451 142.284C53.8135 143.026 52.1713 142.384 50.3564 138.605C49.2578 136.374 48.4717 134.002 48.0203 131.557C46.1819 120.684 44.4968 109.79 42.8682 98.8859C42.592 97.0801 42.4276 95.2488 43.2982 93.4161C43.6933 92.5853 43.3083 91.3856 43.2961 90.9518C44.4583 88.9575 45.4712 87.4718 46.2796 85.8477C47.0879 84.2235 47.6016 82.6104 48.3445 81.0442C48.6554 80.274 49.1867 79.6126 49.8719 79.1428C53.459 77.246 56.6754 74.3971 61.1763 74.4268C61.5549 75.3253 61.9078 76.176 62.1918 76.8993C68.4287 78.3042 74.3619 76.6526 80.2357 75.5578C87.6705 74.1775 95.0656 73.8969 102.507 75.3404C104.554 75.7221 106.645 75.8054 108.716 75.5878C113.984 75.0527 119.045 76.321 124.169 77.0494C126.429 77.3677 128.676 77.9441 130.937 78.0007C133.43 78.0949 135.886 78.6281 138.193 79.5757C138.854 79.8317 139.25 80.762 140.084 81.7723C142.474 82.4632 145.776 81.6279 148.8 83.4805C148.366 83.9229 148.097 84.4119 147.703 84.5565C146.868 84.8659 146.455 85.4324 146.744 86.1839C146.858 86.4547 147.029 86.698 147.244 86.8978C147.46 87.0975 147.716 87.249 147.995 87.3421C149.204 87.6065 150.459 87.6013 151.691 87.7572C153.279 87.9609 155.102 87.6119 155.809 89.7839C155.937 90.18 156.828 90.3841 157.406 90.5617C158.482 90.8959 159.59 91.1433 160.79 91.4558C160.756 92.3861 160.728 93.1582 160.684 94.1657L163.163 93.475C163.153 94.2149 163.145 94.7685 163.128 95.5329C164.36 96.52 178.933 97.481 161.399 99.8189C164.24 100.204 171.982 99.9839 174.645 100.377C176.806 100.695 178.108 101.815 178.262 104.154C178.346 105.459 179.295 106.094 180.589 106.21C181.623 106.302 182.652 106.464 183.688 106.538C186.564 106.754 188.267 108.502 189.769 110.999L187.391 112.225C189.238 113.604 191.293 112.923 193.153 113.277C195.332 116.382 194.489 119.797 193.626 122.93C192.897 125.349 191.649 127.58 189.969 129.467C188.235 131.451 185.428 131.862 182.853 132C178.606 132.228 174.33 131.955 170.091 132.188C164.187 132.515 158.294 133.136 152.388 133.551C150.525 133.698 148.657 133.746 146.789 133.696C138.804 133.464 130.82 133.174 122.839 132.9C115.675 134.896 108.078 133.23 100.946 135.504C96.988 136.78 93.0525 138.116 89.0547 139.231C86.7595 139.872 84.3492 140.056 82.0123 140.559C79.2711 141.145 76.5603 141.871 73.8231 142.479C72.2166 142.837 70.5732 143.049 68.9714 143.4C67.9921 143.68 67.0325 144.025 66.0994 144.433C64.7065 145.007 63.1639 145.107 61.7087 144.718C60.2535 144.33 58.9664 143.474 58.0451 142.284Z" fill="#FF0000"/>
<path d="M78.0179 94.3882H84.3195V122.443H78.0179V110.541H67.4344V122.443H61.1328V94.3882H67.4344V105.116H78.0179V94.3882Z" fill="white"/>
<path d="M109.541 122.443C109.245 121.472 108.908 120.473 108.531 119.448C108.181 118.422 107.831 117.396 107.481 116.371H96.5743C96.2242 117.396 95.8606 118.422 95.4836 119.448C95.1335 120.473 94.8104 121.472 94.5141 122.443H87.9702C89.0204 119.421 90.0168 116.627 90.9594 114.063C91.9019 111.499 92.8175 109.084 93.7062 106.817C94.6218 104.55 95.5105 102.404 96.3723 100.38C97.261 98.3286 98.1766 96.3314 99.1192 94.3882H105.138C106.054 96.3314 106.956 98.3286 107.844 100.38C108.733 102.404 109.622 104.55 110.511 106.817C111.426 109.084 112.355 111.499 113.298 114.063C114.24 116.627 115.237 119.421 116.287 122.443H109.541ZM101.987 100.744C101.853 101.149 101.651 101.702 101.381 102.404C101.112 103.106 100.802 103.915 100.452 104.833C100.102 105.751 99.7116 106.763 99.2807 107.869C98.8768 108.976 98.4594 110.136 98.0285 111.351H105.986C105.555 110.136 105.138 108.976 104.734 107.869C104.33 106.763 103.94 105.751 103.563 104.833C103.212 103.915 102.903 103.106 102.634 102.404C102.364 101.702 102.149 101.149 101.987 100.744Z" fill="white"/>
<path d="M154.65 122.443H119.911V94.3882H126.212V117.1H134.13V94.3882H140.431V117.1H148.349V94.3882H154.65V122.443Z" fill="white"/>
<path d="M74.7853 183.819C70.3397 183.819 66.9463 182.577 64.6051 180.094C62.2903 177.611 61.1328 174.085 61.1328 169.515C61.1328 167.244 61.4879 165.223 62.1982 163.453C62.9084 161.657 63.8817 160.151 65.1181 158.936C66.3544 157.695 67.8275 156.757 69.5374 156.123C71.2472 155.489 73.1018 155.172 75.101 155.172C76.2584 155.172 77.3106 155.265 78.2576 155.45C79.2046 155.608 80.0333 155.806 80.7435 156.044C81.4537 156.255 82.0456 156.48 82.5191 156.718C82.9926 156.955 83.3346 157.14 83.545 157.272L81.7694 162.265C80.9276 161.816 79.9412 161.433 78.81 161.116C77.7052 160.799 76.4426 160.64 75.0221 160.64C74.0751 160.64 73.1412 160.799 72.2205 161.116C71.3262 161.433 70.5238 161.948 69.8136 162.661C69.1297 163.348 68.5772 164.246 68.1564 165.355C67.7355 166.464 67.525 167.812 67.525 169.396C67.525 170.664 67.6566 171.853 67.9196 172.962C68.209 174.045 68.6562 174.983 69.2612 175.775C69.8925 176.568 70.708 177.202 71.7076 177.677C72.7072 178.126 73.9172 178.351 75.3377 178.351C76.2321 178.351 77.0344 178.298 77.7447 178.192C78.4549 178.087 79.0863 177.968 79.6387 177.836C80.1911 177.677 80.6777 177.506 81.0986 177.321C81.5195 177.136 81.9009 176.964 82.2429 176.806L83.9396 181.758C83.0715 182.287 81.8483 182.762 80.27 183.185C78.6917 183.607 76.8634 183.819 74.7853 183.819Z" fill="white"/>
<path d="M107.329 183.264C107.039 182.313 106.711 181.336 106.342 180.332C106 179.328 105.658 178.324 105.316 177.321H94.6627C94.3207 178.324 93.9656 179.328 93.5973 180.332C93.2553 181.336 92.9396 182.313 92.6503 183.264H86.2581C87.284 180.306 88.2573 177.572 89.178 175.062C90.0987 172.553 90.993 170.189 91.8611 167.97C92.7555 165.751 93.6236 163.651 94.4654 161.67C95.3334 159.663 96.2278 157.708 97.1485 155.806H103.028C103.922 157.708 104.803 159.663 105.671 161.67C106.54 163.651 107.408 165.751 108.276 167.97C109.17 170.189 110.078 172.553 110.998 175.062C111.919 177.572 112.892 180.306 113.918 183.264H107.329ZM99.95 162.027C99.8185 162.423 99.6212 162.965 99.3582 163.651C99.0951 164.338 98.7926 165.131 98.4506 166.029C98.1087 166.927 97.7272 167.917 97.3063 169C96.9118 170.083 96.504 171.219 96.0831 172.408H103.856C103.436 171.219 103.028 170.083 102.633 169C102.239 167.917 101.857 166.927 101.489 166.029C101.147 165.131 100.844 164.338 100.581 163.651C100.318 162.965 100.108 162.423 99.95 162.027Z" fill="white"/>
<path d="M133.951 155.806H140.107V183.264H133.951V171.615H123.613V183.264H117.458V155.806H123.613V166.306H133.951V155.806Z" fill="white"/>
<path d="M162.573 183.264C162.021 182.366 161.363 181.402 160.6 180.372C159.864 179.315 159.048 178.272 158.154 177.241C157.286 176.185 156.378 175.181 155.431 174.23C154.484 173.253 153.537 172.394 152.59 171.655V183.264H146.435V155.806H152.59V166.187C154.195 164.497 155.799 162.74 157.404 160.917C159.035 159.068 160.548 157.365 161.942 155.806H169.242C167.374 158.025 165.493 160.165 163.599 162.225C161.731 164.285 159.758 166.359 157.68 168.446C159.864 170.268 161.968 172.434 163.994 174.943C166.045 177.453 168.005 180.226 169.873 183.264H162.573Z" fill="white"/>
<path d="M194.614 155.806V161.076H186.368V183.264H180.212V161.076H171.965V155.806H194.614Z" fill="white"/>
<path d="M84.8077 195.428V222.885H78.6522V200.658H68.472V222.885H62.3166V195.428H84.8077Z" fill="white"/>
<path d="M91.1395 222.885V195.428H109.606V200.618H97.2949V206.007H108.225V211.078H97.2949V217.695H110.513V222.885H91.1395Z" fill="white"/>
<path d="M135.35 195.428V200.697H127.103V222.885H120.948V200.697H112.701V195.428H135.35Z" fill="white"/>
<path d="M139.306 222.885V195.428H157.773V200.618H145.462V206.007H156.391V211.078H145.462V217.695H158.68V222.885H139.306Z" fill="white"/>
<path d="M171.443 195.111C175.52 195.111 178.65 195.837 180.834 197.29C183.017 198.716 184.109 201.067 184.109 204.342C184.109 207.644 183.004 210.035 180.794 211.514C178.585 212.967 175.428 213.693 171.324 213.693H169.391V222.885H163.235V195.824C164.577 195.56 165.997 195.375 167.497 195.269C168.996 195.164 170.311 195.111 171.443 195.111ZM171.837 200.38C171.39 200.38 170.943 200.394 170.496 200.42C170.075 200.446 169.706 200.473 169.391 200.499V208.423H171.324C173.455 208.423 175.06 208.133 176.138 207.552C177.217 206.971 177.756 205.888 177.756 204.303C177.756 203.537 177.611 202.903 177.322 202.401C177.059 201.899 176.664 201.503 176.138 201.212C175.638 200.895 175.02 200.684 174.284 200.578C173.547 200.446 172.732 200.38 171.837 200.38Z" fill="white"/>
<path d="M194.508 200.658V205.175H196.52C198.546 205.175 200.348 205.333 201.926 205.65C203.531 205.967 204.872 206.482 205.951 207.195C207.056 207.908 207.897 208.833 208.476 209.969C209.055 211.104 209.344 212.491 209.344 214.129C209.344 217.167 208.239 219.438 206.03 220.944C203.846 222.423 200.716 223.163 196.639 223.163C195.534 223.163 194.271 223.097 192.851 222.964C191.457 222.832 190.049 222.595 188.629 222.251V195.428H206.779V200.658H194.508ZM196.954 217.893C197.77 217.893 198.546 217.84 199.282 217.734C200.019 217.629 200.663 217.444 201.216 217.18C201.795 216.889 202.255 216.506 202.597 216.031C202.939 215.555 203.11 214.935 203.11 214.169C203.11 213.376 202.952 212.729 202.636 212.227C202.321 211.725 201.874 211.329 201.295 211.038C200.716 210.748 200.006 210.55 199.164 210.444C198.322 210.338 197.375 210.286 196.323 210.286H194.508V217.814C194.797 217.84 195.139 217.867 195.534 217.893C195.955 217.893 196.428 217.893 196.954 217.893Z" fill="white"/>
<path d="M228.467 214.842C227.704 216.585 226.901 218.025 226.06 219.161C225.218 220.27 224.35 221.142 223.455 221.776C222.561 222.41 221.654 222.846 220.733 223.083C219.812 223.321 218.878 223.44 217.931 223.44C217.037 223.44 216.103 223.347 215.13 223.163C214.183 223.004 213.288 222.766 212.447 222.449L213.551 217.497C214.84 217.972 216.116 218.21 217.379 218.21C218.194 218.21 218.97 218.025 219.707 217.655C220.47 217.285 221.193 216.493 221.877 215.278C220.799 213.587 219.76 211.857 218.76 210.088C217.787 208.291 216.853 206.535 215.958 204.818C215.09 203.075 214.275 201.41 213.512 199.826C212.775 198.214 212.118 196.748 211.539 195.428H218.365C218.786 196.458 219.247 197.567 219.746 198.756C220.273 199.918 220.825 201.133 221.404 202.401C221.982 203.642 222.561 204.897 223.14 206.165C223.745 207.407 224.324 208.622 224.876 209.81C225.718 207.486 226.52 205.108 227.283 202.678C228.046 200.248 228.782 197.831 229.493 195.428H236.082C235.398 197.462 234.727 199.363 234.07 201.133C233.412 202.903 232.768 204.58 232.136 206.165C231.505 207.75 230.874 209.255 230.242 210.682C229.637 212.108 229.045 213.495 228.467 214.842Z" fill="white"/>
<path d="M247.854 195.111C251.931 195.111 255.062 195.837 257.245 197.29C259.429 198.716 260.52 201.067 260.52 204.342C260.52 207.644 259.415 210.035 257.206 211.514C254.996 212.967 251.839 213.693 247.736 213.693H245.802V222.885H239.647V195.824C240.988 195.56 242.409 195.375 243.908 195.269C245.408 195.164 246.723 195.111 247.854 195.111ZM248.249 200.38C247.802 200.38 247.354 200.394 246.907 200.42C246.486 200.446 246.118 200.473 245.802 200.499V208.423H247.736C249.867 208.423 251.471 208.133 252.55 207.552C253.628 206.971 254.167 205.888 254.167 204.303C254.167 203.537 254.023 202.903 253.733 202.401C253.47 201.899 253.076 201.503 252.55 201.212C252.05 200.895 251.432 200.684 250.695 200.578C249.959 200.446 249.143 200.38 248.249 200.38Z" fill="white"/>
<path d="M271.196 222.885H265.04V195.428H283.704V200.658H271.196V222.885Z" fill="white"/>
<path d="M204.493 174.208C204.884 175.01 209.124 176.213 214.735 176.213C220.346 176.213 222.917 174.81 227.494 171.795C232.07 168.779 234.206 163.533 232.978 162.379C231.751 161.224 230.284 160.795 228.905 160.989C227.527 161.184 227.292 160.919 223.707 164.365C222.454 165.257 221.748 166.393 219.988 167.136C218.227 167.88 209.591 169.199 203.916 166.393C203.401 165.879 202.881 165.366 202.388 164.816C201.521 163.843 201.244 163.782 200.2 164.43C200.292 164.984 200.397 165.533 200.492 166.071L199.695 166.514C200.857 168.108 200.859 168.164 199.92 169.542C200.3 169.633 200.675 169.754 201.044 169.903C201.202 170.018 201.329 170.192 201.408 170.402C201.164 170.786 201.428 170.987 201.596 171.135C202.64 172.041 203.112 173.84 204.493 174.208Z" fill="white"/>
</svg>
