<svg width="34" height="34" viewBox="0 0 34 34" fill="none" xmlns="http://www.w3.org/2000/svg">
<g clip-path="url(#clip0)">
<path fill-rule="evenodd" clip-rule="evenodd" d="M11.7867 0.669922H22.2133C31.7333 0.669922 34 2.86992 34 12.1099V22.2299C34 31.4699 31.7333 33.6699 22.2133 33.6699H11.7867C2.26667 33.6699 0 31.4699 0 22.2299V12.1099C0 2.86992 2.26667 0.669922 11.7867 0.669922Z" fill="#2787F5"/>
<path fill-rule="evenodd" clip-rule="evenodd" d="M27.8445 12.0388C28.0021 11.5289 27.8445 11.1543 27.0948 11.1543H24.6156C23.9853 11.1543 23.6947 11.4779 23.537 11.8348C23.537 11.8348 22.2763 14.8175 20.4903 16.7549C19.9125 17.3157 19.6498 17.4941 19.3346 17.4941C19.177 17.4941 18.9489 17.3157 18.9489 16.8059V12.0388C18.9489 11.427 18.766 11.1543 18.2406 11.1543H14.3448C13.9509 11.1543 13.714 11.4383 13.714 11.7074C13.714 12.2874 14.6069 12.4211 14.699 14.0527V17.5962C14.699 18.373 14.5544 18.5139 14.2392 18.5139C13.3988 18.5139 11.3544 15.5179 10.1419 12.0898C9.90424 11.4235 9.6659 11.1543 9.0323 11.1543H6.55313C5.8448 11.1543 5.70312 11.4779 5.70312 11.8348C5.70312 12.4722 6.54362 15.6332 9.6166 19.814C11.6652 22.6691 14.5516 24.2168 17.1781 24.2168C18.754 24.2168 18.949 23.873 18.949 23.2809V21.123C18.949 20.4355 19.0983 20.2983 19.5973 20.2983C19.965 20.2983 20.5954 20.4768 22.0662 21.8534C23.7472 23.4849 24.0243 24.2168 24.9698 24.2168H27.449C28.1573 24.2168 28.5115 23.873 28.3072 23.1947C28.0836 22.5186 27.281 21.5376 26.2161 20.3748C25.6382 19.712 24.7715 18.9983 24.5088 18.6413C24.1411 18.1825 24.2462 17.9785 24.5088 17.5707C24.5088 17.5707 27.5293 13.4409 27.8445 12.0388Z" fill="white"/>
</g>
<defs>
<clipPath id="clip0">
<rect width="34" height="33" fill="white" transform="translate(0 0.669922)"/>
</clipPath>
</defs>
</svg>
