<svg width="36" height="37" viewBox="0 0 36 37" fill="none" xmlns="http://www.w3.org/2000/svg">
<path d="M17.825 36.2198C27.6695 36.2198 35.65 28.2393 35.65 18.3948C35.65 8.55035 27.6695 0.569824 17.825 0.569824C7.98053 0.569824 0 8.55035 0 18.3948C0 28.2393 7.98053 36.2198 17.825 36.2198Z" fill="#FC3F1D"/>
<path d="M24.2753 29.5841H20.3624V10.231H18.6192C15.424 10.231 13.7503 11.8286 13.7503 14.2134C13.7503 16.9191 14.9047 18.1727 17.2929 19.7703L19.2609 21.0967L13.6048 29.5808H9.39746L14.488 22.0063C11.5607 19.9158 9.91346 17.875 9.91346 14.4317C9.91346 10.1285 12.9135 7.20117 18.5928 7.20117H24.2489V29.5775H24.2753V29.5841Z" fill="white"/>
</svg>
