<svg width="57" height="9" viewBox="0 0 57 9" fill="none" xmlns="http://www.w3.org/2000/svg">
<path d="M1.52861 2.95139H2.40624C2.55732 2.9702 2.71066 2.95751 2.8566 2.91412C3.00253 2.87074 3.1379 2.79759 3.25416 2.69929C3.37042 2.60099 3.46506 2.47968 3.53211 2.34299C3.59916 2.2063 3.63717 2.0572 3.64374 1.9051C3.64374 1.29978 3.18828 0.908762 2.41591 0.908762C2.26113 0.887134 2.10358 0.896738 1.95257 0.937008C1.80155 0.977277 1.66014 1.0474 1.53668 1.14322C1.41322 1.23905 1.3102 1.35864 1.23372 1.49494C1.15725 1.63124 1.10885 1.78148 1.0914 1.93679H0.127799C0.144384 1.65486 0.218828 1.37936 0.346499 1.12745C0.474169 0.875539 0.652331 0.652605 0.869891 0.472531C1.08745 0.292456 1.33976 0.159095 1.61109 0.0807526C1.88242 0.00240985 2.16698 -0.0192372 2.44704 0.0171576C3.73932 0.0171576 4.64924 0.740638 4.64924 1.7821C4.65227 2.13099 4.53554 2.47037 4.31853 2.74358C4.10153 3.0168 3.79737 3.20731 3.45684 3.28332V3.36066C3.86054 3.37857 4.24073 3.55558 4.51429 3.85299C4.78785 4.15041 4.93253 4.54404 4.91671 4.94782C4.88683 5.2381 4.79931 5.5195 4.65927 5.77551C4.51923 6.03153 4.3295 6.25702 4.10119 6.43876C3.87288 6.6205 3.61058 6.75483 3.32968 6.83389C3.04878 6.91294 2.75492 6.93513 2.46533 6.89914C2.17514 6.93871 1.87995 6.91944 1.59736 6.84248C1.31478 6.76552 1.05058 6.63246 0.820519 6.45122C0.590457 6.26998 0.399238 6.04427 0.25827 5.78755C0.117302 5.53083 0.0294672 5.24835 0 4.95696H0.978618C1.0377 5.58484 1.61456 5.98986 2.46533 5.98986C3.31611 5.98986 3.87149 5.53493 3.87149 4.89362C3.87149 4.24318 3.34834 3.8425 2.43418 3.8425H1.52861V2.95139Z" />
<path d="M6.02832 5.33932C6.02832 4.44772 6.69326 3.93371 7.8706 3.86066L9.21231 3.78332V3.35578C9.21231 2.83263 8.86748 2.53723 8.19825 2.53723C7.65255 2.53723 7.27549 2.73757 7.16592 3.08777H6.21953C6.31943 2.23698 7.12081 1.69128 8.24443 1.69128C9.48623 1.69128 10.1866 2.30948 10.1866 3.35578V6.74011H9.24453V6.04402H9.16719C9.0102 6.29371 8.78976 6.49726 8.52838 6.63389C8.26699 6.77053 7.97403 6.83534 7.6794 6.82172C7.47146 6.84335 7.2613 6.82116 7.06246 6.75659C6.86362 6.69202 6.68053 6.58651 6.52497 6.44684C6.36941 6.30717 6.24484 6.13646 6.1593 5.9457C6.07376 5.75495 6.02914 5.54838 6.02832 5.33932ZM9.21231 4.91608V4.50197L8.00269 4.57931C7.32056 4.62496 7.01118 4.857 7.01118 5.29366C7.01118 5.73946 7.3979 5.99888 7.92968 5.99888C8.08549 6.01466 8.24289 5.99894 8.3925 5.95264C8.54211 5.90634 8.68088 5.83042 8.80055 5.7294C8.92022 5.62837 9.01834 5.5043 9.08908 5.36458C9.15981 5.22486 9.20172 5.07233 9.21231 4.91608Z" />
<path d="M12.7812 2.60984V6.74021H11.8037V1.78699H15.0651V2.60979L12.7812 2.60984Z" />
<path d="M20.9894 4.26135C20.9894 5.83508 20.1934 6.82176 18.943 6.82176C18.636 6.84272 18.3295 6.77555 18.0594 6.62816C17.7894 6.48076 17.5671 6.25927 17.4187 5.98977H17.3413V8.38689H16.3638V1.78689H17.3048V2.60548H17.3778C17.5289 2.32657 17.7541 2.09484 18.0286 1.93588C18.3031 1.77693 18.6162 1.69694 18.9333 1.70475C20.1934 1.70471 20.9894 2.68708 20.9894 4.26135ZM19.9839 4.26135C19.9839 3.21507 19.4887 2.58289 18.6605 2.58289C17.8377 2.58289 17.3231 3.22849 17.3231 4.26566C17.3231 5.29798 17.8376 5.94412 18.6562 5.94412C19.4887 5.94411 19.9839 5.31193 19.9839 4.26135Z" />
<path d="M22.2911 8.51429V7.67264C22.3968 7.68608 22.5034 7.69218 22.6101 7.6909C22.8183 7.70632 23.025 7.6443 23.1903 7.51672C23.3556 7.38915 23.468 7.20501 23.5059 6.99963L23.579 6.75847L21.7861 1.78699H22.8507L24.0925 5.72131H24.1699L25.4074 1.78699H26.444L24.5974 6.94485C24.1742 8.15012 23.7058 8.53685 22.6961 8.53685C22.6144 8.53684 22.3824 8.52771 22.2911 8.51429Z" />
<path d="M27.2056 5.33449H28.1788C28.2744 5.77119 28.6837 5.99889 29.2563 5.99889C29.9072 5.99889 30.3068 5.71207 30.3068 5.26629C30.3068 4.7888 29.9481 4.56107 29.2563 4.56107H28.515V3.80159H29.2434C29.8342 3.80159 30.135 3.5744 30.135 3.16029C30.135 2.79667 29.8438 2.51899 29.2434 2.51899C28.6966 2.51899 28.297 2.75103 28.2336 3.14205H27.2915C27.3619 2.69274 27.6059 2.28902 27.9709 2.01772C28.3359 1.74642 28.7928 1.62922 29.2434 1.69131C30.4207 1.69131 31.0942 2.22359 31.0942 3.0604C31.0997 3.29343 31.0251 3.52128 30.8827 3.70587C30.7404 3.89045 30.539 4.02057 30.3122 4.07447V4.15181C30.5822 4.18664 30.83 4.31936 31.0086 4.5248C31.1872 4.73024 31.2842 4.9941 31.2812 5.26631C31.2812 6.20791 30.4798 6.83091 29.2563 6.83091C28.1745 6.83087 27.2958 6.33512 27.2056 5.33449Z" />
<path d="M32.689 6.74021V1.78699H33.6579V5.19389H33.7353L36.018 1.787H36.9869V6.74022H36.018V3.31508H35.9449L33.6579 6.74023L32.689 6.74021Z" />
<path d="M42.3248 2.60979H40.765V6.74016H39.7864V2.60979H38.2266V1.78699H42.3248V2.60979Z" />
<path d="M47.5904 5.4028C47.4572 5.85547 47.1692 6.24696 46.7767 6.50889C46.3842 6.77081 45.9121 6.88652 45.443 6.8358C45.1167 6.84442 44.7924 6.78192 44.4926 6.65263C44.1929 6.52335 43.9248 6.33039 43.7071 6.08713C43.4894 5.84388 43.3273 5.55617 43.2319 5.24396C43.1366 4.93176 43.1103 4.60254 43.1549 4.27916C43.1115 3.95479 43.1382 3.62486 43.2333 3.31172C43.3285 2.99858 43.4898 2.70954 43.7063 2.46416C43.9229 2.21878 44.1896 2.02279 44.4885 1.88946C44.7874 1.75613 45.1114 1.68858 45.4387 1.69137C46.8169 1.69137 47.6494 2.63297 47.6494 4.18837V4.52948H44.1518V4.58426C44.1363 4.76607 44.159 4.9491 44.2185 5.12161C44.278 5.29411 44.3729 5.45227 44.4971 5.58591C44.6213 5.71955 44.7722 5.82572 44.9399 5.8976C45.1076 5.96947 45.2885 6.00546 45.4709 6.00326C45.7046 6.0312 45.9413 5.98903 46.151 5.8821C46.3606 5.77518 46.5337 5.60833 46.6483 5.40277L47.5904 5.4028ZM44.1518 3.80651H46.6525C46.6649 3.64036 46.6424 3.47345 46.5864 3.31652C46.5304 3.15959 46.4422 3.0161 46.3275 2.89527C46.2128 2.77443 46.0741 2.67893 45.9203 2.61488C45.7665 2.55083 45.601 2.51966 45.4344 2.52336C45.2653 2.52106 45.0974 2.55268 44.9407 2.61636C44.784 2.68004 44.6417 2.77448 44.5221 2.8941C44.4026 3.01372 44.3082 3.15609 44.2446 3.31281C44.181 3.46952 44.1494 3.6374 44.1518 3.80651H44.1518Z" />
<path d="M52.1167 1.57275H54.35C55.319 1.57275 55.8872 2.06367 55.8872 2.83225C55.8887 3.07613 55.8064 3.31313 55.6541 3.50359C55.5018 3.69405 55.2886 3.82642 55.0504 3.87854V3.95588C55.3397 3.97416 55.6109 4.10284 55.808 4.31535C56.0051 4.52786 56.1131 4.80795 56.1096 5.09778C56.1096 5.96199 55.4597 6.52596 54.3726 6.52596H52.1167V1.57275ZM53.0857 2.3231V3.6057H54.0546C54.6454 3.6057 54.9279 3.3785 54.9279 2.95956C54.9279 2.57338 54.682 2.32309 54.1631 2.32309L53.0857 2.3231ZM53.0857 4.32437V5.77564H54.2448C54.8227 5.77564 55.1321 5.52052 55.1321 5.05216C55.1321 4.55642 54.7819 4.32438 54.1223 4.32438L53.0857 4.32437Z" />
</svg>
