<svg width="50" height="50" viewBox="0 0 50 50" fill="none" xmlns="http://www.w3.org/2000/svg">
<path d="M33.9214 15.625C32.4597 6.9043 29.0121 0.78125 25 0.78125C20.9879 0.78125 17.5403 6.9043 16.0786 15.625H33.9214ZM15.3226 25C15.3226 27.168 15.4436 29.248 15.6552 31.25H34.3347C34.5464 29.248 34.6673 27.168 34.6673 25C34.6673 22.832 34.5464 20.752 34.3347 18.75H15.6552C15.4436 20.752 15.3226 22.832 15.3226 25ZM48.0544 15.625C45.1714 8.99414 39.3347 3.86719 32.127 1.79688C34.5867 5.09766 36.2802 10.0684 37.1673 15.625H48.0544ZM17.8629 1.79688C10.6653 3.86719 4.81855 8.99414 1.94556 15.625H12.8327C13.7097 10.0684 15.4032 5.09766 17.8629 1.79688ZM49.1331 18.75H37.5706C37.7823 20.8008 37.9032 22.9004 37.9032 25C37.9032 27.0996 37.7823 29.1992 37.5706 31.25H49.123C49.6774 29.248 49.9899 27.168 49.9899 25C49.9899 22.832 49.6774 20.752 49.1331 18.75ZM12.0968 25C12.0968 22.9004 12.2177 20.8008 12.4294 18.75H0.866936C0.322581 20.752 0 22.832 0 25C0 27.168 0.322581 29.248 0.866936 31.25H12.4194C12.2177 29.1992 12.0968 27.0996 12.0968 25ZM16.0786 34.375C17.5403 43.0957 20.9879 49.2188 25 49.2188C29.0121 49.2188 32.4597 43.0957 33.9214 34.375H16.0786ZM32.1371 48.2031C39.3347 46.1328 45.1815 41.0059 48.0645 34.375H37.1774C36.2903 39.9316 34.5968 44.9023 32.1371 48.2031ZM1.94556 34.375C4.82863 41.0059 10.6653 46.1328 17.873 48.2031C15.4133 44.9023 13.7198 39.9316 12.8327 34.375H1.94556Z" fill="black"/>
</svg>
