<svg width="50" height="50" viewBox="0 0 50 50" fill="none" xmlns="http://www.w3.org/2000/svg">
<path fill-rule="evenodd" clip-rule="evenodd" d="M44.0822 14.9418C44.3604 14.0147 44.0823 13.3333 42.7588 13.3333H38.3828C37.27 13.3333 36.7574 13.9219 36.4792 14.5711C36.4792 14.5711 34.2537 19.9952 31.1011 23.5185C30.0812 24.5384 29.6176 24.8626 29.0612 24.8626C28.7831 24.8626 28.3805 24.5384 28.3805 23.6113V14.9418C28.3805 13.8291 28.0576 13.3333 27.1302 13.3333H20.2536C19.5584 13.3333 19.1402 13.8497 19.1402 14.3392C19.1402 15.3941 20.7162 15.6373 20.8787 18.6042V25.0485C20.8787 26.4614 20.6236 26.7177 20.0673 26.7177C18.5838 26.7177 14.9755 21.2689 12.835 15.0346C12.4155 13.8228 11.9948 13.3333 10.8764 13.3333H6.50035C5.25006 13.3333 5 13.9219 5 14.5711C5 15.7301 6.48378 21.479 11.9079 29.082C15.5243 34.2738 20.6186 37.0889 25.2547 37.0889C28.0366 37.0889 28.3805 36.4637 28.3805 35.3869V31.4625C28.3805 30.2122 28.644 29.9628 29.5245 29.9628C30.174 29.9628 31.2864 30.2873 33.883 32.7907C36.8499 35.7573 37.3388 37.0889 39.0079 37.0889H43.384C44.6343 37.0889 45.2594 36.4637 44.8987 35.23C44.5042 34.0003 43.0876 32.2168 41.2078 30.1019C40.1879 28.8963 38.6579 27.5982 38.1946 26.9493C37.5454 26.1147 37.7308 25.744 38.1946 25.0026C38.1946 25.0026 43.5259 17.4921 44.0822 14.9421V14.9418Z" fill="#333333"/>
</svg>
