<svg width="50" height="50" viewBox="0 0 50 50" fill="none" xmlns="http://www.w3.org/2000/svg">
<path fill-rule="evenodd" clip-rule="evenodd" d="M33.7738 5C33.9705 7.34717 33.1581 9.67196 31.5091 11.4807C30.7195 12.378 29.7173 13.0999 28.578 13.5921C27.4388 14.0843 26.1921 14.3338 24.932 14.322C24.8516 13.1932 25.0155 12.0611 25.4142 10.9903C25.813 9.91944 26.4389 8.93092 27.256 8.08122C28.9273 6.34191 31.2545 5.24177 33.7738 5ZM38.3777 21.6535C37.5405 23.0013 37.09 24.5207 37.0681 26.0703C37.0702 27.8134 37.6337 29.5174 38.6886 30.9698C39.7435 32.4222 41.2429 33.5588 43 34.2378C42.3092 36.2882 41.2678 38.226 39.9146 39.9793C38.0972 42.4632 36.1917 44.89 33.1673 44.9348C31.7289 44.9651 30.758 44.5872 29.7463 44.1934C28.6909 43.7827 27.5912 43.3547 25.8704 43.3547C24.0454 43.3547 22.8964 43.7965 21.7883 44.2226C20.8307 44.5908 19.9036 44.9473 18.5971 44.9968C15.7168 45.0943 13.5156 42.3457 11.6321 39.885C7.86763 34.8599 4.93629 25.7236 8.86617 19.5069C9.77339 18.0174 11.0874 16.768 12.6803 15.8804C14.2731 14.9928 16.0904 14.4974 17.9551 14.4423C19.5887 14.4116 21.1562 14.9869 22.5305 15.4913C23.5815 15.877 24.5195 16.2212 25.2876 16.2212C25.9628 16.2212 26.8746 15.8906 27.9373 15.5052C29.6112 14.8982 31.6594 14.1555 33.7466 14.3557C35.3462 14.4014 36.9121 14.7873 38.3199 15.4827C39.7277 16.1781 40.9387 17.1638 41.8566 18.3616C40.4117 19.1733 39.2149 20.3057 38.3777 21.6535Z" fill="#231F20"/>
</svg>
