<svg width="50" height="50" viewBox="0 0 50 50" fill="none" xmlns="http://www.w3.org/2000/svg">
<path d="M43.5956 27.1634L36.3212 30.8602L29.7968 25.0384L36.3732 19.17L43.5956 22.8401C44.0219 23.0565 44.3765 23.3707 44.6232 23.7505C44.87 24.1303 45 24.5621 45 25.0018C45 25.4415 44.87 25.8733 44.6232 26.2531C44.3765 26.6329 44.0219 26.947 43.5956 27.1634ZM5.2079 6.53991C5.07015 6.84018 4.99951 7.16184 5 7.48659V42.5153C5 42.8769 5.08353 43.2136 5.23017 43.5153L25.9359 25.0368L5.2079 6.53991ZM27.8663 23.3151L33.9138 17.9184L9.13001 5.3249C8.59879 5.05079 7.98009 4.94567 7.37406 5.02656L27.8663 23.3151ZM27.8663 26.7601L7.44831 44.982C8.00145 45.042 8.58429 44.9553 9.13001 44.677L33.8618 32.1102L27.8663 26.7601Z" fill="#231F20"/>
</svg>
