<svg width="50" height="50" viewBox="0 0 50 50" fill="none" xmlns="http://www.w3.org/2000/svg">
<path d="M6.24984 22.3959H8.33317V38.0209H6.24984C5.97616 38.0213 5.70511 37.9542 5.4522 37.8235C5.19929 37.6927 4.96949 37.5009 4.77597 37.259C4.58245 37.0171 4.42901 36.7299 4.32443 36.4137C4.21984 36.0976 4.16618 35.7588 4.16651 35.4167V25C4.16618 24.6579 4.21984 24.3191 4.32443 24.003C4.42901 23.6868 4.58245 23.3996 4.77597 23.1577C4.96949 22.9158 5.19929 22.724 5.4522 22.5933C5.70511 22.4625 5.97616 22.3954 6.24984 22.3959ZM39.5832 18.4896V40.625C39.5821 42.0059 39.1427 43.3299 38.3616 44.3064C37.5804 45.2828 36.5212 45.832 35.4165 45.8334H14.5832C13.4784 45.832 12.4193 45.2828 11.6381 44.3064C10.8569 43.3299 10.4176 42.0059 10.4165 40.625V18.4896C10.4163 17.6346 10.5508 16.7879 10.8125 15.9978C11.0742 15.2078 11.4578 14.49 11.9415 13.8854C12.4252 13.2808 12.9994 12.8013 13.6314 12.4742C14.2634 12.1471 14.9408 11.9789 15.6248 11.9792H22.9165V6.77085C22.9165 6.08019 23.136 5.41781 23.5267 4.92943C23.9174 4.44105 24.4473 4.16669 24.9998 4.16669C25.5524 4.16669 26.0823 4.44105 26.473 4.92943C26.8637 5.41781 27.0832 6.08019 27.0832 6.77085V11.9792H34.3748C35.0589 11.9789 35.7362 12.1471 36.3682 12.4742C37.0003 12.8013 37.5745 13.2808 38.0582 13.8854C38.5419 14.49 38.9255 15.2078 39.1872 15.9978C39.4488 16.7879 39.5834 17.6346 39.5832 18.4896ZM21.354 25C21.354 24.3562 21.2013 23.7268 20.9151 23.1915C20.629 22.6562 20.2223 22.239 19.7464 21.9926C19.2706 21.7462 18.747 21.6818 18.2418 21.8074C17.7366 21.933 17.2726 22.243 16.9084 22.6982C16.5442 23.1535 16.2962 23.7335 16.1957 24.365C16.0952 24.9964 16.1468 25.6509 16.3439 26.2457C16.541 26.8405 16.8748 27.3489 17.303 27.7066C17.7313 28.0643 18.2348 28.2552 18.7498 28.2552C19.0918 28.2553 19.4305 28.1711 19.7464 28.0075C20.0624 27.8439 20.3495 27.6042 20.5913 27.3019C20.8331 26.9996 21.025 26.6407 21.1558 26.2458C21.2867 25.8508 21.354 25.4275 21.354 25ZM20.8332 35.4167H16.6665V38.0209H20.8332V35.4167ZM27.0832 35.4167H22.9165V38.0209H27.0832V35.4167ZM33.854 25C33.854 24.3562 33.7013 23.7268 33.4151 23.1915C33.129 22.6562 32.7223 22.239 32.2464 21.9926C31.7706 21.7462 31.247 21.6818 30.7418 21.8074C30.2366 21.933 29.7726 22.243 29.4084 22.6982C29.0442 23.1535 28.7962 23.7335 28.6957 24.365C28.5952 24.9964 28.6468 25.6509 28.8439 26.2457C29.041 26.8405 29.3748 27.3489 29.803 27.7066C30.2313 28.0643 30.7348 28.2552 31.2498 28.2552C31.5918 28.2553 31.9305 28.1711 32.2464 28.0075C32.5624 27.8439 32.8495 27.6042 33.0913 27.3019C33.3331 26.9996 33.525 26.6407 33.6558 26.2458C33.7867 25.8508 33.854 25.4275 33.854 25ZM33.3332 35.4167H29.1665V38.0209H33.3332V35.4167ZM45.8332 25V35.4167C45.8335 35.7588 45.7798 36.0976 45.6753 36.4137C45.5707 36.7299 45.4172 37.0171 45.2237 37.259C45.0302 37.5009 44.8004 37.6927 44.5475 37.8235C44.2946 37.9542 44.0235 38.0213 43.7498 38.0209H41.6665V22.3959H43.7498C44.0235 22.3954 44.2946 22.4625 44.5475 22.5933C44.8004 22.724 45.0302 22.9158 45.2237 23.1577C45.4172 23.3996 45.5707 23.6868 45.6753 24.003C45.7798 24.3191 45.8335 24.6579 45.8332 25Z" fill="black"/>
</svg>
