<svg width="145" height="50" viewBox="0 0 145 50" fill="none" xmlns="http://www.w3.org/2000/svg">
<g clip-path="url(#clip0)">
<path d="M20.8301 36.2002H20.7601C18.6706 36.1832 16.6148 35.6727 14.7601 34.7102C14.0264 34.3314 13.4114 33.7576 12.9827 33.0519C12.554 32.3462 12.3282 31.5359 12.3301 30.7102V21.8102C12.3306 20.8455 12.6285 19.9045 13.1832 19.1153C13.738 18.3261 14.5226 17.7272 15.4301 17.4002C17.1041 16.7914 18.869 16.4702 20.6501 16.4502H20.8901C22.6745 16.4702 24.4427 16.7914 26.1201 17.4002C27.0266 17.7276 27.8098 18.327 28.3629 19.1163C28.9159 19.9056 29.2118 20.8464 29.2101 21.8102V30.7102C29.212 31.5359 28.9862 32.3462 28.5575 33.0519C28.1288 33.7576 27.5138 34.3314 26.7801 34.7102C24.9264 35.6752 22.8699 36.1859 20.7801 36.2002H20.8301ZM20.8901 18.0002H20.6801C19.073 18.0213 17.4809 18.312 15.9701 18.8602C15.355 19.0815 14.8246 19.4898 14.4534 20.0278C14.0821 20.5658 13.8886 21.2066 13.9001 21.8602V30.7602C13.8997 31.3046 14.0475 31.8389 14.3276 32.3057C14.6077 32.7725 15.0096 33.1543 15.4901 33.4102C17.124 34.277 18.9455 34.7302 20.7951 34.7302C22.6447 34.7302 24.4662 34.277 26.1001 33.4102C26.5788 33.153 26.9786 32.7706 27.2569 32.3039C27.5351 31.8371 27.6814 31.3036 27.6801 30.7602V21.8602C27.6915 21.2066 27.4981 20.5658 27.1268 20.0278C26.7556 19.4898 26.2252 19.0815 25.6101 18.8602C24.0961 18.3111 22.5005 18.0203 20.8901 18.0002Z" fill="#2DB0E6"/>
<path d="M20.8301 40.7001H20.7501C13.0601 40.7001 11.1201 40.3501 9.8301 38.8301C8.8301 37.6501 8.6201 36.2801 8.2301 33.8301C8.06452 31.7812 8.0111 29.7248 8.0701 27.6701C8.0701 26.0201 8.0701 24.9701 8.0701 24.1101C8.0701 23.5701 8.0701 23.1101 8.0701 22.6301C8.08882 21.4424 8.17898 20.2569 8.3401 19.0801C8.5915 17.7806 9.11886 16.5502 9.88655 15.4719C10.6542 14.3937 11.6444 13.4928 12.7901 12.8301C15.1973 11.5239 17.8914 10.8366 20.6301 10.8301H20.7901C23.5318 10.8378 26.2289 11.525 28.6401 12.8301C29.7831 13.4949 30.7707 14.3966 31.5365 15.4746C32.3023 16.5526 32.8286 17.7819 33.0801 19.0801C33.244 20.2568 33.3375 21.4422 33.3601 22.6301C33.3601 23.1101 33.3601 23.5701 33.3601 24.1101C33.3601 24.9701 33.3601 26.0201 33.3601 27.6701C33.4191 29.7248 33.3657 31.7812 33.2001 33.8301C32.8101 36.3001 32.6001 37.6701 31.6001 38.8301C30.4601 40.3501 28.5201 40.6901 20.8301 40.7001ZM20.8301 12.3501H20.6901C18.2053 12.3536 15.761 12.9793 13.5801 14.1701C12.6359 14.7335 11.8222 15.4911 11.193 16.3928C10.5637 17.2944 10.1333 18.3195 9.9301 19.4001C9.79907 20.4655 9.7223 21.5369 9.7001 22.6101C9.7001 23.1101 9.7001 23.6101 9.7001 24.1301C9.7001 24.9801 9.6501 26.0201 9.6501 27.6501C9.6501 30.8301 9.6501 32.7401 9.7901 33.5701C10.1601 35.9101 10.3301 36.9801 11.0501 37.8301C11.7701 38.6801 13.0401 39.1401 20.8601 39.1501C28.6801 39.1501 29.8601 38.7401 30.6001 37.8301C31.3401 36.9201 31.4801 35.9101 31.8501 33.5701C31.9801 32.7401 31.9801 30.8301 31.9901 27.6501C31.9901 26.0201 31.9901 24.9801 31.9901 24.1301C31.9901 23.5801 31.9901 23.1301 31.9901 22.6101C31.9694 21.5365 31.8892 20.4648 31.7501 19.4001C31.5374 18.3101 31.0924 17.2788 30.4452 16.3763C29.7981 15.4738 28.9642 14.7213 28.0001 14.1701C25.8103 12.9744 23.355 12.3486 20.8601 12.3501H20.8301Z" fill="#5BC5F2"/>
<path d="M20.7499 45.1801C19.3799 45.1801 10.1499 44.9201 6.81994 44.6401C6.27855 44.5964 5.76612 44.3776 5.36016 44.0167C4.95421 43.6559 4.67681 43.1726 4.56994 42.6401C4.22455 40.2807 4.01421 37.9035 3.93994 35.5201V21.6301C3.95921 19.9996 4.14009 18.3749 4.47994 16.7801C5.33181 13.3352 7.41658 10.3219 10.3399 8.31009C13.4422 6.26707 17.0754 5.17822 20.7899 5.17822C24.5045 5.17822 28.1376 6.26707 31.2399 8.31009C34.1691 10.3181 36.2581 13.3325 37.1099 16.7801C37.4449 18.3757 37.6257 19.9999 37.6499 21.6301V35.4801C37.5691 37.8639 37.352 40.2411 36.9999 42.6001C36.8931 43.1326 36.6157 43.6159 36.2097 43.9767C35.8038 44.3376 35.2913 44.5564 34.7499 44.6001C31.3699 44.8901 22.1799 45.1301 20.8199 45.1401L20.7499 45.1801ZM20.8299 6.72009C17.407 6.71539 14.0582 7.7169 11.1999 9.60009C8.59533 11.4032 6.74458 14.101 5.99994 17.1801C5.69102 18.6438 5.5269 20.1343 5.50994 21.6301V35.4801C5.585 37.7693 5.7853 40.0527 6.10994 42.3201C6.15597 42.5279 6.2671 42.7156 6.42717 42.8559C6.58724 42.9962 6.78789 43.0817 6.99994 43.1001C10.2699 43.3701 19.5099 43.6201 20.8099 43.6301C22.1099 43.6401 31.3899 43.3701 34.6799 43.1001C34.8899 43.0852 35.0888 43.0002 35.2448 42.8587C35.4007 42.7173 35.5046 42.5276 35.5399 42.3201C35.8714 40.0533 36.0751 37.7697 36.1499 35.4801V21.6301C36.1281 20.1346 35.964 18.6445 35.6599 17.1801C34.8933 14.0895 33.0133 11.3904 30.3799 9.60009C27.5471 7.72599 24.2266 6.72459 20.8299 6.72009Z" fill="#BCE4FA"/>
<path d="M41.51 49.42H0V20.79C0.0618668 15.2985 2.23553 10.0416 6.07 6.11C9.98894 2.26974 15.2338 0.0823106 20.72 0L20.79 0C26.2885 0.0290269 31.5524 2.23093 35.4339 6.12553C39.3154 10.0201 41.4995 15.2915 41.51 20.79V49.42ZM1.51 47.87H40V20.79C39.9921 15.6931 37.9652 10.807 34.3631 7.20108C30.7609 3.59516 25.8769 1.56322 20.78 1.55H20.71C15.636 1.62642 10.7852 3.64907 7.16 7.2C3.61248 10.8404 1.60342 15.7073 1.55 20.79L1.51 47.87Z" fill="#EAF6FE"/>
<path d="M20.82 32.1401C20.2545 32.1401 19.6945 32.0285 19.1722 31.8118C18.6498 31.5951 18.1754 31.2775 17.7759 30.8771C17.3765 30.4768 17.06 30.0015 16.8445 29.4787C16.629 28.9558 16.5187 28.3956 16.52 27.8301V21.8301H25.14V27.9401C25.1514 28.7482 24.9266 29.5421 24.4931 30.2242C24.0597 30.9064 23.4365 31.4471 22.7 31.7801C22.1051 32.0292 21.4649 32.1518 20.82 32.1401ZM18.07 23.3301V27.8301C18.0701 28.2887 18.1844 28.74 18.4026 29.1433C18.6209 29.5466 18.9362 29.8892 19.32 30.1401C19.7275 30.4012 20.1949 30.5539 20.6779 30.5837C21.161 30.6134 21.6436 30.5193 22.08 30.3101C22.541 30.0988 22.9298 29.7569 23.1982 29.3267C23.4666 28.8965 23.6029 28.397 23.59 27.8901V23.3301H18.07Z" fill="#449AD5"/>
</g>
<g clip-path="url(#clip1)">
<path d="M59.0201 16.6353H60.0201V19.7753H58.5101V18.1253H53.6301V11.9653H55.2101V16.6353H57.4401V11.9653H59.0201V16.6353Z" fill="#00548C"/>
<path d="M65.5899 11.9653H66.7699V18.1353H65.2299V14.6453L62.3499 18.1353H61.1699V11.9653H62.6999V15.4953L65.5899 11.9653Z" fill="#00548C"/>
<path d="M74.8101 12.9351C75.3449 13.506 75.6355 14.2631 75.6201 15.0451C75.6355 15.8272 75.3449 16.5843 74.8101 17.1551C74.2222 17.7662 73.4344 18.1459 72.5901 18.2251V20.5951H71.0601V18.2251C70.2159 18.1459 69.4281 17.7662 68.8401 17.1551C68.3054 16.5843 68.0147 15.8272 68.0301 15.0451C68.0147 14.2631 68.3054 13.506 68.8401 12.9351C69.4281 12.3241 70.2159 11.9444 71.0601 11.8651V9.49512H72.5901V11.8651C73.4318 11.9536 74.2165 12.3319 74.8101 12.9351ZM69.5801 15.0451C69.5723 15.4331 69.7076 15.8104 69.9601 16.1051C70.2546 16.4176 70.6391 16.6308 71.0601 16.7151V13.3751C70.64 13.456 70.2556 13.6658 69.9601 13.9751C69.7035 14.2714 69.5679 14.6534 69.5801 15.0451ZM72.5801 16.6951C72.9966 16.6267 73.3775 16.4186 73.6601 16.1051C73.9091 15.809 74.0407 15.4318 74.0301 15.0451C74.0413 14.6553 73.9097 14.2748 73.6601 13.9751C73.378 13.6592 72.9974 13.4477 72.5801 13.3751V16.6951Z" fill="#00548C"/>
<path d="M80.4301 11.785C80.8237 11.785 81.2128 11.8687 81.5714 12.0308C81.9301 12.1929 82.2501 12.4296 82.5101 12.725C83.0892 13.3487 83.4015 14.1742 83.3801 15.025C83.403 15.8791 83.0908 16.7083 82.5101 17.335C82.2463 17.6338 81.9214 17.8724 81.5574 18.0346C81.1933 18.1967 80.7986 18.2788 80.4001 18.275C80.0174 18.3013 79.6342 18.2319 79.285 18.0731C78.9358 17.9142 78.6317 17.6709 78.4001 17.365V20.565H76.8601V11.935H78.4501V12.665C78.6864 12.3715 78.9893 12.1386 79.3337 11.9855C79.678 11.8325 80.0539 11.7637 80.4301 11.785ZM78.9201 16.295C79.2446 16.6091 79.6785 16.7846 80.1301 16.7846C80.5817 16.7846 81.0156 16.6091 81.3401 16.295C81.5033 16.1316 81.6311 15.9362 81.7154 15.7211C81.7997 15.506 81.8388 15.2759 81.8301 15.045C81.8388 14.8142 81.7997 14.584 81.7154 14.369C81.6311 14.1539 81.5033 13.9585 81.3401 13.795C81.0156 13.481 80.5817 13.3054 80.1301 13.3054C79.6785 13.3054 79.2446 13.481 78.9201 13.795C78.76 13.9598 78.6356 14.1559 78.5547 14.371C78.4738 14.5861 78.4382 14.8156 78.4501 15.045C78.4331 15.275 78.4664 15.5059 78.5475 15.7218C78.6287 15.9376 78.7558 16.1332 78.9201 16.295Z" fill="#00548C"/>
<path d="M89.8701 17.355C89.5693 17.6572 89.2105 17.8953 88.8152 18.0552C88.4199 18.215 87.9964 18.2932 87.5701 18.285C87.1451 18.2947 86.7226 18.2172 86.3288 18.0573C85.9349 17.8973 85.578 17.6583 85.2801 17.355C84.974 17.0546 84.7326 16.6946 84.5709 16.2973C84.4093 15.9 84.3307 15.4738 84.3401 15.045C84.3307 14.6162 84.4093 14.19 84.5709 13.7927C84.7326 13.3954 84.974 13.0354 85.2801 12.735C85.578 12.4317 85.9349 12.1927 86.3288 12.0328C86.7226 11.8728 87.1451 11.7953 87.5701 11.805C87.9964 11.7968 88.4199 11.875 88.8152 12.0349C89.2105 12.1947 89.5693 12.4329 89.8701 12.735C90.1886 13.0291 90.442 13.3865 90.6143 13.7843C90.7865 14.1821 90.8736 14.6115 90.8701 15.045C90.8688 15.4777 90.7795 15.9057 90.6076 16.3028C90.4357 16.6999 90.1848 17.0579 89.8701 17.355ZM86.3801 16.265C86.5327 16.4253 86.7178 16.5511 86.9231 16.6339C87.1284 16.7167 87.349 16.7546 87.5701 16.745C87.789 16.7489 88.0065 16.7084 88.2093 16.6259C88.4121 16.5434 88.5961 16.4206 88.7501 16.265C88.9065 16.1037 89.0287 15.9125 89.1095 15.7029C89.1902 15.4933 89.2279 15.2695 89.2201 15.045C89.2279 14.8205 89.1902 14.5967 89.1095 14.3871C89.0287 14.1775 88.9065 13.9863 88.7501 13.825C88.4328 13.5165 88.0077 13.3439 87.5651 13.3439C87.1225 13.3439 86.6974 13.5165 86.3801 13.825C86.068 14.1534 85.899 14.5921 85.9101 15.045C85.899 15.4979 86.068 15.9367 86.3801 16.265Z" fill="#00548C"/>
<path d="M96.5101 14.9649C96.7807 15.0863 97.0079 15.2872 97.1615 15.5408C97.3152 15.7945 97.3879 16.0889 97.3701 16.3849C97.3782 16.6208 97.335 16.8556 97.2435 17.0732C97.152 17.2907 97.0144 17.4858 96.8401 17.6449C96.4177 17.9949 95.8775 18.1702 95.3301 18.1349H92.0601V11.9649H95.0601C95.5917 11.9597 96.1071 12.1481 96.5101 12.4949C96.6844 12.6541 96.822 12.8492 96.9135 13.0667C97.005 13.2843 97.0482 13.5191 97.0401 13.7549C97.0492 13.9836 97.0062 14.2114 96.9144 14.421C96.8226 14.6306 96.6843 14.8166 96.5101 14.9649ZM94.8801 13.2549H93.5101V14.3749H94.8501C95.3001 14.3749 95.5301 14.1949 95.5301 13.8249C95.5301 13.4549 95.3301 13.2549 94.8801 13.2549ZM95.0901 16.7849C95.5501 16.7849 95.7701 16.5949 95.7701 16.1849C95.774 16.1088 95.7597 16.0327 95.7284 15.9632C95.6971 15.8936 95.6497 15.8325 95.5901 15.7849C95.4463 15.6775 95.2692 15.6243 95.0901 15.6349H93.5101V16.7849H95.0901Z" fill="#00548C"/>
<path d="M103.66 17.3549C103.359 17.6571 103 17.8952 102.605 18.0551C102.21 18.2149 101.786 18.2931 101.36 18.2849C100.935 18.2941 100.513 18.2163 100.119 18.0564C99.7253 17.8964 99.3683 17.6577 99.0701 17.3549C98.7658 17.0531 98.5257 16.6929 98.3642 16.2959C98.2026 15.899 98.123 15.4734 98.1301 15.0449C98.123 14.6164 98.2026 14.1909 98.3642 13.7939C98.5257 13.397 98.7658 13.0367 99.0701 12.7349C99.3683 12.4321 99.7253 12.1934 100.119 12.0335C100.513 11.8736 100.935 11.7958 101.36 11.8049C101.786 11.7968 102.21 11.8749 102.605 12.0348C103 12.1946 103.359 12.4328 103.66 12.7349C103.979 13.029 104.232 13.3864 104.404 13.7842C104.576 14.182 104.664 14.6115 104.66 15.0449C104.659 15.4777 104.569 15.9056 104.398 16.3027C104.226 16.6998 103.975 17.0578 103.66 17.3549ZM100.17 16.2649C100.323 16.4242 100.509 16.5493 100.714 16.632C100.919 16.7148 101.139 16.7532 101.36 16.7449C101.574 16.7448 101.786 16.7023 101.983 16.6199C102.18 16.5375 102.36 16.4169 102.51 16.2649C102.666 16.1036 102.789 15.9125 102.869 15.7028C102.95 15.4932 102.988 15.2694 102.98 15.0449C102.988 14.8204 102.95 14.5966 102.869 14.387C102.789 14.1774 102.666 13.9862 102.51 13.8249C102.357 13.6674 102.174 13.5434 101.971 13.4607C101.767 13.3781 101.549 13.3386 101.33 13.3449C101.11 13.3408 100.891 13.3812 100.686 13.4637C100.482 13.5462 100.296 13.669 100.14 13.8249C99.828 14.1533 99.659 14.5921 99.6701 15.0449C99.6663 15.2716 99.7086 15.4966 99.7946 15.7064C99.8805 15.9161 100.008 16.1061 100.17 16.2649Z" fill="#00548C"/>
<path d="M110.27 11.9649H111.45V18.1349H109.92V14.6449L107.03 18.1349H105.85V11.9649H107.39V15.4949L110.27 11.9649ZM106.87 11.1649V9.79492H110.42V11.1749H106.87V11.1649Z" fill="#00548C"/>
<path d="M62.97 23.2553V36.2553H60.86V25.2953H55.62V36.2153H53.51V23.2153L62.97 23.2553Z" fill="#00548C"/>
<path d="M67.17 32.4351C67.2875 33.0817 67.6446 33.6603 68.17 34.0551C68.7396 34.4465 69.4192 34.6462 70.11 34.6251C70.5738 34.6622 71.0393 34.5774 71.4603 34.3792C71.8813 34.181 72.2431 33.8762 72.51 33.4951L74.16 34.4951C73.7212 35.1439 73.1226 35.6688 72.422 36.0191C71.7214 36.3694 70.9424 36.5333 70.16 36.4951C69.4874 36.5234 68.8162 36.4128 68.1882 36.1702C67.5602 35.9276 66.9889 35.5582 66.51 35.0851C66.0581 34.6279 65.7036 34.0838 65.4681 33.4856C65.2326 32.8874 65.121 32.2477 65.14 31.6051C65.1258 30.9646 65.2396 30.3277 65.4749 29.7319C65.7102 29.136 66.0621 28.5931 66.51 28.1351C66.9626 27.6721 67.5066 27.3085 68.1075 27.0674C68.7084 26.8264 69.353 26.7132 70 26.7351C70.6239 26.7188 71.244 26.8383 71.8172 27.0852C72.3904 27.3321 72.9032 27.7006 73.32 28.1651C74.1818 29.1126 74.6471 30.3546 74.62 31.6351C74.5992 31.9236 74.5624 32.2107 74.51 32.4951H67.17V32.4351ZM67.17 30.8051H72.51C72.4429 30.1669 72.1404 29.5767 71.6615 29.1495C71.1826 28.7224 70.5617 28.4891 69.92 28.4951C69.2537 28.4737 68.6016 28.6899 68.08 29.1051C67.5868 29.5518 67.2561 30.1498 67.14 30.8051H67.17Z" fill="#00548C"/>
<path d="M83.1499 26.9653V28.8853H80.1499V36.2153H78.1499V28.8853H75.1499V26.9653H83.1499Z" fill="#00548C"/>
<path d="M85.87 32.4354C85.9786 33.0853 86.3376 33.6669 86.87 34.0554C87.4389 34.4481 88.1189 34.6479 88.8099 34.6254C89.2672 34.6554 89.7245 34.5672 90.1379 34.3693C90.5512 34.1714 90.9066 33.8704 91.17 33.4954L92.8099 34.4954C92.3732 35.1463 91.7751 35.6728 91.074 36.0234C90.3728 36.3739 89.5927 36.5366 88.8099 36.4954C88.1444 36.5235 87.4802 36.4156 86.8578 36.1783C86.2354 35.941 85.6679 35.5794 85.19 35.1154C84.738 34.6582 84.3835 34.114 84.148 33.5159C83.9125 32.9177 83.8009 32.2779 83.82 31.6354C83.8044 30.9956 83.9167 30.3591 84.1502 29.7633C84.3837 29.1674 84.7338 28.6242 85.18 28.1654C85.6325 27.7024 86.1766 27.3387 86.7775 27.0977C87.3784 26.8567 88.0229 26.7435 88.67 26.7654C89.2939 26.7491 89.9139 26.8686 90.4871 27.1155C91.0603 27.3624 91.5731 27.7308 91.99 28.1954C92.8517 29.1428 93.317 30.3849 93.2899 31.6654C93.2813 31.9431 93.2579 32.2201 93.2199 32.4954H85.87V32.4354ZM85.87 30.8054H91.28C91.2119 30.1549 90.8994 29.5545 90.4056 29.1257C89.9118 28.6968 89.2735 28.4715 88.62 28.4954C87.9537 28.474 87.3015 28.6902 86.78 29.1054C86.2772 29.5445 85.9445 30.1461 85.84 30.8054H85.87Z" fill="#00548C"/>
<path d="M100.38 26.7053C100.989 26.7012 101.593 26.8255 102.151 27.0702C102.709 27.3148 103.21 27.6743 103.62 28.1253C104.505 29.0529 104.987 30.2933 104.96 31.5753C104.978 32.2136 104.868 32.849 104.638 33.4447C104.408 34.0404 104.062 34.5845 103.62 35.0453C103.212 35.5007 102.712 35.8651 102.154 36.1149C101.596 36.3647 100.991 36.4943 100.38 36.4953C99.7566 36.5252 99.1357 36.3992 98.5734 36.1285C98.0111 35.8578 97.5253 35.4511 97.1599 34.9453V39.9453H95.1599V26.9453H97.1599V28.2853C97.52 27.7718 98.004 27.3578 98.5669 27.0816C99.1299 26.8053 99.7535 26.6759 100.38 26.7053ZM97.9899 33.7053C98.2584 33.9839 98.582 34.2034 98.9402 34.3498C99.2984 34.4961 99.6831 34.5661 100.07 34.5553C100.458 34.5621 100.843 34.4903 101.202 34.3443C101.561 34.1982 101.887 33.9808 102.16 33.7053C102.688 33.1253 102.98 32.3694 102.98 31.5853C102.98 30.8011 102.688 30.0452 102.16 29.4653C101.601 28.9245 100.853 28.6223 100.075 28.6223C99.2969 28.6223 98.5493 28.9245 97.9899 29.4653C97.7165 29.7428 97.502 30.0729 97.3593 30.4355C97.2167 30.7981 97.1489 31.1858 97.1599 31.5753C97.1446 32.367 97.443 33.1326 97.9899 33.7053Z" fill="#00548C"/>
<path d="M111.22 36.4954C110.581 36.5185 109.943 36.4077 109.349 36.1701C108.755 35.9324 108.217 35.5732 107.77 35.1154C106.876 34.1615 106.398 32.8918 106.44 31.5854C106.378 30.3367 106.618 29.0914 107.14 27.9554C107.823 26.9054 108.81 26.089 109.97 25.6154L110.97 25.1454L111.97 24.6954C112.14 24.6054 112.35 24.4754 112.62 24.2954C112.846 24.1414 113.04 23.9443 113.19 23.7154C113.319 23.485 113.42 23.2399 113.49 22.9854L115.1 23.9254C115.055 24.182 114.974 24.4311 114.86 24.6654C114.748 24.908 114.588 25.1256 114.39 25.3054C114.216 25.4753 114.032 25.6355 113.84 25.7854C113.6 25.9588 113.342 26.1063 113.07 26.2254L112.29 26.6054L111.36 26.9854C110.717 27.2156 110.119 27.5538 109.59 27.9854C109.217 28.3255 108.944 28.7612 108.8 29.2454C109.176 28.8269 109.64 28.4968 110.159 28.279C110.677 28.0611 111.238 27.9609 111.8 27.9854C112.86 27.9819 113.878 28.3991 114.63 29.1454C115.023 29.5371 115.332 30.0056 115.537 30.5217C115.741 31.0378 115.838 31.5904 115.82 32.1454C115.828 32.7231 115.716 33.2963 115.49 33.8283C115.265 34.3603 114.931 34.8395 114.51 35.2354C113.619 36.0679 112.439 36.5199 111.22 36.4954ZM111.22 34.6154C111.916 34.6428 112.595 34.3949 113.11 33.9254C113.351 33.699 113.541 33.4243 113.669 33.1193C113.796 32.8143 113.858 32.4858 113.85 32.1554C113.861 31.8195 113.801 31.4851 113.676 31.1735C113.55 30.8619 113.361 30.5798 113.12 30.3454C112.87 30.1111 112.576 29.9294 112.255 29.8109C111.934 29.6924 111.592 29.6395 111.25 29.6554C110.571 29.6542 109.912 29.8833 109.38 30.3054C109.111 30.5046 108.892 30.7638 108.741 31.0624C108.59 31.361 108.511 31.6907 108.51 32.0254C108.499 32.3669 108.561 32.7069 108.692 33.0224C108.823 33.338 109.02 33.622 109.27 33.8554C109.794 34.333 110.481 34.5908 111.19 34.5754L111.22 34.6154Z" fill="#00548C"/>
<path d="M123.38 26.9653H125.51L121.96 36.4953C121.627 37.5276 121.002 38.4411 120.16 39.1253C119.387 39.701 118.431 39.978 117.47 39.9053V38.0453C118.007 38.1019 118.547 37.9635 118.99 37.6553C119.433 37.2958 119.757 36.8115 119.92 36.2653L119.98 36.1253L116.12 26.9453H118.24L121.03 33.6853L123.38 26.9653Z" fill="#00548C"/>
<path d="M132.13 26.7053C132.739 26.7012 133.343 26.8255 133.901 27.0702C134.459 27.3148 134.96 27.6743 135.37 28.1253C136.255 29.0529 136.737 30.2933 136.71 31.5753C136.728 32.2136 136.618 32.849 136.388 33.4447C136.158 34.0404 135.812 34.5845 135.37 35.0453C134.962 35.5007 134.462 35.8651 133.904 36.1149C133.346 36.3647 132.741 36.4943 132.13 36.4953C131.507 36.5252 130.886 36.3992 130.323 36.1285C129.761 35.8578 129.275 35.4511 128.91 34.9453V39.9453H126.91V26.9453H128.91V28.2853C129.27 27.7718 129.754 27.3578 130.317 27.0816C130.88 26.8053 131.504 26.6759 132.13 26.7053ZM129.74 33.7053C130.008 33.9839 130.332 34.2034 130.69 34.3498C131.048 34.4961 131.433 34.5661 131.82 34.5553C132.208 34.5621 132.593 34.4903 132.952 34.3443C133.311 34.1982 133.637 33.9808 133.91 33.7053C134.451 33.1335 134.745 32.3721 134.73 31.5853C134.738 31.2 134.67 30.817 134.529 30.4583C134.388 30.0996 134.178 29.7723 133.91 29.4953C133.351 28.9545 132.603 28.6523 131.825 28.6523C131.047 28.6523 130.299 28.9545 129.74 29.4953C129.206 30.0704 128.91 30.8258 128.91 31.6103C128.91 32.3947 129.206 33.1501 129.74 33.7253V33.7053Z" fill="#00548C"/>
<path d="M144.86 26.9653V28.8853H140.69V36.2153H138.69V26.9653H144.86Z" fill="#00548C"/>
</g>
<defs>
<clipPath id="clip0">
<rect width="41.51" height="49.42" fill="white"/>
</clipPath>
<clipPath id="clip1">
<rect width="91.35" height="30.43" fill="white" transform="translate(53.51 9.49512)"/>
</clipPath>
</defs>
</svg>
