<svg width="50" height="50" viewBox="0 0 50 50" fill="none" xmlns="http://www.w3.org/2000/svg">
<path fill-rule="evenodd" clip-rule="evenodd" d="M41.4941 31.5193L38.6253 32.3206L36.445 26.598L38.74 18.8153L41.4941 18.7007C41.7236 19.273 41.953 19.8453 42.0678 20.532C43.1005 23.9656 42.8711 27.8569 41.4941 31.5193ZM40.2318 33.9231C38.3958 37.2422 35.4122 39.6458 32.1992 41.1337L32.3139 39.5312C33.4615 38.8444 34.7238 38.0434 35.7565 37.1278C36.7893 36.3266 37.7073 35.2965 38.5105 34.2664L40.2318 33.8085V33.9231ZM26.2322 34.9531L28.4125 29.3451L34.8385 27.628L36.904 33.2364C36.3302 34.152 35.4122 34.9532 34.6089 35.7544C33.6909 36.5555 32.6582 37.2423 31.5107 37.929L26.2322 34.9531ZM30.2484 41.9346L29.5599 42.0491C25.4289 43.1936 21.0683 42.8505 17.0521 40.7903L17.8553 38.1578C19.0028 38.1578 20.1504 38.0432 21.2979 37.6999C22.4454 37.3565 23.8224 37.0133 24.9699 36.4411L30.478 39.4166L30.2484 41.9346ZM15.2161 39.8745C12.3473 38.0433 10.167 35.4109 8.78997 32.4352L10.5113 32.0918C11.1998 33.2363 12.0031 34.2663 12.8063 35.1819C13.6096 36.0975 14.6423 36.8987 15.9046 37.6999L15.2161 39.8745ZM7.75725 29.5739C6.72449 25.4536 7.06878 20.9897 9.1343 16.8695L10.2818 17.0986L12.462 22.5921C11.8882 23.851 11.4293 25.1102 10.9703 26.3692C10.626 27.5137 10.3965 28.887 10.167 30.146L8.10149 30.6039C7.98674 30.2605 7.872 29.9172 7.75725 29.5739ZM16.0193 9.65925L16.2488 10.4601C13.7243 11.8336 11.4293 14.2371 10.626 15.1527L10.167 15.0385C11.6588 12.8639 13.7243 11.0327 16.0193 9.65925ZM32.1992 8.858L31.3959 10.9181L23.3634 11.8335L18.0849 10.0026L17.6258 8.858C22.3306 6.6834 27.6091 6.6834 32.1992 8.858ZM22.5601 20.8754L22.4454 20.7611L24.1666 13.6648L31.8549 12.8639L37.0188 18.5865L34.8385 25.7967L28.0681 27.5138L22.5601 20.8754ZM12.1178 16.5261C12.921 15.496 15.2161 13.0927 17.7406 12.0626L22.2159 13.5506L20.4946 20.4174L14.1833 21.6766L12.1178 16.5261ZM14.1833 23.6225L21.0683 22.1345L26.4616 28.658L24.1666 34.724C23.0191 35.1818 21.8716 35.6397 20.7241 35.8686C19.5766 36.0975 18.3143 36.2119 17.1668 36.2119C16.0193 35.5252 14.9865 34.7242 14.1833 33.8085C13.38 33.0074 12.6916 31.9774 11.8883 30.7184C12.1178 29.4595 12.4621 28.2003 12.8063 26.9413C13.2653 25.7968 13.7243 24.767 14.1833 23.6225ZM33.9205 9.65925C36.904 11.4905 39.199 13.8939 40.6908 16.7552L38.0515 16.8695L33.232 11.6047L33.9205 9.65925ZM45.2808 19.502C43.789 14.3516 40.4613 9.7737 35.527 6.79794H35.4122C25.5436 1.07532 12.5768 4.39413 6.83922 14.3515V14.4661C3.8557 19.502 3.39676 25.1103 4.65902 30.3751C6.03603 35.5255 9.36379 40.1034 14.4128 43.0792L14.5275 43.1937C19.5766 46.055 25.1994 46.6273 30.478 45.3683C35.6418 43.8805 40.2317 40.5613 43.2153 35.6398H43.33C46.0841 30.375 46.6578 24.7668 45.2808 19.502Z" fill="#195084"/>
</svg>
