<svg width="50" height="50" viewBox="0 0 50 50" fill="none" xmlns="http://www.w3.org/2000/svg">
<path fill-rule="evenodd" clip-rule="evenodd" d="M27.7377 39.5882C27.0984 38.9437 26.2459 38.514 25.3934 38.514C24.4344 38.514 23.6885 38.9437 23.0492 39.5882C22.4098 40.1253 22.0902 40.9846 22.0902 41.9514C22.0902 42.9182 22.4098 43.7775 23.0492 44.3146C23.6885 44.9591 24.4344 45.2813 25.3934 45.2813C26.2459 45.2813 27.0984 44.9591 27.7377 44.3146C28.2705 43.7775 28.6967 42.9182 28.6967 41.9514C28.6967 41.0921 28.3771 40.1253 27.7377 39.5882ZM39.459 25.6242H11.2213V25.8389C11.2213 27.665 12.7131 29.1688 14.5246 29.1688H36.1558C37.9672 29.1688 39.459 27.665 39.459 25.8389V25.6242ZM11.2213 23.7979H39.459V11.4451C39.459 10.4783 39.0328 9.72639 38.5 9.08189C37.8606 8.54481 37.1148 8.11518 36.1558 8.11518H14.5246C12.7131 8.11518 11.2213 9.61899 11.2213 11.4451V23.7979ZM14.6311 5H36.2623C37.9672 5 39.5656 5.75206 40.7377 6.82623C41.8033 8.00781 42.5492 9.61888 42.5492 11.3376V25.8389C42.5492 29.3836 39.6721 32.1764 36.2623 32.1764H26.9918V36.9028C27.7377 37.1176 28.4836 37.6548 29.123 38.2993C29.6557 38.8364 30.082 39.5883 30.4016 40.3402H43.5082C44.2541 40.3402 45 40.9845 45 41.8439C45 42.5958 44.2541 43.3479 43.5082 43.3479H30.4016C30.1885 44.0998 29.6557 44.9593 29.123 45.4963C28.1639 46.4631 26.8852 47 25.5 47C24.1148 47 22.8361 46.4631 21.877 45.4963C21.2377 44.9593 20.8115 44.0998 20.4918 43.3479H7.4918C6.7459 43.3479 6 42.5958 6 41.8439C6 40.9845 6.7459 40.3402 7.4918 40.3402H20.5984C20.8115 39.5883 21.3443 38.8364 21.877 38.2993C22.4098 37.6548 23.1557 37.225 24.0082 36.9028V32.1764H14.6311C11.2213 32.1764 8.34425 29.2762 8.34425 25.8389V11.4451C8.2377 7.90032 11.2213 5 14.6311 5Z" fill="#195084"/>
<path d="M21.21 22L20.622 20.236H16.716L16.128 22H14.042L17.472 12.2H19.866L23.31 22H21.21ZM17.332 18.43H20.02L18.676 14.426L17.332 18.43Z" fill="#195084"/>
<path d="M27.9156 12.2C28.8582 12.2 29.6516 12.5173 30.2956 13.152C30.9396 13.7867 31.2616 14.566 31.2616 15.49C31.2616 16.414 30.9396 17.1933 30.2956 17.828C29.6516 18.4627 28.8582 18.78 27.9156 18.78H26.1936V22H24.2616V12.2H27.9156ZM27.9156 16.974C28.3262 16.974 28.6669 16.834 28.9376 16.554C29.2082 16.2647 29.3436 15.91 29.3436 15.49C29.3436 15.0607 29.2082 14.706 28.9376 14.426C28.6669 14.146 28.3262 14.006 27.9156 14.006H26.1936V16.974H27.9156Z" fill="#195084"/>
<path d="M32.5194 12.2H34.4514V22H32.5194V12.2Z" fill="#195084"/>
</svg>
