<svg width="50" height="50" viewBox="0 0 50 50" fill="none" xmlns="http://www.w3.org/2000/svg">
<path fill-rule="evenodd" clip-rule="evenodd" d="M23.2705 38.8024V15.3187C17.2459 11.3843 14.664 12.614 11.8361 13.9664C9.8689 14.8271 8.02456 15.5647 5.31963 15.8106V39.7862C7.4098 39.6633 9.00823 38.9252 10.4836 38.3105C13.8033 36.5892 17 35.2368 23.2705 38.8024ZM25.3607 15.3187V38.8024C31.5082 35.2368 34.7049 36.5892 38.2705 38.3105C39.7459 38.9252 41.3443 39.6633 43.4345 39.7862V15.8106C40.7296 15.6877 38.7623 14.8271 36.918 13.9664C33.9672 12.491 31.3853 11.3843 25.3607 15.3187ZM7.90159 20.8517C9.25405 20.4828 10.3607 19.9908 11.5902 19.499C13.9262 18.3925 16.2623 17.409 19.9508 18.8844C20.4426 19.1303 21.0574 18.8843 21.1803 18.3925C21.4262 17.9007 21.1803 17.2861 20.6885 17.0402C16.1393 15.196 13.4344 16.4253 10.6065 17.6548C9.62292 18.1466 8.5164 18.5156 7.28689 18.8844C6.79509 19.0074 6.42627 19.4992 6.54922 20.114C6.67217 20.6058 7.40979 20.9746 7.90159 20.8517ZM7.90159 36.0975C9.25405 35.7286 10.3607 35.237 11.5902 34.7452C13.9262 33.6386 16.2623 32.6548 19.9508 34.1302C20.4426 34.3761 21.0574 34.1305 21.1803 33.6387C21.4262 33.1469 21.1803 32.5319 20.6885 32.286C16.1393 30.4417 13.4344 31.6715 10.6065 32.901C9.62292 33.3928 8.5164 33.7614 7.28689 34.1302C6.79509 34.2532 6.42627 34.745 6.54922 35.3598C6.67217 35.8516 7.40979 36.0975 7.90159 36.0975ZM7.90159 30.9337C9.25405 30.5649 10.3607 30.0729 11.5902 29.5811C13.9262 28.4745 16.2623 27.4908 19.9508 29.0892C20.4426 29.2121 21.1803 28.9664 21.3033 28.4746C21.5492 27.9828 21.3033 27.3679 20.8115 27.245C16.2623 25.2778 13.5574 26.5074 10.7295 27.7369C9.7459 28.2287 8.63938 28.7206 7.40987 28.9665C6.91807 29.0894 6.54915 29.7043 6.6721 30.1961C6.6721 30.8108 7.40979 31.1796 7.90159 30.9337ZM7.90159 25.8927C9.25405 25.6468 10.3607 25.0318 11.5902 24.54C13.9262 23.4335 16.2623 22.4501 19.9508 24.0485C20.4426 24.1715 21.1803 23.9255 21.3033 23.5566C21.5492 23.0648 21.3033 22.3269 20.8115 22.2039C16.2623 20.3597 13.5574 21.4663 10.7295 22.6959C9.7459 23.1877 8.63938 23.6795 7.40987 23.9254C6.91807 24.0484 6.54915 24.6632 6.6721 25.155C6.6721 25.6468 7.40979 26.0157 7.90159 25.8927ZM41.3443 18.7613C40.1148 18.3925 39.0082 17.901 38.0246 17.5321C35.1968 16.3026 32.4918 15.0729 27.9427 16.9171C27.4509 17.163 27.2049 17.778 27.4508 18.2698C27.6967 18.7616 28.3115 19.1302 28.8033 18.7613C32.4918 17.2859 34.705 18.2698 37.164 19.3763C38.2705 19.8681 39.5 20.3597 40.8525 20.7286C41.3443 20.8515 41.9591 20.6056 42.082 19.8678C42.205 19.499 41.8361 18.8843 41.3443 18.7613ZM41.3443 34.0075C40.1148 33.6387 39.0082 33.1468 38.0246 32.7779C35.1968 31.5484 32.4918 30.3187 27.9427 32.1629C27.4509 32.4088 27.2049 33.0238 27.4508 33.5156C27.6967 34.0074 28.3115 34.3764 28.8033 34.0075C32.4918 32.5321 34.705 33.5156 37.164 34.6221C38.2705 35.1139 39.5 35.6059 40.8525 35.9748C41.3443 36.0977 41.9591 35.8517 42.082 35.114C42.205 34.7452 41.8361 34.1305 41.3443 34.0075ZM41.3443 28.9665C40.1148 28.7206 39.0082 28.1057 38.0246 27.7369C35.1968 26.5074 32.4918 25.2778 27.9427 27.245C27.4509 27.3679 27.2049 28.1057 27.4508 28.4746C27.6967 28.9664 28.3115 29.3351 28.8033 29.0892C32.4918 27.4908 34.705 28.5975 37.164 29.5811C38.2705 30.0729 39.5 30.5649 40.8525 30.9337C41.3443 31.0567 41.9591 30.8108 42.082 30.1961C42.205 29.7043 41.8361 29.0894 41.3443 28.9665ZM41.3443 23.8024C40.1148 23.5565 39.0082 23.0646 38.0246 22.5728C35.1968 21.3433 32.4918 20.237 27.9427 22.0813C27.4509 22.2042 27.2049 22.9417 27.4508 23.4335C27.6967 23.9253 28.3115 24.1713 28.8033 23.9254C32.4918 22.3271 34.705 23.4337 37.164 24.4173C38.2705 24.9092 39.5 25.5237 40.8525 25.7696C41.3443 25.8926 41.9591 25.6467 42.082 25.032C42.205 24.5401 41.8361 24.0483 41.3443 23.8024ZM3.84428 12.2449C6.5492 12.3679 8.5164 11.5072 10.3607 10.6465C14.0492 9.04816 17.3689 7.44988 24.3771 11.8761C31.3853 7.44988 34.7049 9.04816 38.3935 10.6465C40.3607 11.5072 42.205 12.3682 45.0328 12.1223C46.0164 11.9993 46.877 12.7367 47 13.7203V13.8434V41.3843C47 42.2449 46.2623 43.1058 45.2787 43.1058C41.5902 43.3517 39.2541 42.2452 37.041 41.2616C34.0902 40.0321 31.5082 38.8026 25.4836 42.86C24.8688 43.2288 24.1312 43.2288 23.5164 42.86C17.4918 38.8026 14.9098 40.0321 11.959 41.2616C9.62293 42.2452 7.28686 43.3517 3.59833 43.1058C2.73767 42.9828 2 42.2449 2 41.3843V13.8434C2 12.9827 2.86065 12.1223 3.72131 12.1223C3.59835 12.1223 3.84428 12.122 3.84428 12.2449Z" fill="#195084"/>
</svg>
