<svg width="50" height="50" viewBox="0 0 50 50" fill="none" xmlns="http://www.w3.org/2000/svg">
<path fill-rule="evenodd" clip-rule="evenodd" d="M9.26949 34.6172C9.13326 34.4822 9.13299 34.3472 8.99676 34.3472C8.86052 34.2121 8.72444 34.0771 8.72444 33.942C8.31573 33.4019 8.04343 32.7268 8.04343 32.1867C8.04343 31.7816 8.04315 31.2414 8.17938 30.8363C7.90691 30.2962 7.7707 29.7561 7.7707 29.081C7.7707 28.6759 7.77083 28.2708 7.90706 27.8657C7.6346 27.7307 7.22579 27.5956 6.95332 27.3256C6.40839 26.9205 6.13623 26.3803 6 25.5701V25.4351V25.3001C6.13623 24.2198 7.08953 23.0045 7.7707 22.1944L8.04343 21.7893C8.45213 21.2492 8.72442 20.8441 9.13312 20.3039C9.26936 20.1689 9.40586 19.8988 9.40586 19.7638C9.40586 19.4937 9.40586 19.2237 9.40586 18.9536C9.40586 18.6836 9.40586 18.4135 9.40586 18.1434C9.40586 17.8734 9.26949 17.7384 9.26949 17.4683C9.26949 17.3333 9.13312 17.0632 9.13312 16.9282C8.86065 16.253 9.13326 14.7677 9.26949 14.0925C9.40572 13.1473 9.81439 12.2021 10.0869 11.3919C11.313 8.42122 13.3567 6.26073 16.2176 4.91042C19.351 3.42508 22.8929 2.88496 26.2988 3.01999C29.8409 3.15502 33.3827 4.23527 36.2436 6.39577C39.1045 8.55626 41.1481 11.662 42.238 15.0377C43.4641 18.6836 43.1918 22.3294 41.5569 25.8402C40.1946 28.9459 38.015 31.7816 35.699 34.3472C35.5627 34.4822 35.2903 34.7522 35.2903 34.8873C35.1541 35.2923 35.2903 35.9675 35.2903 36.2376C35.5628 37.993 35.9713 39.7484 36.38 41.5038C36.9249 43.2592 37.4698 45.0146 38.0147 46.77C38.2872 47.7152 37.7423 48.6604 36.7887 48.9305C35.835 49.2005 34.8813 48.6604 34.6089 47.7152C34.0639 45.9598 33.5191 44.0694 32.9741 42.314C32.4292 40.4236 32.0205 38.5331 31.7481 36.6427C31.6118 35.6974 31.6118 34.7522 31.7481 33.942C32.0205 33.1319 32.4292 32.4567 32.9741 31.9166C35.0176 29.6211 37.0614 27.1905 38.2875 24.3549C39.5136 21.6542 39.6495 18.9536 38.8321 15.983C38.0147 13.2823 36.3799 10.8517 34.2002 9.09634C31.8842 7.34094 29.1597 6.5308 26.2988 6.39577C23.4379 6.26073 20.4408 6.66578 17.8523 7.88106C15.8088 8.96131 14.31 10.4467 13.3564 12.6072C13.0839 13.2823 12.8116 13.9575 12.6753 14.6326C12.6753 14.9027 12.539 15.4428 12.539 15.7129C12.6752 15.9829 12.6753 16.118 12.6753 16.388C12.8116 16.6581 12.8117 17.0632 12.8117 17.3332C12.8117 17.7383 12.9477 18.1434 12.9477 18.5485C12.9477 18.9536 12.9477 19.4938 12.9477 19.8989C12.8114 20.574 12.539 21.3842 12.1303 21.9243V22.0594C11.7216 22.5995 11.3129 23.2746 10.9042 23.8147V23.9498L10.6319 24.2198C10.4957 24.3549 10.3592 24.4899 10.3592 24.6249C10.4954 24.6249 10.768 24.76 10.9042 24.895C12.6753 25.9752 12.1303 27.1905 11.3129 28.6758V28.8109C11.3129 29.216 11.1767 28.6758 11.3129 28.9459C11.4492 29.0809 11.5852 29.351 11.5852 29.486C11.7215 29.7561 11.858 30.0262 11.858 30.2962C11.9942 30.7013 11.858 30.9714 11.858 31.3765C11.858 31.5115 11.7216 31.6465 11.7216 31.7815L11.858 31.9166C11.9942 32.1867 12.2664 32.3217 12.4026 32.5917C13.22 33.807 13.2203 34.6172 12.6753 35.8325C12.6753 35.8325 12.6752 35.9675 12.539 36.1025H12.6753C13.7652 36.7777 14.8552 36.9127 16.2176 36.9127C20.8495 37.0478 21.8028 38.8032 22.2115 43.5293C22.3477 44.7446 22.3479 45.9598 22.3479 47.1751C22.3479 48.1203 21.5304 48.9305 20.5768 48.9305C19.6231 48.9305 18.8056 48.1203 18.8056 47.1751C18.8056 46.0949 18.8059 45.0146 18.6697 43.7993C18.3972 41.5038 18.3972 40.5586 16.0812 40.4236C14.0377 40.4236 12.5389 40.1535 10.7679 39.0732C10.2229 38.6681 9.67819 38.263 9.26949 37.5879C8.99702 37.0478 8.86052 36.3726 8.99676 35.6975C8.86052 35.4274 8.99702 35.0223 9.26949 34.6172ZM28.4786 12.3371C29.296 12.6072 30.1132 13.1473 30.7943 13.6874L32.4291 12.7422C32.974 12.4721 33.6554 12.6072 33.9279 13.1473V13.2823L35.699 16.253C35.9714 16.7931 35.8352 17.4683 35.2903 17.7384L33.7915 18.6836V18.9536C33.9277 19.6288 33.9277 20.439 33.7915 21.1141V21.3842L35.2903 22.3294C35.8352 22.5995 35.9714 23.2746 35.699 23.8147L33.9279 26.7854C33.6554 27.3255 32.974 27.4606 32.4291 27.1905L30.9307 26.3803C30.2495 26.9205 29.4319 27.4606 28.6145 27.7306V29.216C28.6145 29.7561 28.0698 30.2962 27.5248 30.2962H23.9826C23.4377 30.2962 22.8929 29.8911 22.8929 29.216V27.4606C22.0755 27.1905 21.2579 26.6504 20.5768 26.1103L18.942 27.0555C18.3971 27.3255 17.7161 27.1905 17.4436 26.6504V26.5153L15.6725 23.5447C15.4001 23.0046 15.5363 22.3294 16.0812 22.0594L17.5796 21.1141C17.4433 20.1689 17.4433 19.3587 17.5796 18.4135L15.9448 17.4683C15.3999 17.1982 15.2637 16.5231 15.5362 15.983L17.3073 13.0123C17.5797 12.4721 18.2607 12.3371 18.8056 12.6072L20.3044 13.4174C20.9856 12.8773 21.8028 12.3371 22.6202 12.067V10.3116C22.6202 9.7715 23.0291 9.2314 23.7103 9.2314H27.2525C27.7975 9.2314 28.3422 9.7715 28.3422 10.3116L28.4786 12.3371ZM27.2525 14.2275C26.7076 14.0925 26.4351 13.6874 26.4351 13.1473V11.662H25.0727V13.1473C25.0727 13.6874 24.8003 14.0925 24.2553 14.2275C23.1655 14.4976 22.2117 15.0377 21.5305 15.8479C21.258 16.118 20.713 16.253 20.1681 15.983L18.8056 15.1727L18.1246 16.388L19.4871 17.1982C19.8958 17.4683 20.1684 17.8734 20.0321 18.4135C19.7596 19.4938 19.7596 20.574 20.0321 21.5192C20.1684 21.9243 20.032 22.4644 19.4871 22.7345L18.1246 23.5447L18.8056 24.7599L20.1681 23.9498C20.5768 23.6797 21.1218 23.8147 21.5305 24.0848C22.2117 24.895 23.1655 25.4351 24.2553 25.7052C24.664 25.8402 25.0727 26.2453 25.0727 26.7854V28.2708H26.4351V26.7854C26.4351 26.2453 26.7076 25.8402 27.2525 25.7052C28.3424 25.4351 29.2958 24.895 29.977 24.0848C30.2494 23.8147 30.7944 23.6797 31.3394 23.9498L32.7018 24.7599L33.3828 23.5447L32.0204 22.7345C31.6117 22.4644 31.3395 22.0593 31.4757 21.5192C31.7482 20.439 31.7482 19.3587 31.4757 18.4135C31.3395 18.0084 31.4754 17.4683 32.0204 17.1982L33.3828 16.388L32.7018 15.1727L31.3394 15.983C30.9307 16.253 30.3857 16.118 29.977 15.8479C29.1595 15.0377 28.2062 14.4976 27.2525 14.2275ZM25.7537 16.388C26.7074 16.388 27.5247 16.7931 28.2058 17.4683C28.887 18.1435 29.2959 18.9536 29.2959 20.0339V20.1689C29.2959 21.1141 28.887 21.9243 28.2058 22.5994C27.5247 23.2746 26.7072 23.6797 25.6174 23.6797H25.4814C24.5278 23.6797 23.5742 23.2746 23.0293 22.5994C22.3481 21.9243 21.9392 21.1141 21.9392 20.0339V19.8989C21.9392 18.9536 22.3481 18.0084 23.0293 17.4683C23.8467 16.6581 24.6638 16.388 25.7537 16.388ZM26.7075 18.8186C26.435 18.5485 26.1624 18.4135 25.7537 18.4135C25.345 18.4135 24.9365 18.5485 24.664 18.8186C24.3916 19.0886 24.2553 19.3587 24.2553 19.7638C24.2553 20.1689 24.3916 20.574 24.664 20.8441C24.9365 21.1141 25.2087 21.2491 25.6174 21.2491C26.0261 21.2491 26.435 21.1141 26.7075 20.8441C26.9799 20.574 27.1161 20.304 27.1161 19.8989C27.1161 19.4938 26.9799 19.0886 26.7075 18.8186Z" fill="#195084"/>
</svg>
