<svg width="50" height="50" viewBox="0 0 50 50" fill="none" xmlns="http://www.w3.org/2000/svg">
<path fill-rule="evenodd" clip-rule="evenodd" d="M19.9066 12.6133C20.4665 12.6133 21.0264 12.0536 21.0264 11.4937C21.0264 10.7939 20.4665 10.2341 19.9066 10.2341H18.3669C17.807 10.2341 17.2472 10.7939 17.2472 11.4937C17.2472 12.0536 17.807 12.6133 18.3669 12.6133H19.9066ZM24.3856 12.6133C25.0854 12.6133 25.6453 12.0536 25.6453 11.4937C25.6453 10.7939 25.0854 10.2341 24.3856 10.2341H22.9859C22.2861 10.2341 21.7262 10.7939 21.7262 11.4937C21.7262 12.0536 22.2861 12.6133 22.9859 12.6133H24.3856ZM40.2021 13.5932C40.2021 14.293 39.6422 14.8529 39.0824 14.8529C38.5225 14.8529 37.8226 14.293 37.8226 13.5932V12.6133H36.8429C36.283 12.6133 35.7231 12.0536 35.7231 11.4937C35.7231 10.7939 36.283 10.2341 36.8429 10.2341H38.9424H39.0824C39.5023 10.2341 39.9222 10.5137 40.0622 10.7936V10.9337V11.0738H40.2021V11.2135V11.3536V11.4937V11.6338V13.5932ZM11.9283 18.3521C11.9283 18.912 12.4882 19.4721 13.0481 19.4721C13.608 19.4721 14.1678 18.912 14.1678 18.3521V16.8126C14.1678 16.2528 13.608 15.6926 13.0481 15.6926C12.4882 15.6926 11.9283 16.2528 11.9283 16.8126V18.3521ZM40.2021 18.3521C40.2021 18.912 39.6422 19.4721 39.0824 19.4721C38.5225 19.4721 37.8226 18.912 37.8226 18.3521V16.8126C37.8226 16.2528 38.3825 15.6926 39.0824 15.6926C39.7822 15.6926 40.2021 16.2528 40.2021 16.8126V18.3521ZM21.5862 32.4891C21.3063 32.3492 21.0264 32.2092 20.7464 32.0692C20.3265 31.9293 19.9066 31.5093 19.9066 31.0893C19.7666 30.3895 19.6266 29.6896 19.3467 28.8498C19.0668 28.1499 18.6469 27.45 17.947 27.0301C17.3871 26.4702 16.6873 25.9107 15.8475 25.6308H15.7075C15.0077 25.2109 14.1678 25.0708 13.1881 25.0708C12.4882 25.0708 11.7884 25.2104 11.2285 25.2104C10.6686 25.3504 10.1087 25.7707 9.40888 26.0507C8.98898 26.3306 8.5691 26.7502 8.28916 27.0301V27.1702C7.86925 27.5901 7.58931 28.1501 7.30938 28.57C7.02944 28.9899 6.74945 29.1297 6.32954 29.2697C5.76966 29.4096 5.34978 29.4098 4.92987 29.8297C4.36999 29.9696 3.95011 30.3897 3.5302 30.8096C0.730812 33.8889 2.97032 38.7875 7.02943 38.7875H19.4867C22.9859 38.7875 24.1056 34.4487 21.5862 32.4891ZM19.6266 41.1671H7.16938C0.870759 41.1671 -2.34852 33.749 1.99053 29.13C2.55041 28.5701 3.1103 28.1501 3.81014 27.7302C4.37002 27.5902 4.78991 27.3102 5.48976 27.1702C5.7697 26.7503 6.04963 26.1903 6.46954 25.7704L6.60949 25.6308C7.02939 25.0709 7.58931 24.6509 8.28916 24.231C8.989 23.8111 9.82879 23.3911 10.6686 23.2511C11.0885 23.1111 11.5085 22.9713 12.0683 22.9713V21.7112C12.0683 21.1513 12.6282 20.5916 13.1881 20.5916C13.7479 20.5916 14.3078 21.1513 14.3078 21.7112V22.9713C15.1477 23.1113 15.9874 23.2509 16.6873 23.5309H16.8272C17.807 23.9508 18.9268 24.6507 19.6266 25.3505C20.4665 26.1904 21.0263 27.0302 21.4463 28.01C21.7262 28.7098 22.0061 29.5499 22.1461 30.3897C22.2861 30.5296 22.566 30.5295 22.706 30.6695C27.325 33.6088 25.2254 41.1671 19.6266 41.1671ZM47.4805 36.8281H30.5443V37.3881C30.5443 37.6681 30.6842 37.948 30.9642 38.2279C31.2441 38.5079 31.664 38.6478 32.0839 38.6478H45.9409C46.5008 38.6478 46.9207 38.5079 47.2006 38.2279C47.3406 38.0879 47.6205 37.6681 47.6205 37.3881V36.8281H47.4805ZM30.5443 34.4485H47.6205V24.9307C47.6205 24.6507 47.4805 24.3707 47.2006 23.9508C46.9207 23.8108 46.5008 23.5309 45.9409 23.5309H38.9424H31.9439C31.524 23.5309 31.1041 23.6708 30.8242 23.9508C30.6842 24.2307 30.4043 24.5108 30.4043 24.9307V34.4485H30.5443ZM28.0248 24.9307C28.0248 23.9509 28.5847 22.9711 29.2846 22.2712H29.4245C29.9844 21.7113 31.1041 21.2913 32.0839 21.2913H37.9626C38.1026 20.7314 38.5225 20.3119 39.0824 20.3119C39.6422 20.3119 40.0622 20.7314 40.2021 21.2913H45.9409C47.0606 21.2913 48.0404 21.5714 48.7403 22.2712C49.4401 22.9711 50 23.9509 50 24.9307V35.5685V35.7081V37.5278C50 38.5076 49.4401 39.4874 48.7403 40.1873C48.0404 40.8871 47.0606 41.1671 45.9409 41.1671H32.0839C31.1041 41.1671 30.1243 40.7471 29.4245 40.1873C28.7247 39.6274 28.1648 38.6476 28.1648 37.5278V24.9307H28.0248ZM28.7247 7.99449C28.1648 7.57459 28.1648 6.87481 28.7247 6.31493C29.1446 5.89502 29.8444 5.89502 30.4043 6.31493L34.6033 10.6539C35.1632 11.0739 35.1632 11.7736 34.6033 12.3335L30.4043 16.5324C29.8444 17.0923 29.1446 17.0923 28.7247 16.5324C28.1648 16.1125 28.1648 15.4127 28.7247 14.8529L30.9642 12.6133H27.6049C27.045 12.6133 26.4852 12.0536 26.4852 11.4937C26.4852 10.7939 27.045 10.2341 27.6049 10.2341H30.9642L28.7247 7.99449ZM11.9283 13.5932C11.9283 14.293 12.4882 14.8529 13.0481 14.8529C13.608 14.8529 14.1678 14.293 14.1678 13.5932V12.6133H15.1476C15.7075 12.6133 16.2674 12.0536 16.2674 11.4937C16.2674 10.7939 15.7075 10.2341 15.1476 10.2341H13.0481H12.9081C12.4882 10.2341 12.0683 10.5137 11.9283 10.7936V10.9337H11.7884V11.0738V11.2135V11.3536V11.4937V11.6338V13.5932H11.9283Z" fill="#195084"/>
</svg>
