<svg width="50" height="50" viewBox="0 0 50 50" fill="none" xmlns="http://www.w3.org/2000/svg">
<path fill-rule="evenodd" clip-rule="evenodd" d="M10.5 13C11.8807 13 13 11.8807 13 10.5C13 9.11929 11.8807 8 10.5 8C9.11929 8 8 9.11929 8 10.5C8 11.8807 9.11929 13 10.5 13ZM10.5 16C13.5376 16 16 13.5376 16 10.5C16 7.46243 13.5376 5 10.5 5C7.46243 5 5 7.46243 5 10.5C5 13.5376 7.46243 16 10.5 16Z" fill="#195084"/>
<path fill-rule="evenodd" clip-rule="evenodd" d="M24.5 13C25.8807 13 27 11.8807 27 10.5C27 9.11929 25.8807 8 24.5 8C23.1193 8 22 9.11929 22 10.5C22 11.8807 23.1193 13 24.5 13ZM24.5 16C27.5376 16 30 13.5376 30 10.5C30 7.46243 27.5376 5 24.5 5C21.4624 5 19 7.46243 19 10.5C19 13.5376 21.4624 16 24.5 16Z" fill="#195084"/>
<path fill-rule="evenodd" clip-rule="evenodd" d="M38.5 13C39.8807 13 41 11.8807 41 10.5C41 9.11929 39.8807 8 38.5 8C37.1193 8 36 9.11929 36 10.5C36 11.8807 37.1193 13 38.5 13ZM38.5 16C41.5376 16 44 13.5376 44 10.5C44 7.46243 41.5376 5 38.5 5C35.4624 5 33 7.46243 33 10.5C33 13.5376 35.4624 16 38.5 16Z" fill="#195084"/>
<path fill-rule="evenodd" clip-rule="evenodd" d="M38.5 27C39.8807 27 41 25.8807 41 24.5C41 23.1193 39.8807 22 38.5 22C37.1193 22 36 23.1193 36 24.5C36 25.8807 37.1193 27 38.5 27ZM38.5 30C41.5376 30 44 27.5376 44 24.5C44 21.4624 41.5376 19 38.5 19C35.4624 19 33 21.4624 33 24.5C33 27.5376 35.4624 30 38.5 30Z" fill="#195084"/>
<path fill-rule="evenodd" clip-rule="evenodd" d="M24.5 27C25.8807 27 27 25.8807 27 24.5C27 23.1193 25.8807 22 24.5 22C23.1193 22 22 23.1193 22 24.5C22 25.8807 23.1193 27 24.5 27ZM24.5 30C27.5376 30 30 27.5376 30 24.5C30 21.4624 27.5376 19 24.5 19C21.4624 19 19 21.4624 19 24.5C19 27.5376 21.4624 30 24.5 30Z" fill="#195084"/>
<path fill-rule="evenodd" clip-rule="evenodd" d="M10.5 27C11.8807 27 13 25.8807 13 24.5C13 23.1193 11.8807 22 10.5 22C9.11929 22 8 23.1193 8 24.5C8 25.8807 9.11929 27 10.5 27ZM10.5 30C13.5376 30 16 27.5376 16 24.5C16 21.4624 13.5376 19 10.5 19C7.46243 19 5 21.4624 5 24.5C5 27.5376 7.46243 30 10.5 30Z" fill="#195084"/>
<path fill-rule="evenodd" clip-rule="evenodd" d="M10.5 41C11.8807 41 13 39.8807 13 38.5C13 37.1193 11.8807 36 10.5 36C9.11929 36 8 37.1193 8 38.5C8 39.8807 9.11929 41 10.5 41ZM10.5 44C13.5376 44 16 41.5376 16 38.5C16 35.4624 13.5376 33 10.5 33C7.46243 33 5 35.4624 5 38.5C5 41.5376 7.46243 44 10.5 44Z" fill="#195084"/>
<path fill-rule="evenodd" clip-rule="evenodd" d="M24.5 41C25.8807 41 27 39.8807 27 38.5C27 37.1193 25.8807 36 24.5 36C23.1193 36 22 37.1193 22 38.5C22 39.8807 23.1193 41 24.5 41ZM24.5 44C27.5376 44 30 41.5376 30 38.5C30 35.4624 27.5376 33 24.5 33C21.4624 33 19 35.4624 19 38.5C19 41.5376 21.4624 44 24.5 44Z" fill="#195084"/>
</svg>
