<svg width="50" height="50" viewBox="0 0 50 50" fill="none" xmlns="http://www.w3.org/2000/svg">
<path fill-rule="evenodd" clip-rule="evenodd" d="M45.3025 37.8148C43.7085 39.4088 41.5014 40.5124 39.0491 40.5124H38.9264H14.6485C11.4605 40.5124 8.51772 39.1636 6.43325 37.0791C4.34878 34.9947 3 32.0517 3 28.8637C3 25.7983 4.22616 22.9782 6.18801 20.8937C7.90463 18.9319 10.2343 17.7056 12.9319 17.3378C14.1581 15.0081 15.8747 12.9236 18.2044 11.5748C20.5341 9.98082 23.4768 9 26.5422 9C30.8338 9 34.6349 10.7164 37.4551 13.414C39.9074 15.9889 41.5014 19.1769 41.8692 22.978C43.4632 23.4685 44.812 24.4494 45.9155 25.6756C47.1417 27.2696 48 29.2314 48 31.4385C48 33.8908 47.0191 36.0982 45.3025 37.8148ZM27.0327 27.1469C26.5422 27.6374 25.9292 27.6374 25.4387 27.1469C25.0708 26.7791 25.0708 26.166 25.4387 25.6756L29.2398 21.9972V21.8745H29.3624L29.485 21.7521L29.6076 21.6294C29.7302 21.6294 29.8529 21.5067 30.0981 21.5067C30.3433 21.5067 30.4659 21.6294 30.5886 21.6294L30.7112 21.7521L30.8338 21.8745L30.9564 21.9972L34.6349 25.6756C35.1253 26.166 35.1253 26.7791 34.6349 27.1469C34.267 27.6374 33.654 27.6374 33.1635 27.1469L31.2016 25.1854V31.1934C31.2016 31.6839 30.7112 32.2969 30.0981 32.2969C29.6076 32.2969 29.1172 31.8065 29.1172 31.1934V25.1854L27.0327 27.1469ZM14.8937 28.0053C14.5259 27.6375 14.5259 27.0244 14.8937 26.534C15.3842 26.1661 15.9973 26.1661 16.4877 26.534L18.4496 28.6186V22.4878C18.4496 21.9973 18.9401 21.5067 19.4305 21.5067C20.0436 21.5067 20.5341 21.9973 20.5341 22.4878V28.6186L22.4959 26.534C22.9864 26.1661 23.5995 26.1661 23.9673 26.534C24.4578 27.0244 24.4578 27.6375 23.9673 28.0053L20.2888 31.8064H20.1662V31.9291L20.0436 32.0518H19.921C19.7984 32.1744 19.5531 32.1742 19.4305 32.1742C19.3079 32.1742 19.1853 32.0518 18.9401 32.0518H18.8174V31.9291L14.8937 28.0053ZM38.9264 36.9564C40.5204 36.9564 41.8692 36.3432 42.8501 35.3623C43.8311 34.3814 44.4442 33.0325 44.4442 31.4385C44.4442 30.0898 43.9537 28.8639 43.218 27.8829C42.3597 26.902 41.2561 26.2889 39.9074 25.921C39.049 25.7984 38.436 25.0627 38.436 24.327C38.436 21.0163 37.0872 18.0735 35.0027 15.8665C32.7956 13.782 29.8529 12.4332 26.5422 12.4332C24.2125 12.4332 21.8829 13.169 20.0436 14.3951C18.0818 15.6213 16.6104 17.4604 15.6294 19.6675C15.3842 20.2806 14.7711 20.6483 14.0354 20.6483C11.951 20.7709 9.98911 21.7518 8.64034 23.3458C7.29157 24.8172 6.31063 26.6566 6.31063 28.8637C6.31063 31.1934 7.16895 33.1553 8.76296 34.6267C10.2343 36.098 12.1962 36.9564 14.5259 36.9564H38.9264Z" fill="#195084"/>
</svg>
