<svg width="50" height="50" viewBox="0 0 50 50" fill="none" xmlns="http://www.w3.org/2000/svg">
<path d="M20.6002 16.5944L16.4729 20.7217L24.4848 28.7336L28.612 24.6059L20.6002 16.5944ZM15.1377 19.2647L19.265 15.1374L16.5944 12.4667L12.4671 16.5944L15.1377 19.2647ZM17.8084 9.1893L27.1554 18.5363L28.3694 17.2012L28.4905 17.0797L25.6988 14.2879C25.0918 13.681 25.0918 12.7098 25.6988 11.9814L33.225 4.45522C33.8319 3.84826 34.8031 3.84826 35.5315 4.45522C38.0807 7.00444 40.63 9.55336 43.1792 12.1026C43.7862 12.7095 43.7862 13.6807 43.1792 14.4091L35.653 21.9353C35.046 22.5422 34.0749 22.5422 33.3465 21.9353L33.225 21.8141L30.5544 19.1435L30.4328 19.2647L29.2192 20.6002L31.8895 23.2708C32.4964 23.8777 32.4964 24.8489 31.8895 25.5773L25.5773 31.8895C24.9703 32.4964 23.9991 32.4964 23.2708 31.8895L20.6002 29.2189L19.3862 30.4328L19.265 30.5544L22.0568 33.225C22.6638 33.8319 22.6638 34.8031 22.0568 35.5315L14.5306 43.0577C13.9236 43.6646 12.9524 43.6646 12.2241 43.0577L12.103 42.9362C9.55373 40.387 7.00444 37.8377 4.45522 35.2884C3.84826 34.6815 3.84826 33.7103 4.45522 32.982L11.9814 25.4557C12.5884 24.8488 13.5596 24.8488 14.2879 25.4557L14.4094 25.5773L17.0801 28.2479L17.2012 28.1264L18.4152 26.9124L9.06816 17.5654C8.4612 16.9584 8.4612 15.9872 9.06816 15.2589L15.3804 8.94665C16.1087 8.58248 17.2014 8.58234 17.8084 9.1893ZM13.1954 29.0977L7.85417 34.4386C9.67505 36.2595 11.4957 38.0805 13.3166 39.9014L18.6578 34.5601L13.1954 29.0977ZM34.5601 18.6578L39.9014 13.3166C38.0805 11.4957 36.2599 9.67505 34.439 7.85417L29.0977 13.1951L34.5601 18.6578ZM40.8727 22.1783C40.6299 21.6927 40.7512 21.0856 41.1154 20.8428C41.6009 20.6 42.2081 20.7216 42.4509 21.0858C42.5723 21.2072 43.5434 23.0281 43.5434 23.0281C44.5145 25.0918 45 27.2768 45 29.4619C45 31.5255 44.6357 33.5891 43.786 35.41C42.2079 39.1731 39.1731 42.2079 35.41 43.786C33.5891 44.5144 31.6469 45 29.4619 45C27.2768 45 24.9704 44.5141 23.0281 43.543C22.4212 43.3002 21.6928 42.9361 21.0858 42.4505C20.6003 42.2077 20.479 41.6009 20.8432 41.1154C21.086 40.6298 21.6927 40.5086 22.1783 40.8727C22.6639 41.2369 23.271 41.4795 23.878 41.8437C25.6988 42.6934 27.6411 43.0577 29.5834 43.0577C31.4043 43.0577 33.225 42.6933 34.8031 42.0863C38.0807 40.751 40.7514 38.0807 42.0867 34.8031C42.6937 33.225 43.0577 31.5253 43.0577 29.583C43.0577 26.9124 42.3294 24.3634 40.8727 22.1783ZM36.0171 26.7912C35.7743 26.3057 36.0169 25.6986 36.5024 25.5773C36.988 25.3345 37.595 25.5774 37.7164 26.0629C37.8378 26.3057 37.9591 26.5482 37.9591 26.9124C38.0805 27.5193 38.2022 28.0051 38.3236 28.612C38.3236 28.8548 38.3236 29.2191 38.3236 29.4619C38.3236 30.6758 38.0805 31.7683 37.5949 32.8608C37.1093 33.9534 36.5027 34.9244 35.653 35.7741C34.8032 36.6239 33.8318 37.2309 32.7393 37.7164C30.7971 38.4448 28.7335 38.566 26.7912 37.9591C26.5485 37.8377 26.1842 37.7164 25.9414 37.7164C25.4558 37.4736 25.213 36.988 25.4557 36.5024C25.6985 36.0169 26.1842 35.774 26.6697 36.0168C28.3692 36.7451 30.3115 36.7451 32.011 36.0168C32.8607 35.6526 33.5891 35.1671 34.3175 34.5601C34.9244 33.9532 35.5314 33.1034 35.8956 32.2536C36.2598 31.4039 36.3813 30.5542 36.3813 29.583C36.3813 29.3402 36.3813 29.0975 36.3813 28.8547C36.3813 28.1263 36.2599 27.5196 36.0171 26.7912Z" fill="#195084"/>
</svg>
