<svg width="50" height="50" viewBox="0 0 50 50" fill="none" xmlns="http://www.w3.org/2000/svg">
<path fill-rule="evenodd" clip-rule="evenodd" d="M27.1214 37.5358C26.6727 37.9846 26.2239 38.2089 25.5508 38.2089C24.9898 38.2089 24.4288 37.9846 23.9801 37.5358C23.5313 37.087 23.3068 36.5262 23.3068 35.9653C23.3068 35.4043 23.5313 34.8432 23.9801 34.3944H24.0922C24.541 33.9457 24.9898 33.7213 25.5508 33.7213C26.2239 33.7213 26.6727 33.9457 27.1214 34.3944L27.2336 34.5067C27.5702 34.8433 27.7946 35.4043 27.7946 35.9653C27.7946 36.5262 27.458 37.087 27.1214 37.5358ZM28.4677 33.1605C27.6824 32.3751 26.6727 31.8142 25.4385 31.8142C24.3166 31.8142 23.3069 32.2627 22.6337 32.9359L22.5215 33.0482C21.7362 33.8335 21.3996 34.8434 21.3996 35.9653C21.3996 37.0872 21.8483 38.0967 22.5215 38.8821C23.3068 39.6674 24.3166 40.1164 25.4385 40.1164C26.5605 40.1164 27.5702 39.6674 28.3556 38.8821C29.1409 38.0967 29.5897 37.0872 29.5897 35.9653C29.7019 34.8434 29.253 33.8336 28.4677 33.1605ZM22.0727 19.2483H28.9165C29.4774 19.2483 29.9263 18.7996 29.9263 18.2387C29.9263 17.7899 29.4774 17.3413 28.9165 17.3413H22.0727C21.6239 17.3413 21.1752 17.7899 21.1752 18.2387C21.1752 18.7996 21.6239 19.2483 22.0727 19.2483ZM22.0727 14.9853H28.9165C29.4774 14.9853 29.9263 14.5363 29.9263 14.0876C29.9263 13.6388 29.4774 13.0779 28.9165 13.0779H22.0727C21.6239 13.0779 21.1752 13.5266 21.1752 14.0876C21.1752 14.6485 21.6239 14.9853 22.0727 14.9853ZM41.1455 36.4138C40.8089 36.6382 40.3602 36.8627 40.0236 36.8627C39.5748 36.8627 39.2382 36.6382 38.9016 36.4138V36.3019C38.565 36.0775 38.4528 35.6286 38.4528 35.1799C38.4528 34.7311 38.6772 34.2822 38.9016 34.0579C39.2382 33.7213 39.687 33.609 40.0236 33.609C40.4724 33.609 40.8089 33.7213 41.1455 34.0579C41.4821 34.3944 41.5943 34.8433 41.5943 35.1799C41.5943 35.5164 41.4821 36.0772 41.1455 36.4138ZM42.4918 32.8239C41.8186 32.1507 41.0333 31.7019 40.0236 31.7019C39.0139 31.7019 38.2285 32.1507 37.5554 32.8239C36.8822 33.4971 36.5456 34.2824 36.5456 35.2922C36.5456 36.1897 36.8822 37.0873 37.4431 37.7604L37.5554 37.8724C38.2285 38.4333 39.0139 38.8821 40.0236 38.8821C41.0333 38.8821 41.8186 38.4333 42.4918 37.8724C43.1649 37.1992 43.6138 36.4139 43.6138 35.4041C43.6138 34.3944 43.1649 33.4971 42.4918 32.8239ZM22.0727 23.5117H28.9165C29.4774 23.5117 29.9263 23.0631 29.9263 22.6143C29.9263 22.0534 29.4774 21.6046 28.9165 21.6046H22.0727C21.6239 21.6046 21.1752 22.0534 21.1752 22.6143C21.1752 23.1753 21.6239 23.5117 22.0727 23.5117ZM37.2188 18.351H42.7162C43.2772 18.351 43.7259 17.9023 43.7259 17.4536C43.7259 16.8926 43.2772 16.4435 42.7162 16.4435H37.2188C36.6578 16.4435 36.209 16.8926 36.209 17.4536C36.209 18.0145 36.6578 18.351 37.2188 18.351ZM37.2188 25.4191H42.7162C43.2772 25.4191 43.7259 24.9704 43.7259 24.4095C43.7259 23.8485 43.2772 23.5117 42.7162 23.5117H37.2188C36.6578 23.5117 36.209 23.9607 36.209 24.4095C36.209 24.8582 36.6578 25.4191 37.2188 25.4191ZM37.2188 21.8289H42.7162C43.2772 21.8289 43.7259 21.3802 43.7259 20.8192C43.7259 20.3704 43.2772 19.9218 42.7162 19.9218H37.2188C36.6578 19.9218 36.209 20.3704 36.209 20.8192C36.209 21.4924 36.6578 21.8289 37.2188 21.8289ZM12.1998 36.4138C11.9754 36.6382 11.5267 36.8627 11.0779 36.8627C10.6291 36.8627 10.2926 36.6382 9.95598 36.4138L9.84376 36.3019C9.61937 36.0775 9.39498 35.6286 9.39498 35.1799C9.39498 34.7311 9.50718 34.2822 9.84376 34.0579C10.0681 33.7213 10.5169 33.609 10.9657 33.609C11.4144 33.609 11.8632 33.7213 12.0876 34.0579H12.1998C12.4242 34.3944 12.6486 34.8433 12.6486 35.1799C12.6486 35.5164 12.5364 36.0772 12.1998 36.4138ZM13.5461 32.8239C12.873 32.1507 11.9754 31.7019 10.9657 31.7019C10.0681 31.7019 9.17057 32.1507 8.49742 32.8239C7.82426 33.4971 7.37551 34.2824 7.37551 35.2922C7.37551 36.1897 7.82424 37.0873 8.3852 37.7604L8.49742 37.8724C9.05838 38.4333 9.95594 38.8821 10.9657 38.8821C11.9754 38.8821 12.873 38.4333 13.5461 37.8724C14.1071 37.1992 14.5558 36.4139 14.5558 35.4041C14.5558 34.3944 14.2193 33.4971 13.5461 32.8239ZM8.27307 18.351H13.8827C14.3315 18.351 14.7803 17.9023 14.7803 17.4536C14.7803 16.8926 14.3315 16.4435 13.8827 16.4435H8.27307C7.8243 16.4435 7.37551 16.8926 7.37551 17.4536C7.37551 18.0145 7.71211 18.351 8.27307 18.351ZM44.8478 40.5652H34.9749V12.8536H44.8478V40.5652ZM31.9457 42.8089H19.1558V8.14138H31.9457V42.8089ZM16.0143 40.5652H6.14138V12.8536H16.0143V40.5652ZM46.4186 9.71224H34.9749V6.57086C34.9749 5.67332 34.3017 5 33.4042 5H17.4729C16.6875 5 16.0143 5.67332 16.0143 6.57086V9.71224H4.57069C3.67315 9.71224 3 10.4974 3 11.2828V42.1357C3 42.9211 3.67315 43.7066 4.57069 43.7066H16.0143V44.3797C16.0143 45.2773 16.6875 45.9503 17.4729 45.9503H33.4042C34.3017 45.9503 34.9749 45.2773 34.9749 44.3797V43.7066H46.4186C47.2039 43.7066 47.9893 42.9211 47.9893 42.1357V11.2828C48.1015 10.4974 47.3161 9.71224 46.4186 9.71224ZM8.27307 21.8289H13.8827C14.3315 21.8289 14.7803 21.3802 14.7803 20.8192C14.7803 20.3704 14.3315 19.9218 13.8827 19.9218H8.27307C7.8243 19.9218 7.37551 20.3704 7.37551 20.8192C7.37551 21.4924 7.71211 21.8289 8.27307 21.8289ZM8.27307 25.4191H13.8827C14.3315 25.4191 14.7803 24.9704 14.7803 24.4095C14.7803 23.8485 14.3315 23.5117 13.8827 23.5117H8.27307C7.8243 23.5117 7.37551 23.9607 7.37551 24.4095C7.37551 24.8582 7.71211 25.4191 8.27307 25.4191Z" fill="#195084"/>
</svg>
