<svg width="50" height="50" viewBox="0 0 50 50" fill="none" xmlns="http://www.w3.org/2000/svg">
<path d="M47.3399 11.9242C47.4719 12.1952 47.6038 12.6015 47.7358 13.008C47.8678 13.6855 48 14.2277 48 14.9052V43.3602C48 45.1217 47.208 46.8833 46.1523 48.1028C44.9646 49.3223 43.381 50 41.5335 50H9.46614C7.61863 50 6.03498 49.1868 4.8473 48.1028C3.65961 46.8833 3 45.2572 3 43.3602V14.9052C3 13.0082 3.79158 11.3821 4.8473 10.1626C6.03498 8.94308 7.61863 8.26538 9.46614 8.26538H25.0379C25.5657 6.50386 26.6217 4.87776 27.8094 3.52275V3.38753C29.9209 1.35501 32.6919 0 35.8591 0C39.0262 0 41.7977 1.35501 43.9091 3.38753C46.0206 5.69105 47.3399 8.53665 47.3399 11.9242ZM35.8591 6.09731C37.4426 6.09731 38.7625 6.77475 39.8183 7.72326C40.874 8.80727 41.4018 10.1625 41.4018 11.7885C41.4018 13.4146 40.742 14.7694 39.8183 15.8534C38.7625 16.9374 37.4426 17.4794 35.8591 17.4794C34.2755 17.4794 32.956 16.8019 31.9003 15.8534C30.8446 14.7694 30.3168 13.4146 30.3168 11.7885C30.3168 10.1625 30.9765 8.80727 31.9003 7.72326C32.956 6.77475 34.2755 6.09731 35.8591 6.09731ZM38.3664 9.34962C37.7066 8.67211 36.9148 8.26538 35.8591 8.26538C34.9353 8.26538 34.0115 8.67211 33.3517 9.34962C32.6919 10.0271 32.2962 10.9757 32.2962 11.9242C32.2962 12.8727 32.6919 13.8208 33.3517 14.4983C34.0115 15.1758 34.8034 15.5826 35.8591 15.5826C36.7828 15.5826 37.7066 15.1758 38.3664 14.4983C39.0263 13.8208 39.4224 13.0082 39.4224 11.9242C39.4224 10.8402 39.0263 10.0271 38.3664 9.34962ZM24.5103 11.7885H9.46614C8.67435 11.7885 7.88252 12.0596 7.35466 12.7372C6.8268 13.2792 6.43121 14.0922 6.43121 14.9052V43.3602C6.43121 44.1732 6.8268 44.9862 7.35466 45.5282C7.88252 46.0702 8.67435 46.4768 9.46614 46.4768H41.5335C42.3252 46.4768 43.1171 46.0702 43.6449 45.5282C44.1728 44.9862 44.5688 44.1732 44.5688 43.3602V19.5122C43.3811 20.8672 41.9297 22.0866 40.2141 22.7641L36.7829 27.1003C36.387 27.5068 35.7274 27.642 35.3315 27.2355L35.1994 27.1003L31.7682 22.7641C29.6568 21.9511 27.9414 20.4606 26.6218 18.5636C25.1702 16.5311 24.5103 14.2276 24.5103 11.7885ZM42.4573 5.01348C40.7418 3.25196 38.4984 2.16807 35.8591 2.16807C33.3517 2.16807 30.9764 3.25183 29.2608 4.87785C27.5453 6.63936 26.4897 8.94288 26.4897 11.6529C26.4897 13.6854 27.1496 15.5824 28.2053 17.0729C29.261 18.6989 30.8444 19.9185 32.56 20.596C32.6919 20.596 32.8239 20.7314 32.9558 20.8669L35.8591 24.3901L38.6306 20.8669C38.7626 20.7314 38.8945 20.596 39.0265 20.596C40.874 19.9185 42.3254 18.6989 43.3812 17.0729C44.4369 15.5824 44.9647 13.6854 44.9647 11.6529C45.2286 9.07839 44.1728 6.775 42.4573 5.01348ZM28.865 25.3387C29.2609 24.9322 29.9209 24.9322 30.3168 25.3387C30.7127 25.7452 30.7127 26.4225 30.3168 26.829L27.4135 29.81L33.3517 35.9078L39.9499 29.1327C40.3458 28.7262 41.0059 28.7262 41.4018 29.1327C41.7977 29.5392 41.7977 30.2165 41.4018 30.623L34.8035 37.3981L37.0467 39.7018C37.4426 40.1083 37.4426 40.7856 37.0467 41.1921C36.6508 41.5986 35.9912 41.5986 35.5953 41.1921L32.692 38.211L26.0938 31.436L14.085 43.7666C13.6891 44.1731 13.0295 44.1731 12.6336 43.7666C12.2377 43.3601 12.2377 42.6828 12.6336 42.2763L24.5103 29.9457L19.6277 24.9322L11.5776 33.1976C11.1817 33.6041 10.5221 33.6041 10.1262 33.1976C9.73031 32.7911 9.73031 32.1138 10.1262 31.7072L18.1759 23.4415L13.1611 18.2928C12.7652 17.8862 12.7652 17.2085 13.1611 16.802C13.557 16.3955 14.2171 16.3955 14.613 16.802L20.4194 22.7641L26.0938 28.5906L28.865 25.3387Z" fill="#195084"/>
</svg>
