<svg width="50" height="50" viewBox="0 0 50 50" fill="none" xmlns="http://www.w3.org/2000/svg">
<path fill-rule="evenodd" clip-rule="evenodd" d="M30.4395 29.0355C28.9132 30.6006 26.8419 31.6067 24.4434 31.6067C22.154 31.6067 19.9735 30.6006 18.5562 29.0355H18.4471C16.9208 27.4704 16.0486 25.3463 16.0486 22.9986C16.0486 20.5392 17.0299 18.4151 18.5562 16.85C19.9735 15.2849 22.154 14.3906 24.4434 14.3906C26.7329 14.3906 28.9132 15.2849 30.4395 16.85C31.9658 18.4151 32.8379 20.5392 32.8379 22.9986C32.947 25.3463 32.0748 27.5822 30.4395 29.0355ZM24.5522 12.4901C21.7177 12.4901 19.1014 13.608 17.248 15.5085C15.5037 17.409 14.3042 20.092 14.3042 22.9986C14.3042 25.9053 15.3947 28.4765 17.248 30.377V30.4887C19.1014 32.3892 21.7177 33.5071 24.5522 33.5071C27.3868 33.5071 30.0034 32.3892 31.8568 30.4887C33.7102 28.5883 34.8002 25.9053 34.8002 22.9986C34.8002 20.092 33.7102 17.409 31.8568 15.5085C30.0034 13.608 27.2778 12.4901 24.5522 12.4901ZM36.4355 31.3831C34.8002 33.8425 32.5108 35.743 29.6762 36.8609C29.5672 36.9727 29.2403 36.9727 29.1313 37.1963L24.4434 42.227L19.7553 37.1963C19.6463 37.0845 19.3193 36.8609 19.2103 36.7491C16.4848 35.6312 14.0864 33.7307 12.4511 31.3831C10.9248 28.9237 9.94345 26.1288 9.94345 22.9986C9.94345 18.9741 11.5789 15.1731 14.1954 12.4901C16.8119 9.80709 20.4096 8.1302 24.3343 8.1302C28.3681 8.1302 31.9658 9.80709 34.5823 12.4901C37.1988 15.1731 38.834 18.9741 38.834 22.9986C38.943 26.017 38.0708 28.9237 36.4355 31.3831ZM36.9808 10.2543C33.7102 6.90047 29.3492 5 24.5522 5C19.7553 5 15.2856 7.01226 12.124 10.2543C8.96239 13.4962 7 17.968 7 22.9986C7 26.6878 8.0902 30.2652 10.0526 33.1718C12.015 36.0784 14.6315 38.3142 17.9021 39.6557L23.3532 45.5808H23.462C24.0071 46.1397 24.9884 46.1397 25.6425 45.5808L31.2027 39.6557C34.3643 38.3142 37.0897 36.0784 38.9431 33.1718C40.9055 30.2652 41.9957 26.7996 41.9957 22.9986C42.1047 17.968 40.1424 13.4962 36.9808 10.2543Z" fill="#195084"/>
</svg>
