<svg width="50" height="50" viewBox="0 0 50 50" fill="none" xmlns="http://www.w3.org/2000/svg">
<path fill-rule="evenodd" clip-rule="evenodd" d="M38.7122 15.8791C38.1029 14.5494 37.1279 13.2195 36.031 12.2525V12.1319C33.7154 9.83514 30.5469 8.50524 27.1344 8.50524C23.7219 8.50524 20.553 9.83514 18.2374 12.1319C17.1405 13.3407 16.2874 14.5494 15.5562 15.8791C15.678 15.7582 16.0439 15.3956 16.1658 15.1538C18.9689 12.4945 22.8687 10.802 27.0124 10.802C31.278 10.802 35.1782 12.4945 37.8594 15.1538H37.981C38.2248 15.3956 38.4685 15.6373 38.7122 15.8791ZM41.5155 26.8792H39.9311C39.8092 26.8792 39.8093 26.8789 39.6875 26.9998C39.6875 27.1207 39.5655 27.1208 39.5655 27.1208V27.2418V30.6264V33.89C39.5655 34.0109 39.5656 34.0108 39.6875 34.1317L39.8091 34.2527H39.9311H41.5155H43.0999H43.2219C43.3438 34.2527 43.3435 34.1317 43.3435 34.1317L43.4655 34.011C43.4655 33.8902 43.4655 33.89 43.4655 33.89V30.6264V27.2418V27.1208C43.4655 26.9999 43.3435 26.9998 43.3435 26.9998C43.2217 26.9998 43.2219 26.8792 43.2219 26.8792H43.3435C43.2217 26.8792 43.2219 26.8792 43.2219 26.8792H41.5155ZM12.8749 26.8792H11.2905C11.1686 26.8792 11.1687 26.8789 11.0469 26.9998C11.0469 27.1207 10.9249 27.1208 10.9249 27.1208V27.2418V30.6264V33.89C10.9249 34.0109 10.925 34.0108 11.0469 34.1317L11.1689 34.2527H11.2905H12.8749H14.4593H14.5813C14.7032 34.2527 14.703 34.1317 14.703 34.1317L14.8249 34.011C14.8249 33.8902 14.8249 33.89 14.8249 33.89V30.6264V27.2418V27.1208C14.8249 26.9999 14.703 26.9998 14.703 26.9998C14.5811 26.9998 14.5813 26.8792 14.5813 26.8792H14.703C14.5811 26.8792 14.5813 26.8792 14.5813 26.8792H12.8749ZM27.1344 44.4065C26.4031 44.4065 25.9156 45.0111 25.9156 45.7364C25.9156 46.4617 26.4031 47.0659 27.1344 47.0659C27.9875 47.0659 28.4748 46.4617 28.4748 45.7364C28.4748 45.0111 27.9875 44.4065 27.1344 44.4065ZM11.1689 23.4946V20.9558C11.1689 16.6042 12.9968 12.6152 15.9218 9.71411V9.59312C18.8468 6.81288 22.8685 5 27.256 5C31.6435 5 35.7875 6.813 38.5906 9.71411C41.5156 12.6152 43.3435 16.4833 43.3435 20.9558V23.4946C43.831 23.4946 44.1969 23.6153 44.6844 23.7362C45.1719 23.8571 45.5372 24.2198 45.9028 24.5824C46.2684 24.9451 46.5123 25.4287 46.756 25.7913V25.9119C46.8779 26.3955 47 26.7583 47 27.2418V30.6264V33.89C47 34.3736 46.8779 34.857 46.756 35.3405C46.6341 35.8241 46.2684 36.1868 45.9028 36.5494C45.5372 36.9121 45.05 37.1539 44.6844 37.3957L44.5624 37.5167C44.0749 37.6375 43.7094 37.6373 43.2219 37.6373H42.6123C42.3686 39.934 41.0281 41.7472 38.9562 43.3186C36.7625 44.8901 33.8372 45.9782 30.6685 46.5826C30.181 48.0332 28.8405 49 27.378 49C25.5499 49 24.0875 47.4287 24.0875 45.7364C24.0875 43.8023 25.6718 42.4724 27.378 42.4724C28.8405 42.4724 30.0591 43.3188 30.6685 44.6485C33.4716 44.165 36.0313 43.0768 37.8594 41.7471C39.4438 40.6592 40.5405 39.2088 40.7843 37.7583H40.2967C39.8092 37.7583 39.3217 37.6375 38.8342 37.5167C38.3467 37.3958 37.981 37.033 37.6154 36.6704C37.006 35.9451 36.5186 35.099 36.5186 34.011V30.7471V27.3624C36.5186 26.8789 36.6403 26.3955 36.7622 25.9119C36.8841 25.4284 37.2498 25.0657 37.6154 24.7031C38.3467 24.0987 39.1998 23.6152 40.2967 23.6152V21.9231C39.6873 19.989 38.4687 18.2965 37.0062 16.846C34.6906 14.4284 31.2779 12.8571 27.6216 12.8571C23.9654 12.8571 20.6749 14.4284 18.2374 16.846C16.8968 18.2965 15.6779 19.989 15.0686 21.9231V23.6152C15.5561 23.6152 15.9219 23.7363 16.4094 23.8572C16.8969 23.9781 17.2626 24.3404 17.6282 24.7031C17.9938 25.0657 18.2373 25.5493 18.481 25.9119V26.0329C18.6029 26.5165 18.725 26.8789 18.725 27.3624V30.7471V34.011C18.725 34.4946 18.6029 34.978 18.481 35.4615C18.3592 35.9451 17.9938 36.3078 17.6282 36.6704C17.2626 37.033 16.775 37.2749 16.4094 37.5167L16.2874 37.6373C15.7999 37.7582 15.4344 37.7583 14.9469 37.7583H13.3625H11.7781C11.2906 37.7583 10.8031 37.6375 10.3156 37.5167C9.82815 37.3958 9.46245 37.033 9.09683 36.6704C8.48745 35.9451 8 35.099 8 34.011V30.7471V27.3624C8 26.8789 8.12174 26.3955 8.24362 25.9119C8.36549 25.4284 8.7312 25.0657 9.09683 24.7031C9.2187 23.8569 10.1939 23.4946 11.1689 23.4946Z" fill="#195084"/>
</svg>
