<svg width="37" height="36" viewBox="0 0 37 36" fill="none" xmlns="http://www.w3.org/2000/svg">
<path d="M11.9865 20.3469L11.2033 23.2707L8.34072 23.3312C7.48524 21.7445 7 19.9291 7 17.9999C7 16.1344 7.45369 14.3752 8.25788 12.8262H8.2585L10.807 13.2934L11.9233 15.8266C11.6897 16.5078 11.5623 17.239 11.5623 17.9999C11.5624 18.8257 11.712 19.617 11.9865 20.3469Z" fill="#FBBC05"/>
<path d="M29.3041 15.8984C29.4333 16.579 29.5007 17.2818 29.5007 18.0001C29.5007 18.8055 29.416 19.5911 29.2546 20.349C28.707 22.9278 27.276 25.1796 25.2937 26.7732L25.2931 26.7726L22.0832 26.6088L21.6289 23.7728C22.9442 23.0014 23.9722 21.7942 24.5137 20.349H18.498V15.8984H24.6014H29.3041Z" fill="#4285F4"/>
<path d="M25.2914 26.7726L25.292 26.7732C23.3641 28.3229 20.915 29.2501 18.2491 29.2501C13.9648 29.2501 10.24 26.8554 8.33984 23.3315L11.9856 20.3472C12.9356 22.8827 15.3816 24.6877 18.2491 24.6877C19.4816 24.6877 20.6363 24.3545 21.6271 23.7728L25.2914 26.7726Z" fill="#34A853"/>
<path d="M25.4385 9.33995L21.794 12.3236C20.7685 11.6827 19.5564 11.3124 18.2577 11.3124C15.3253 11.3124 12.8336 13.2001 11.9311 15.8266L8.26624 12.8262H8.26562C10.138 9.21633 13.9098 6.75 18.2577 6.75C20.9873 6.75 23.4901 7.72233 25.4385 9.33995Z" fill="#EA4335"/>
</svg>
