<svg width="37" height="36" viewBox="0 0 37 36" fill="none" xmlns="http://www.w3.org/2000/svg">
<path d="M15.7269 19.4502C15.6424 19.4502 13.7838 19.4502 12.939 19.4502C12.4885 19.4502 12.3477 19.2813 12.3477 18.8589C12.3477 17.7325 12.3477 16.5779 12.3477 15.4515C12.3477 15.0009 12.5166 14.8601 12.939 14.8601H15.7269C15.7269 14.7757 15.7269 13.1424 15.7269 12.382C15.7269 11.2556 15.924 10.1855 16.4872 9.19994C17.0786 8.18617 17.9234 7.51033 18.9935 7.11608C19.6975 6.86264 20.4015 6.75 21.1618 6.75H23.9215C24.3157 6.75 24.4847 6.91896 24.4847 7.3132V10.5235C24.4847 10.9177 24.3157 11.0867 23.9215 11.0867C23.1612 11.0867 22.4008 11.0867 21.6405 11.1148C20.8802 11.1148 20.4859 11.4809 20.4859 12.2694C20.4578 13.1142 20.4859 13.9309 20.4859 14.8038H23.7525C24.2031 14.8038 24.372 14.9728 24.372 15.4233V18.8307C24.372 19.2813 24.2312 19.4221 23.7525 19.4221C22.7388 19.4221 20.5704 19.4221 20.4859 19.4221V28.6023C20.4859 29.081 20.3451 29.25 19.8383 29.25C18.6555 29.25 17.501 29.25 16.3182 29.25C15.8958 29.25 15.7269 29.081 15.7269 28.6586C15.7269 25.7018 15.7269 19.5347 15.7269 19.4502Z" fill="#3B5998"/>
</svg>
