<svg width="37" height="36" viewBox="0 0 37 36" fill="none" xmlns="http://www.w3.org/2000/svg">
<path fill-rule="evenodd" clip-rule="evenodd" d="M18.4262 26.136H20.1542C20.1542 26.136 20.6582 26.064 20.9462 25.776C21.1982 25.524 21.1982 25.02 21.1982 25.02C21.1982 25.02 21.1622 22.716 22.2422 22.356C23.2862 22.032 24.6542 24.588 26.0942 25.56C27.1742 26.316 28.0022 26.136 28.0022 26.136L31.8542 26.1C31.8542 26.1 33.8702 25.992 32.8982 24.408C32.8262 24.264 32.3582 23.22 30.0542 21.096C27.6422 18.864 27.9662 19.224 30.8822 15.336C32.6462 12.996 33.3662 11.556 33.1502 10.908C32.9342 10.332 31.6382 10.476 31.6382 10.476L27.3182 10.512C27.3182 10.512 26.9942 10.476 26.7422 10.62C26.4542 10.8 26.3102 11.124 26.3102 11.124C26.3102 11.124 25.6262 12.96 24.7262 14.508C22.7822 17.784 22.0262 17.964 21.7022 17.748C20.9822 17.28 21.1622 15.84 21.1622 14.832C21.1622 11.664 21.6302 10.332 20.2262 10.008C19.7582 9.89999 19.3982 9.82799 18.2102 9.79199C16.6622 9.79199 15.3662 9.79199 14.6102 10.152C14.1062 10.404 13.7462 10.944 13.9622 10.944C14.2502 10.98 14.8982 11.124 15.2222 11.592C15.6542 12.204 15.6542 13.536 15.6542 13.536C15.6542 13.536 15.9062 17.28 15.0422 17.748C14.4662 18.072 13.6742 17.424 11.9462 14.436C11.0822 12.924 10.3982 11.232 10.3982 11.232C10.3982 11.232 10.2542 10.908 10.0382 10.764C9.85817 10.62 9.49817 10.512 9.10217 10.512L5.25017 10.548C5.25017 10.548 4.63817 10.548 4.42217 10.836C4.20617 11.088 4.42217 11.556 4.42217 11.556C4.42217 11.556 7.66217 19.08 11.2982 22.86C14.6462 26.388 18.4262 26.136 18.4262 26.136Z" fill="#2787F5"/>
</svg>
