<svg width="37" height="36" viewBox="0 0 37 36" fill="none" xmlns="http://www.w3.org/2000/svg">
<path fill-rule="evenodd" clip-rule="evenodd" d="M7.33203 18C7.33203 11.7967 12.3787 6.75 18.582 6.75C24.7853 6.75 29.832 11.7967 29.832 18C29.832 18.8787 29.7589 19.5902 29.5951 20.3042L29.5926 20.3161C29.5922 20.3182 29.5109 20.6474 29.466 20.791C29.188 21.6802 28.6846 22.4209 28.0102 22.9328C27.3561 23.4293 26.5451 23.7028 25.7268 23.7028C25.6257 23.7028 25.5239 23.6987 25.4242 23.6907C24.262 23.5974 23.2402 22.9859 22.6136 22.0107C21.5359 23.0943 20.1061 23.6905 18.582 23.6905C15.4443 23.6905 12.8915 21.1377 12.8915 18C12.8915 14.8622 15.4443 12.3095 18.582 12.3095C21.7197 12.3095 24.2725 14.8622 24.2725 18V19.8343C24.2771 20.9047 24.9954 21.3422 25.609 21.3916C26.2195 21.4388 27.032 21.0832 27.315 19.9226C27.4546 19.286 27.5255 18.639 27.5255 18C27.5255 13.0685 23.5135 9.05643 18.582 9.05643C13.6505 9.05643 9.63855 13.0685 9.63855 18C9.63855 22.9314 13.6505 26.9435 18.582 26.9435C20.2986 26.9435 21.9681 26.4532 23.41 25.5257L23.4359 25.509L24.9514 27.2711L24.9189 27.2933C23.046 28.5734 20.8547 29.25 18.582 29.25C12.3787 29.25 7.33203 24.2033 7.33203 18ZM18.582 21.384C20.4479 21.384 21.9659 19.8659 21.9659 18C21.9659 16.134 20.4479 14.6161 18.582 14.6161C16.716 14.6161 15.198 16.134 15.198 18C15.198 19.8659 16.716 21.384 18.582 21.384Z" fill="#FC2C38"/>
</svg>
