<svg width="35" height="36" viewBox="0 0 35 36" fill="none" xmlns="http://www.w3.org/2000/svg">
<g opacity="0.2" clip-path="url(#clip0)">
<path d="M17.5 0.669922C7.83535 0.669922 0 8.50491 0 18.1699C0 27.8349 7.83535 35.6699 17.5 35.6699C27.1647 35.6699 35 27.8349 35 18.1699C35 8.50491 27.1647 0.669922 17.5 0.669922ZM26.3769 20.0626C27.1926 20.8593 28.0555 21.6091 28.7877 22.4881C29.1121 22.8769 29.4179 23.279 29.6506 23.7313C29.9829 24.3761 29.6829 25.0833 29.1057 25.1216L25.5205 25.1209C24.5945 25.1975 23.8576 24.824 23.2364 24.191C22.7405 23.6865 22.2804 23.1476 21.8028 22.6259C21.6076 22.4118 21.4021 22.2102 21.1572 22.0516C20.6684 21.7337 20.2438 21.831 19.9638 22.3416C19.6784 22.8612 19.6132 23.4369 19.586 24.0152C19.547 24.8606 19.2921 25.0815 18.4438 25.1212C16.6314 25.2061 14.9116 24.9311 13.3132 24.0173C11.9032 23.2114 10.8119 22.0738 9.86087 20.7859C8.009 18.2752 6.59074 15.5196 5.31642 12.6849C5.02962 12.0464 5.23944 11.7049 5.94373 11.6916C7.11386 11.6691 8.28399 11.6719 9.45412 11.6905C9.93033 11.6981 10.2454 11.9705 10.4284 12.4199C11.0607 13.9757 11.8359 15.4559 12.8073 16.8286C13.0662 17.1942 13.3304 17.5587 13.7068 17.8169C14.1221 18.1019 14.4386 18.0077 14.6345 17.544C14.7598 17.2494 14.8139 16.9343 14.8411 16.6185C14.9342 15.5368 14.9453 14.4554 14.7841 13.3781C14.6839 12.7038 14.3047 12.2684 13.6326 12.141C13.2903 12.0762 13.3405 11.9494 13.507 11.7539C13.7959 11.4159 14.0666 11.2068 14.6076 11.2068L18.6583 11.2061C19.2967 11.3314 19.4399 11.6179 19.5266 12.2609L19.5302 16.7624C19.5227 17.0113 19.6551 17.7488 20.102 17.9118C20.4601 18.0299 20.6964 17.7428 20.9105 17.5161C21.8819 16.4853 22.574 15.2686 23.1938 14.0093C23.4674 13.454 23.7033 12.8793 23.9325 12.3035C24.1029 11.8778 24.3679 11.6683 24.8484 11.6755L28.7491 11.6802C28.864 11.6802 28.9807 11.6812 29.0946 11.7009C29.752 11.8133 29.9321 12.0962 29.7287 12.7375C29.4086 13.7451 28.7866 14.5843 28.1787 15.4258C27.527 16.3266 26.832 17.196 26.1868 18.1008C25.5939 18.9279 25.6408 19.3443 26.3769 20.0626Z" fill="#195084"/>
</g>
<defs>
<clipPath id="clip0">
<rect width="35" height="35" fill="white" transform="translate(0 0.669922)"/>
</clipPath>
</defs>
</svg>
