<svg width="37" height="36" viewBox="0 0 37 36" fill="none" xmlns="http://www.w3.org/2000/svg">
<path d="M18.0819 6.75C14.9798 6.75 12.457 9.27276 12.457 12.3749C12.457 15.477 14.9798 17.9998 18.0819 17.9998C21.184 17.9998 23.7068 15.477 23.7068 12.3749C23.7068 9.27276 21.184 6.75 18.0819 6.75ZM18.0819 15.1873C16.5309 15.1873 15.2695 13.926 15.2695 12.3749C15.2695 10.8238 16.5309 9.56244 18.0819 9.56244C19.633 9.56244 20.8944 10.8238 20.8944 12.3749C20.8944 13.926 19.633 15.1873 18.0819 15.1873Z" fill="#EE8208"/>
<path d="M25.5411 17.844C24.9912 17.2942 24.1025 17.2942 23.5527 17.844C20.5377 20.859 15.63 20.859 12.6137 17.844C12.0638 17.2942 11.1751 17.2942 10.6253 17.844C10.0754 18.3938 10.0754 19.2826 10.6253 19.8338C12.3746 21.5832 14.5922 22.5802 16.8787 22.8403L12.8696 26.8495C12.3198 27.3993 12.3198 28.288 12.8696 28.8379C13.4194 29.3877 14.3082 29.3877 14.858 28.8379L18.0825 25.6134L21.3069 28.8379C21.5811 29.1121 21.9411 29.2499 22.3011 29.2499C22.6611 29.2499 23.0211 29.1121 23.2953 28.8379C23.8452 28.288 23.8452 27.3993 23.2953 26.8495L19.2862 22.8403C21.5727 22.5802 23.7903 21.5832 25.5397 19.8338C26.0895 19.284 26.0895 18.3938 25.5411 17.844Z" fill="#EE8208"/>
</svg>
