<svg width="35" height="36" viewBox="0 0 35 36" fill="none" xmlns="http://www.w3.org/2000/svg">
<g opacity="0.2" clip-path="url(#clip0)">
<path d="M17.5 35.6699C27.1673 35.6699 35 27.8372 35 18.1699C35 8.50263 27.1673 0.669922 17.5 0.669922C7.83271 0.669922 0 8.50263 0 18.1699C0 27.8372 7.83271 35.6699 17.5 35.6699ZM8.00771 17.7908L24.8806 11.2851C25.6638 11.0022 26.3477 11.4762 26.094 12.6603L26.0954 12.6589L23.2225 26.1937C23.0096 27.1533 22.4394 27.3866 21.6417 26.9345L17.2667 23.7101L15.1565 25.743C14.9231 25.9764 14.7263 26.1733 14.2742 26.1733L14.5848 21.721L22.6931 14.3958C23.046 14.0851 22.6144 13.9101 22.1492 14.2193L12.129 20.528L7.80938 19.1805C6.87167 18.883 6.85125 18.2428 8.00771 17.7908Z" fill="#195084"/>
</g>
<defs>
<clipPath id="clip0">
<rect width="35" height="35" fill="white" transform="translate(0 0.669922)"/>
</clipPath>
</defs>
</svg>
