<svg width="35" height="36" viewBox="0 0 35 36" fill="none" xmlns="http://www.w3.org/2000/svg">
<g opacity="0.2" clip-path="url(#clip0)">
<path d="M0 18.1699C0 8.50492 7.835 0.669922 17.5 0.669922C27.165 0.669922 35 8.50492 35 18.1699C35 27.8349 27.165 35.6699 17.5 35.6699C7.835 35.6699 0 27.8349 0 18.1699Z" fill="#195084"/>
<path fill-rule="evenodd" clip-rule="evenodd" d="M17.1459 0.669922C17.0632 7.86955 16.5924 11.8988 13.9106 14.5805C11.2289 17.2623 7.19963 17.7331 0 17.8158V18.8606C7.19963 18.9432 11.2289 19.414 13.9106 22.0958C16.5503 24.7355 17.0479 28.6807 17.1417 35.6699H18.1949C18.2886 28.6807 18.7862 24.7355 21.4259 22.0958C24.0656 19.4561 28.0108 18.9585 35 18.8648V17.8115C28.0108 17.7178 24.0656 17.2202 21.4259 14.5805C18.7441 11.8988 18.2733 7.86955 18.1907 0.669922H17.1459Z" fill="white"/>
</g>
<defs>
<clipPath id="clip0">
<rect width="35" height="35" fill="white" transform="translate(0 0.669922)"/>
</clipPath>
</defs>
</svg>
