<svg width="50" height="52" viewBox="0 0 50 52" fill="none" xmlns="http://www.w3.org/2000/svg">
<g clip-path="url(#clip0)">
<path d="M0.560768 19.0324C-0.291217 18.0515 -0.15981 16.5865 0.852465 15.761C1.86474 14.9369 3.37665 15.0628 4.22864 16.0436C4.2373 16.0534 7.35355 19.5823 10.2532 22.522C10.3369 22.6074 10.4322 22.6969 10.5348 22.7893C10.5738 22.8242 10.6128 22.8606 10.6489 22.8984C11.3853 23.5224 12.0943 23.7785 12.7398 23.7365C13.4705 23.689 14.2416 23.272 14.9839 22.585C15.1341 22.4464 15.2409 22.3429 15.3073 22.2743C21.8301 15.442 33.8907 1.37286 33.9254 1.33368C34.7759 0.347235 36.2922 0.217108 37.3102 1.04265C38.3268 1.86678 38.4626 3.33736 37.6106 4.32241C37.5759 4.36159 25.6727 18.253 18.8236 25.4282C18.6113 25.6521 18.4322 25.8298 18.2951 25.9571C16.7543 27.3843 14.968 28.2588 13.0604 28.3847C11.1543 28.5092 9.23225 27.8922 7.43586 26.3433C7.38387 26.3027 7.33189 26.2621 7.28135 26.2173C7.12106 26.0746 6.9521 25.9123 6.77449 25.7318C3.88784 22.8046 0.569432 19.0436 0.560768 19.0324Z" fill="#54E4CB"/>
<path d="M44.456 3.57284C45.3224 2.60179 46.8401 2.49545 47.8408 3.33637C48.843 4.1759 48.9528 5.64648 48.0863 6.61754L30.0791 26.8544C29.2112 27.8254 27.695 27.9318 26.6928 27.0909C25.6907 26.2499 25.5809 24.7808 26.4488 23.8097L44.456 3.57284Z" fill="#195084"/>
<path d="M44.0085 18.4408C44.8706 17.4655 46.3869 17.3508 47.3934 18.1861C48.4013 19.0215 48.5183 20.4906 47.6576 21.4659L35.9811 34.7095C35.119 35.6861 33.6027 35.7995 32.5962 34.9641C31.5897 34.1288 31.4713 32.661 32.3334 31.6844L44.0085 18.4408Z" fill="#195084"/>
<path d="M45.7761 30.9818C46.6382 30.0051 48.1544 29.8918 49.1609 30.7271C50.1674 31.5625 50.2858 33.0316 49.4238 34.0069C48.5154 35.0381 47.727 35.9658 46.9385 36.8949C40.9227 43.9791 34.7219 51.2802 23.7747 51.4971C19.083 51.5894 14.823 49.5634 11.2476 46.744C6.18187 42.7492 2.4418 37.0796 0.951551 33.8964C0.407146 32.7238 0.945774 31.3442 2.15588 30.8167C3.36455 30.2892 4.78982 30.8111 5.33422 31.9836C6.62664 34.7443 9.87429 39.6653 14.2757 43.1354C17.0642 45.3349 20.2916 46.9175 23.6808 46.8503C32.4201 46.6768 37.9089 40.2152 43.2346 33.9425C44.1183 32.9001 45.0006 31.8619 45.7761 30.9818Z" fill="#195084"/>
</g>
<defs>
<clipPath id="clip0">
<rect width="50" height="51" fill="white" transform="translate(0 0.5)"/>
</clipPath>
</defs>
</svg>
