<svg width="50" height="50" viewBox="0 0 50 50" fill="none" xmlns="http://www.w3.org/2000/svg">
<path fill-rule="evenodd" clip-rule="evenodd" d="M17.0657 15.8123L6.24613 9.57478V36.3242L17.0657 42.5617V15.8123ZM30.6505 36.0843V9.21494L19.1092 15.9323V42.6817L30.6505 36.0843ZM32.694 9.21494V36.0843L43.6339 42.3218V15.5724L32.694 9.21494ZM32.5736 5.25651L46.1584 13.0534C46.6393 13.4133 47 13.8931 47 14.6128V45.3206C47 46.1603 46.1587 47 45.3171 47C44.9565 47 44.5956 46.88 44.3552 46.6401L31.7324 39.443L18.9893 46.7601C18.5084 47 17.7869 47 17.306 46.7601L3.84162 38.9632C3.36074 38.7233 3 38.1235 3 37.5237V6.81588C3 5.97621 3.84171 5.13655 4.68323 5.13655C5.04389 5.13655 5.40438 5.25651 5.64482 5.37647L18.268 12.6936L30.8908 5.37647C31.3716 4.89666 31.9725 4.89665 32.5736 5.25651Z" fill="#195084"/>
</svg>
