<svg width="50" height="50" viewBox="0 0 50 50" fill="none" xmlns="http://www.w3.org/2000/svg">
<path fill-rule="evenodd" clip-rule="evenodd" d="M33.2268 31.1862H27.6943C27.2026 31.1862 26.711 31.678 26.711 32.1698V37.825H22.6538V32.1698C22.6538 31.678 22.1621 31.1862 21.5474 31.1862H16.0153V27.1292H21.5474C22.1621 27.1292 22.6538 26.6375 22.6538 26.0228V20.4904H26.711V26.0228C26.711 26.6375 27.2026 27.1292 27.6943 27.1292H33.2268V31.1862ZM34.3332 24.9163H28.8008V19.384C28.8008 18.8923 28.309 18.4005 27.6943 18.4005H21.5474C21.0556 18.4005 20.564 18.8923 20.564 19.384V24.9163H15.0316C14.4169 24.9163 13.9252 25.408 13.9252 25.8998V32.0468C13.9252 32.6615 14.4169 33.1532 15.0316 33.1532H20.564V38.6855C20.564 39.1773 21.0556 39.669 21.5474 39.669H27.6943C28.309 39.669 28.8008 39.1773 28.8008 38.6855V33.2762H34.3332C34.825 33.2762 35.3165 32.7845 35.3165 32.1698V26.0228C35.3165 25.4081 34.825 24.9163 34.3332 24.9163ZM43.5537 40.7755C43.5537 42.0049 42.4472 43.1114 41.2178 43.1114H7.90124C6.5489 43.1114 5.4423 42.0049 5.4423 40.7755V17.294C5.4423 16.0646 6.5489 14.9582 7.90124 14.9582H41.2178C42.4472 14.9582 43.5537 16.0646 43.5537 17.294V40.7755ZM18.4739 9.91761C18.4739 9.05703 18.8428 8.44238 19.3345 7.95062C19.8263 7.45886 20.564 7.09005 21.3016 7.09005H27.5717C28.4322 7.09005 29.0466 7.33592 29.5384 7.95062C30.0301 8.44238 30.399 9.17997 30.399 9.91761V11.5159H18.3512V9.91761H18.4739ZM41.2178 11.5159H32.6119V9.91761C32.6119 8.56527 32.1202 7.33589 31.1366 6.47531C30.2761 5.61473 29.0467 5 27.6943 5H21.4247C20.0723 5 18.7199 5.49179 17.8593 6.47531C16.9987 7.33589 16.3841 8.56527 16.3841 9.91761V11.5159H7.90124C4.70481 11.5159 2 14.2205 2 17.294V40.7755C2 43.9719 4.70481 46.5537 7.90124 46.5537H41.2178C44.4142 46.5537 46.996 43.849 46.996 40.7755V17.294C47.1189 14.2205 44.4142 11.5159 41.2178 11.5159Z" fill="#195084"/>
</svg>
