<svg width="50" height="50" viewBox="0 0 50 50" fill="none" xmlns="http://www.w3.org/2000/svg">
<path fill-rule="evenodd" clip-rule="evenodd" d="M30.5273 23.7612C30.5273 24.6797 30.0667 25.4834 29.6061 26.0575C29.0303 26.6315 28.2243 26.9757 27.3031 26.9757H19.4727V18.0211H27.3031C28.2243 18.0211 29.0303 18.4805 29.6061 18.9397V19.0542C30.0667 19.5135 30.5273 20.4319 30.5273 21.2355V23.7612ZM30.9878 17.6767C30.0666 16.7582 28.8 16.1842 27.3031 16.1842H18.5515C18.0909 16.1842 17.5151 16.6436 17.5151 17.1028V34.7823C17.5151 35.2415 17.9757 35.8158 18.5515 35.8158C19.1272 35.8158 19.4727 35.3563 19.4727 34.7823V28.9276H27.3031C28.8 28.9276 30.0666 28.3535 30.9878 27.435C31.909 26.5166 32.4849 25.2537 32.4849 23.7612V21.2355C32.4849 19.8579 31.909 18.5951 30.9878 17.6767ZM40.7758 38.8005C40.7758 40.4078 39.394 41.7855 37.897 41.7855H12.2181C10.606 41.7855 9.33931 40.4078 9.33931 38.8005V13.1995C9.33931 11.5922 10.606 10.2145 12.2181 10.2145H37.897C39.394 10.2145 40.7758 11.5922 40.7758 13.1995V38.8005ZM37.897 7H12.2181C8.76356 7 6 9.75539 6 13.1995V38.8005C6 42.2446 8.76356 45 12.2181 45H37.897C41.2364 45 44 42.2446 44 38.8005V13.1995C44 9.75539 41.2364 7 37.897 7Z" fill="#195084"/>
</svg>
