<svg width="50" height="50" viewBox="0 0 50 50" fill="none" xmlns="http://www.w3.org/2000/svg">
<path fill-rule="evenodd" clip-rule="evenodd" d="M24.4441 19.5878C28.6894 19.5878 32.1526 22.9324 32.1526 27.2804C32.1526 31.5169 28.6894 34.973 24.4441 34.973C20.1989 34.973 16.7357 31.5169 16.7357 27.2804C16.7357 22.9324 20.1989 19.5878 24.4441 19.5878ZM24.4441 16.3547C30.3651 16.3547 35.2806 21.1486 35.2806 27.1689C35.2806 33.0777 30.3651 37.9831 24.4441 37.9831C18.5232 37.9831 13.6076 33.0777 13.6076 27.1689C13.6076 21.2601 18.5232 16.3547 24.4441 16.3547ZM14.6131 18.8074H7.01635V39.7669H41.6485V18.8074H34.2752C33.6049 18.8074 33.0463 18.3615 32.8229 17.804L31.1471 13.1216H17.8529L16.1771 17.6926C15.9537 18.3615 15.3951 18.8074 14.6131 18.8074ZM26.7902 24.8277C27.4605 25.3851 27.7956 26.277 27.7956 27.2804C27.7956 29.0642 26.3433 30.625 24.4441 30.625C22.545 30.625 21.0927 29.0642 21.0927 27.2804C21.0927 25.3851 22.545 23.9358 24.4441 23.9358C25.3379 23.8243 26.2316 24.1588 26.7902 24.8277ZM24.4441 21.9291C25.8965 21.9291 27.2371 22.4865 28.1308 23.3784C29.1362 24.3817 29.6948 25.8311 29.6948 27.1689C29.6948 30.0676 27.2371 32.4088 24.4441 32.4088C21.6512 32.4088 19.1935 30.0676 19.1935 27.1689C19.0818 24.3818 21.5395 21.9291 24.4441 21.9291ZM6.79292 15.6858H5.67575H5.56403C4.78201 15.6858 4 16.4662 4 17.2466V41.4392C4 42.3311 4.78201 43 5.56403 43H43.3243H43.436C44.218 43 45 42.3311 45 41.4392V17.3581V17.2466C45 16.4662 44.218 15.6858 43.436 15.6858H35.3924L33.7166 11.1148C33.6049 10.4459 32.9346 10 32.2643 10H16.8474C16.1771 10 15.6185 10.4459 15.3951 11.1148L14.7248 13.1216H7.79837C7.3515 13.1216 6.90463 13.5676 6.90463 14.0135V15.6858H6.79292ZM13.8311 14.7939H8.6921V15.5743H13.6076L13.8311 14.7939ZM37.8501 20.9257C38.6322 20.9257 39.3025 21.5946 39.3025 22.375C39.3025 23.1554 38.6322 23.8243 37.8501 23.8243C37.0681 23.8243 36.3978 23.1554 36.3978 22.375C36.3978 21.5946 37.1798 20.9257 37.8501 20.9257Z" fill="#195084"/>
</svg>
