<svg width="50" height="50" viewBox="0 0 50 50" fill="none" xmlns="http://www.w3.org/2000/svg">
<path fill-rule="evenodd" clip-rule="evenodd" d="M28.0847 38.8823C27.3798 38.1764 26.4399 37.7061 25.5 37.7061C24.4426 37.7061 23.6202 38.1764 22.9153 38.8823C22.2104 39.4705 21.858 40.4117 21.858 41.4706C21.858 42.5294 22.2104 43.4706 22.9153 44.0588C23.6202 44.7647 24.4426 45.1176 25.5 45.1176C26.4399 45.1176 27.3798 44.7647 28.0847 44.0588C28.6721 43.4706 29.142 42.5294 29.142 41.4706C29.142 40.4117 28.6721 39.4705 28.0847 38.8823ZM36.5437 23.9412H36.4262H14.8087H14.6913C14.2213 24.0589 13.6339 24.1764 13.2814 24.5293C12.8115 24.9999 12.5765 25.4706 12.5765 26.0588V27.2353C12.5765 27.8236 12.8115 28.4119 13.2814 28.7648C13.7514 29.2354 14.2213 29.4707 14.8087 29.4707H36.4262C37.0137 29.4707 37.6011 29.2354 37.9535 28.7648C38.306 28.4119 38.541 27.8236 38.541 27.2353V26.0588C38.541 25.4706 38.306 24.8823 37.9535 24.5293C37.4836 24.1764 37.0137 24.0589 36.5437 23.9412ZM36.5437 16.2942H36.4262H14.8087H14.6913C14.2213 16.4119 13.6339 16.6471 13.2814 17.0001C12.8115 17.353 12.5765 17.9413 12.5765 18.5296V19.7061C12.5765 20.2943 12.8115 20.8823 13.2814 21.2352C13.6339 21.5882 14.1039 21.8237 14.6913 21.8237H14.8087H36.4262H36.5437C37.0137 21.8237 37.6011 21.5882 37.9535 21.2352C38.306 20.7646 38.541 20.2943 38.541 19.7061V18.5296C38.541 17.9413 38.306 17.353 37.9535 17.0001C37.4836 16.6471 37.0137 16.4119 36.5437 16.2942ZM27.1448 31.4708V35.9411C27.9672 36.1764 28.7896 36.7647 29.4945 37.4706C30.0819 38.0588 30.5519 38.8824 30.9044 39.7059H45.3552C46.1776 39.7059 47 40.4119 47 41.2354C47 42.1766 46.1776 43 45.3552 43H30.9044C30.6694 43.8236 30.0819 44.7649 29.4945 45.3531C28.4371 46.4119 27.0273 47 25.5 47C23.9727 47 22.5628 46.4119 21.5054 45.3531C20.8005 44.7649 20.3306 43.8236 20.0956 43H5.6448C4.8224 43 4 42.1766 4 41.2354C4 40.4119 4.8224 39.7059 5.6448 39.7059H20.0956C20.3306 38.8824 20.918 38.0588 21.5054 37.4706C22.0929 36.7647 23.0328 36.2941 23.8552 35.9411V31.4708H14.6913C13.5164 31.4708 12.4591 31.0002 11.7541 30.2943V30.1765C10.9317 29.4706 10.5792 28.4118 10.5792 27.2353V26.0588C10.5792 24.8823 11.0492 23.8235 11.7541 23.1176C11.8716 23 11.8716 23.0002 11.9891 23.0002C11.8716 22.8826 11.8716 22.8823 11.7541 22.7647C10.9317 21.9412 10.5792 20.8823 10.5792 19.8235V18.647C10.5792 17.4705 11.0492 16.4117 11.7541 15.7058C11.8716 15.5881 11.8716 15.5883 11.9891 15.4706C11.8716 15.353 11.8716 15.3531 11.7541 15.2355C10.9317 14.4119 10.5792 13.3531 10.5792 12.2943V11.1177C10.5792 9.94125 11.0492 8.88243 11.7541 8.17654C12.5765 7.35301 13.6339 7 14.6913 7H36.3087C37.4836 7 38.5409 7.47066 39.2459 8.17654C39.9508 9.00008 40.4207 10.0589 40.4207 11.1177V12.2943C40.4207 13.4707 39.9508 14.5296 39.2459 15.2355L39.0109 15.4706L39.2459 15.7058C39.9508 16.4117 40.4207 17.4705 40.4207 18.647V19.8235C40.4207 21 39.9508 22.0588 39.2459 22.7647C39.1284 22.8823 39.1284 22.8826 39.0109 23.0002L39.2459 23.1176C39.9508 23.9411 40.4207 25 40.4207 26.0588V27.2353C40.4207 28.4118 39.9508 29.4706 39.2459 30.1765C38.4235 31.0001 37.3661 31.4708 36.3087 31.4708H27.1448ZM15.7486 9.94118C16.6885 9.94118 17.3934 10.6472 17.3934 11.5884C17.3934 12.4119 16.6885 13.2353 15.7486 13.2353C14.9262 13.2353 14.1038 12.4119 14.1038 11.5884C14.1038 10.6472 14.9262 9.94118 15.7486 9.94118ZM15.7486 17.4708C16.6885 17.4708 17.3934 18.2941 17.3934 19.1177C17.3934 20.0588 16.6885 20.7649 15.7486 20.7649C14.9262 20.7649 14.1038 20.0588 14.1038 19.1177C14.1038 18.2941 14.9262 17.4708 15.7486 17.4708ZM15.7486 25.1178C16.6885 25.1178 17.3934 25.8235 17.3934 26.7647C17.3934 27.5882 16.6885 28.4119 15.7486 28.4119C14.9262 28.4119 14.1038 27.5882 14.1038 26.7647C14.1038 25.8235 14.9262 25.1178 15.7486 25.1178ZM14.6913 14.2941H36.3087L36.4262 14.4118C36.8962 14.2942 37.4835 14.0589 37.836 13.706C38.1885 13.353 38.4235 12.7647 38.4235 12.1765V11C38.4235 10.4117 38.1885 9.82343 37.836 9.47049C37.3661 9.11755 36.8961 8.8824 36.3087 8.8824H14.6913C14.1039 8.8824 13.5164 9.11755 13.1639 9.47049C12.694 9.94108 12.459 10.4117 12.459 11V12.1765C12.459 12.7647 12.694 13.353 13.1639 13.706C13.5164 14.0589 13.9863 14.2942 14.5738 14.4118L14.6913 14.2941Z" fill="#195084"/>
</svg>
