<svg width="50" height="50" viewBox="0 0 50 50" fill="none" xmlns="http://www.w3.org/2000/svg">
<path fill-rule="evenodd" clip-rule="evenodd" d="M13.868 33.766H12.1405H8.10959V37.6735V39.5123L13.868 33.766ZM8.22487 24.4569C8.22487 25.2614 7.53369 26.0659 6.61235 26.0659C5.80617 26.0659 5 25.2614 5 24.4569C5 21.6987 5.5759 19.0553 6.49724 16.6419C7.64892 14.1135 9.1461 11.815 10.9888 9.97614C14.7893 6.29849 19.8568 4 25.5001 4C28.2641 4 30.9129 4.5746 33.3314 5.49401C35.8651 6.52835 38.1685 8.02239 40.0112 9.97614C41.8539 11.815 43.4662 14.1135 44.5028 16.6419C45.5393 19.0553 46 21.6987 46 24.4569C46 27.2151 45.5393 29.8584 44.5028 32.2719V32.3868C43.4662 34.9152 41.9691 37.0988 40.0112 38.9376C38.1685 40.7764 35.8651 42.3854 33.3314 43.4198C30.9129 44.4541 28.2641 44.9138 25.5001 44.9138C22.7361 44.9138 20.0871 44.4541 17.6686 43.4198L17.5535 43.3048C15.5956 42.5003 13.7529 41.466 12.1405 40.0869L7.64899 44.569C7.07315 45.1437 6.03661 45.1437 5.46077 44.569C5.11527 44.2242 5 43.7646 5 43.4198V37.7884V32.2719C5 31.3525 5.80617 30.6629 6.61235 30.6629H12.2556H17.8989C18.7051 30.6629 19.5113 31.3525 19.5113 32.2719C19.5113 32.7316 19.396 33.0764 19.0505 33.4211L14.559 37.9033C15.941 38.9376 17.3231 39.8571 18.9354 40.5466H19.0505C21.0084 41.3511 23.1967 41.8108 25.6152 41.8108C27.9186 41.8108 30.1067 41.3511 32.1797 40.5466C34.2527 39.7421 36.2107 38.363 37.7079 36.754C39.3202 35.26 40.5871 33.3062 41.5084 31.2376C42.3146 29.1689 42.7753 26.9853 42.7753 24.6868C42.7753 22.2733 42.3146 20.0897 41.5084 18.1359V17.7911C40.7023 15.7225 39.3202 13.8836 37.7079 12.2747C36.2107 10.6657 34.2527 9.40154 32.1797 8.48212C30.1067 7.67764 27.9186 7.21793 25.6152 7.21793C20.7781 7.21793 16.5169 9.17166 13.4074 12.2747C11.9102 13.8836 10.6433 15.7225 9.72194 17.9061H9.60683C8.68549 19.8598 8.22487 22.0434 8.22487 24.4569Z" fill="#195084"/>
</svg>
