<svg width="50" height="50" viewBox="0 0 50 50" fill="none" xmlns="http://www.w3.org/2000/svg">
<path d="M32.163 29.5685C29.51 29.5685 27.3525 27.411 27.3525 24.7581C27.3525 22.1051 29.51 19.9476 32.163 19.9476C34.816 19.9476 36.9735 22.1051 36.9735 24.7581C36.9735 27.411 34.816 29.5685 32.163 29.5685ZM32.163 22.3528C30.8353 22.3528 29.7578 23.4304 29.7578 24.7581C29.7578 26.0858 30.8353 27.1633 32.163 27.1633C33.4907 27.1633 34.5683 26.0858 34.5683 24.7581C34.5683 23.4304 33.4907 22.3528 32.163 22.3528Z" fill="#195084"/>
<path d="M17.7314 29.5684C15.0784 29.5684 12.9209 27.4109 12.9209 24.7579C12.9209 22.1049 15.0784 19.9474 17.7314 19.9474C20.3844 19.9474 22.5419 22.1049 22.5419 24.7579C22.5419 27.4109 20.3844 29.5684 17.7314 29.5684ZM17.7314 22.3526C16.4037 22.3526 15.3261 23.4302 15.3261 24.7579C15.3261 26.0856 16.4037 27.1631 17.7314 27.1631C19.0591 27.1631 20.1366 26.0856 20.1366 24.7579C20.1366 23.4302 19.0591 22.3526 17.7314 22.3526Z" fill="#195084"/>
<path d="M38.4708 44.2682H12.0131C8.69628 44.2682 6 41.5719 6 38.2551V19.0131C6 15.6963 8.69628 13 12.0131 13H38.4708C41.7876 13 44.4839 15.6963 44.4839 19.0131V38.2551C44.4839 41.5719 41.7876 44.2682 38.4708 44.2682ZM12.0131 15.4052C10.024 15.4052 8.40524 17.024 8.40524 19.0131V38.2551C8.40524 40.2442 10.024 41.8629 12.0131 41.8629H38.4708C40.4599 41.8629 42.0787 40.2442 42.0787 38.2551V19.0131C42.0787 17.024 40.4599 15.4052 38.4708 15.4052H12.0131Z" fill="#195084"/>
<path d="M37.623 43.4888H12.6709C9.54284 43.4888 7 40.946 7 37.8179V19.6709C7 16.5428 9.54284 14 12.6709 14H37.623C40.7511 14 43.2939 16.5428 43.2939 19.6709V37.8179C43.2939 40.946 40.7511 43.4888 37.623 43.4888ZM12.6709 16.2684C10.795 16.2684 9.26837 17.795 9.26837 19.6709V37.8179C9.26837 39.6938 10.795 41.2205 12.6709 41.2205H37.623C39.499 41.2205 41.0256 39.6938 41.0256 37.8179V19.6709C41.0256 17.795 39.499 16.2684 37.623 16.2684H12.6709Z" fill="#195084"/>
<path d="M24.9477 15.1371C24.2839 15.1371 23.7451 14.7374 23.7451 14.2449V8.89213C23.7451 8.39968 24.2839 8 24.9477 8C25.6116 8 26.1504 8.39968 26.1504 8.89213V14.2449C26.1504 14.7374 25.6116 15.1371 24.9477 15.1371Z" fill="#195084"/>
<path d="M30.9603 36.7843H18.9341C18.2702 36.7843 17.7314 36.2455 17.7314 35.5816C17.7314 34.9178 18.2702 34.379 18.9341 34.379H30.9603C31.6241 34.379 32.1629 34.9178 32.1629 35.5816C32.1629 36.2455 31.6241 36.7843 30.9603 36.7843Z" fill="#195084"/>
<path d="M24.9472 9.92133C22.2942 9.92133 20.1367 7.76383 20.1367 5.11084C20.1367 2.45786 22.2942 0.300354 24.9472 0.300354C27.6002 0.300354 29.7577 2.45786 29.7577 5.11084C29.7577 7.76383 27.6002 9.92133 24.9472 9.92133ZM24.9472 2.7056C23.6195 2.7056 22.542 3.78315 22.542 5.11084C22.542 6.43854 23.6195 7.51609 24.9472 7.51609C26.2749 7.51609 27.3525 6.43854 27.3525 5.11084C27.3525 3.78315 26.2749 2.7056 24.9472 2.7056Z" fill="#195084"/>
<path d="M6.90764 29.5686H2.09715C1.43331 29.5686 0.894531 29.0298 0.894531 28.366C0.894531 27.7021 1.43331 27.1633 2.09715 27.1633H6.90764C7.57149 27.1633 8.11026 27.7021 8.11026 28.366C8.11026 29.0298 7.57149 29.5686 6.90764 29.5686Z" fill="#195084"/>
<path d="M47.7983 29.5686H42.9878C42.3239 29.5686 41.7852 29.0298 41.7852 28.366C41.7852 27.7021 42.3239 27.1633 42.9878 27.1633H47.7983C48.4621 27.1633 49.0009 27.7021 49.0009 28.366C49.0009 29.0298 48.4621 29.5686 47.7983 29.5686Z" fill="#195084"/>
<path d="M2.09715 34.3791C1.43331 34.3791 0.894531 33.8403 0.894531 33.1764V23.5555C0.894531 22.8916 1.43331 22.3528 2.09715 22.3528C2.761 22.3528 3.29978 22.8916 3.29978 23.5555V33.1764C3.29978 33.8403 2.761 34.3791 2.09715 34.3791Z" fill="#195084"/>
<path d="M47.7964 34.3791C47.1325 34.3791 46.5938 33.8403 46.5938 33.1764V23.5555C46.5938 22.8916 47.1325 22.3528 47.7964 22.3528C48.4602 22.3528 48.999 22.8916 48.999 23.5555V33.1764C48.999 33.8403 48.4602 34.3791 47.7964 34.3791Z" fill="#195084"/>
</svg>
