<svg width="50" height="50" viewBox="0 0 50 50" fill="none" xmlns="http://www.w3.org/2000/svg">
<path fill-rule="evenodd" clip-rule="evenodd" d="M29.3171 18.3658V32.2683C30.2927 31.7805 31.1463 31.0488 31.7561 30.1951C32.8537 28.8537 33.4634 27.1463 33.4634 25.3171C33.4634 23.4878 32.8537 21.7805 31.7561 20.439C31.1463 19.7073 30.2927 18.9756 29.3171 18.3658ZM12.7317 14.0976L26.6341 3.48781C26.878 3.24391 27.3659 3 27.7317 3C28.7073 3 29.439 3.85366 29.439 4.70732V15.8049V16.1707C31.0244 16.7805 32.3658 17.8781 33.4634 19.2195C34.8049 20.9268 35.6585 23 35.6585 25.3171C35.6585 27.6341 34.8049 29.7073 33.4634 31.4146C32.3658 32.7561 31.0244 33.8537 29.439 34.4634V34.8293V45.9268C29.439 46.2927 29.3171 46.6585 29.0732 46.9024C28.5854 47.7561 27.4878 47.7561 26.7561 47.2683L12.8536 36.5366H3.70731C2.7317 36.5366 2 35.8049 2 34.8293V15.8049C2 14.8293 2.7317 14.0976 3.70731 14.0976H12.7317ZM12.2439 17.5122H5.29269V33.2439H12.2439V17.5122ZM35.1707 10.561C34.3171 10.0732 34.0732 8.97561 34.561 8.24391C35.0488 7.39025 36.1463 7.14634 36.8781 7.63415C39.9268 9.58537 42.4878 12.1463 44.3171 15.1951C46.0244 18.2439 47 21.6585 47 25.439C47 29.2195 46.0244 32.6341 44.3171 35.6829C42.4878 38.7317 39.9268 41.4146 36.8781 43.2439C36.0244 43.7317 34.9268 43.3659 34.561 42.6341C34.1951 41.9024 34.439 40.8049 35.1707 40.3171C37.7317 38.7317 39.9268 36.6585 41.2683 33.9756C42.7317 31.4146 43.5854 28.4878 43.5854 25.439C43.5854 22.3902 42.7317 19.3415 41.2683 16.9024C39.9268 14.2195 37.7317 12.0244 35.1707 10.561ZM14.3171 17.1463V33.6097L14.439 33.7317L25.9024 42.5122V34.9512V15.8049V8.24391L14.3171 17.1463Z" fill="#195084"/>
</svg>
