<svg width="50" height="50" viewBox="0 0 50 50" fill="none" xmlns="http://www.w3.org/2000/svg">
<path fill-rule="evenodd" clip-rule="evenodd" d="M17.4997 25.2998C15.4998 25.6998 12.7998 26.0998 12.7998 28.6997C12.7998 29.0997 13.0998 30.5997 13.7998 30.5997C13.8998 30.5997 13.8998 30.5997 13.8998 30.5997C13.9998 30.5997 13.9998 30.4996 13.9998 30.4996C14.0998 30.3996 14.0998 30.3995 14.2998 30.3995C14.6998 30.2995 15.1998 30.4995 15.2998 30.9995C16.1997 33.9994 17.9997 36.7996 20.4997 38.6995C23.6996 41.1995 27.1996 41.1995 30.3995 38.6995C32.7995 36.7996 34.7994 33.9994 35.5994 30.9995C35.6994 30.5995 36.1994 30.2995 36.5994 30.3995C36.6994 30.4995 36.7994 30.4996 36.8994 30.4996C36.9994 30.4996 36.9994 30.5997 36.9994 30.5997H37.0994C37.8994 30.5997 38.0994 29.0997 38.0994 28.6997C38.0994 26.0998 35.3994 25.6998 33.3995 25.2998C28.5995 24.2998 22.5996 24.2998 17.4997 25.2998ZM17.6997 17.6998C15.9998 18.0998 14.9998 18.3999 14.9998 18.6999V23.0998C15.4998 22.8998 16.1998 22.6997 16.8998 22.5997C22.2997 21.4997 28.5995 21.4997 33.9994 22.5997C34.6994 22.6997 35.3994 22.8998 35.8994 23.0998V18.6999C35.8994 18.4999 34.8994 18.0998 33.1995 17.6998C28.5995 16.5999 22.5997 16.5999 17.6997 17.6998ZM25.5996 10.7999L9.29988 17.7999L13.2998 19.3996V18.6999C13.2998 17.5999 14.7998 16.5997 17.2997 15.9997C22.3996 14.8998 28.5995 14.8998 33.6994 15.9997C36.1994 16.5997 37.6994 17.5999 37.6994 18.6999V19.3996L41.6993 17.7999L25.5996 10.7999ZM4.89995 24.6995C4.79996 24.7995 4.59995 25.0996 4.59995 25.3996C4.59995 25.8996 4.99995 26.3996 5.59994 26.3996H5.69994C6.19993 26.3996 6.69993 25.9996 6.69993 25.3996C6.69993 25.0996 6.59992 24.8995 6.39992 24.6995C5.89993 24.2995 5.29995 24.2995 4.89995 24.6995ZM19.5997 40.0993C17.0997 38.0994 15.0998 35.3995 14.0998 32.3996H13.7998C11.8998 32.3996 11.0999 30.1995 11.0999 28.7995C11.0999 27.7995 11.4998 26.5998 12.0998 25.8998C12.0998 25.7998 12.0998 25.7996 12.0998 25.6996V21.9997L6.49992 19.7997V22.8996C7.49991 23.2996 8.2999 24.1996 8.2999 25.3996C8.2999 26.0996 8.0999 26.6995 7.59991 27.1995L9.19988 29.8996C9.39988 30.2996 9.29987 30.7995 8.89988 30.9995C8.49989 31.1995 7.99989 31.0995 7.79989 30.6995L6.49992 28.4995V30.8997C6.49992 31.3997 6.09993 31.7996 5.59994 31.7996C5.19995 31.7996 4.79995 31.3997 4.79995 30.8997V28.4995L3.59999 30.6995C3.29999 31.0995 2.79999 31.1995 2.4 30.9995C2.00001 30.7995 1.9 30.2996 2.1 29.8996L3.69997 27.1995C3.29997 26.6995 2.99998 26.0996 2.99998 25.3996C2.99998 24.1996 3.69997 23.1996 4.79995 22.8996V19.0997C4.39996 18.6997 4.09998 18.0996 4.39997 17.4996C4.49997 17.0997 4.79996 16.7998 5.09996 16.6998L25.0996 8.1001C25.2996 8.0001 25.4996 8 25.6996 8C25.7996 8 26.0996 8.1001 26.1996 8.1001L46.1992 16.6998C46.5992 16.7998 46.7992 17.0997 46.8992 17.4996C47.1992 18.1996 46.7992 18.9999 46.0992 19.2998L39.0994 21.9997V25.6996C39.0994 25.7996 39.0994 25.7998 39.0994 25.8998C39.7993 26.5998 40.0993 27.7995 40.0993 28.7995C40.0993 30.2995 39.1994 32.3996 37.3994 32.3996H37.0994C36.0994 35.3995 34.0994 38.0994 31.5995 40.0993C27.7996 42.9993 23.4996 42.9993 19.5997 40.0993Z" fill="#195084"/>
</svg>
