<svg width="90" height="22" viewBox="0 0 90 22" fill="none" xmlns="http://www.w3.org/2000/svg">
<path d="M0 7.8C0 6.11984 0 5.27976 0.32698 4.63803C0.614601 4.07354 1.07354 3.6146 1.63803 3.32698C2.27976 3 3.11984 3 4.8 3H11.2C12.8802 3 13.7202 3 14.362 3.32698C14.9265 3.6146 15.3854 4.07354 15.673 4.63803C16 5.27976 16 6.11984 16 7.8V14.2C16 15.8802 16 16.7202 15.673 17.362C15.3854 17.9265 14.9265 18.3854 14.362 18.673C13.7202 19 12.8802 19 11.2 19H4.8C3.11984 19 2.27976 19 1.63803 18.673C1.07354 18.3854 0.614601 17.9265 0.32698 17.362C0 16.7202 0 15.8802 0 14.2V7.8Z" fill="#1B8EFF"/>
<path fill-rule="evenodd" clip-rule="evenodd" d="M14.1064 7.78132C14.1954 7.48465 14.1064 7.2666 13.6829 7.2666H12.2826C11.9265 7.2666 11.7625 7.45495 11.6734 7.66269C11.6734 7.66269 10.9613 9.3984 9.95245 10.5259C9.62607 10.8522 9.47774 10.956 9.29969 10.956C9.21067 10.956 9.08184 10.8522 9.08184 10.5556V7.78132C9.08184 7.42524 8.97852 7.2666 8.68175 7.2666H6.48124C6.25878 7.2666 6.12495 7.43184 6.12495 7.58848C6.12495 7.92606 6.62927 8.00387 6.68128 8.95329V11.0155C6.68128 11.4676 6.59966 11.5496 6.42162 11.5496C5.94691 11.5496 4.79224 9.80599 4.10728 7.81103C3.97305 7.42324 3.83842 7.2666 3.48054 7.2666H2.08021C1.68012 7.2666 1.6001 7.45495 1.6001 7.66269C1.6001 8.03358 2.07491 9.87321 3.81061 12.3062C4.96788 13.9676 6.59806 14.8684 8.08161 14.8684C8.97182 14.8684 9.08184 14.6683 9.08184 14.3237V13.068C9.08184 12.6679 9.16616 12.588 9.44793 12.588C9.65578 12.588 10.0118 12.6919 10.8427 13.493C11.7921 14.4423 11.9485 14.8684 12.4826 14.8684H13.883C14.2831 14.8684 14.4831 14.6683 14.3677 14.2735C14.2414 13.88 13.7881 13.3093 13.1866 12.6326C12.8602 12.2468 12.3706 11.8314 12.2224 11.6237C12.0146 11.3567 12.0739 11.238 12.2224 11.0008C12.2224 11.0008 13.9284 8.59741 14.1064 7.78142V7.78132Z" fill="white"/>
<path d="M21.28 8.42C21.6213 8.33467 22.0693 8.244 22.624 8.148C23.1893 8.052 23.84 8.004 24.576 8.004C25.1093 8.004 25.5573 8.07867 25.92 8.228C26.2827 8.36667 26.5867 8.57467 26.832 8.852C26.9067 8.79867 27.024 8.724 27.184 8.628C27.344 8.532 27.5413 8.44133 27.776 8.356C28.0107 8.26 28.272 8.18 28.56 8.116C28.848 8.04133 29.1573 8.004 29.488 8.004C30.128 8.004 30.6507 8.1 31.056 8.292C31.4613 8.47333 31.776 8.73467 32 9.076C32.2347 9.41733 32.3893 9.82267 32.464 10.292C32.5493 10.7613 32.592 11.2733 32.592 11.828V16.5H31.104V12.148C31.104 11.6573 31.0773 11.236 31.024 10.884C30.9813 10.532 30.8907 10.2387 30.752 10.004C30.624 9.76933 30.4427 9.59867 30.208 9.492C29.984 9.37467 29.6907 9.316 29.328 9.316C28.8267 9.316 28.4107 9.38533 28.08 9.524C27.76 9.652 27.5413 9.76933 27.424 9.876C27.5093 10.1533 27.5733 10.4573 27.616 10.788C27.6587 11.1187 27.68 11.4653 27.68 11.828V16.5H26.192V12.148C26.192 11.6573 26.1653 11.236 26.112 10.884C26.0587 10.532 25.9627 10.2387 25.824 10.004C25.696 9.76933 25.5147 9.59867 25.28 9.492C25.056 9.37467 24.768 9.316 24.416 9.316C24.2667 9.316 24.1067 9.32133 23.936 9.332C23.7653 9.34267 23.6 9.35867 23.44 9.38C23.2907 9.39067 23.152 9.40667 23.024 9.428C22.896 9.44933 22.8107 9.46533 22.768 9.476V16.5H21.28V8.42ZM36.5493 16.5H35.0613V8.18H36.5493V16.5ZM35.7973 6.676C35.5306 6.676 35.3013 6.59067 35.1093 6.42C34.9279 6.23867 34.8372 5.99867 34.8372 5.7C34.8372 5.40133 34.9279 5.16667 35.1093 4.996C35.3013 4.81467 35.5306 4.724 35.7973 4.724C36.0639 4.724 36.2879 4.81467 36.4693 4.996C36.6613 5.16667 36.7573 5.40133 36.7573 5.7C36.7573 5.99867 36.6613 6.23867 36.4693 6.42C36.2879 6.59067 36.0639 6.676 35.7973 6.676ZM39.1081 8.42C39.4495 8.33467 39.9028 8.244 40.4681 8.148C41.0335 8.052 41.6841 8.004 42.4201 8.004C43.0815 8.004 43.6308 8.1 44.0681 8.292C44.5055 8.47333 44.8521 8.73467 45.1081 9.076C45.3748 9.40667 45.5615 9.80667 45.6681 10.276C45.7748 10.7453 45.8281 11.2627 45.8281 11.828V16.5H44.3401V12.148C44.3401 11.636 44.3028 11.1987 44.2281 10.836C44.1641 10.4733 44.0521 10.18 43.8921 9.956C43.7321 9.732 43.5188 9.572 43.2521 9.476C42.9855 9.36933 42.6548 9.316 42.2601 9.316C42.1001 9.316 41.9348 9.32133 41.7641 9.332C41.5935 9.34267 41.4281 9.35867 41.2681 9.38C41.1188 9.39067 40.9801 9.40667 40.8521 9.428C40.7348 9.44933 40.6495 9.46533 40.5961 9.476V16.5H39.1081V8.42ZM49.7836 16.5H48.2956V8.18H49.7836V16.5ZM49.0316 6.676C48.765 6.676 48.5356 6.59067 48.3436 6.42C48.1623 6.23867 48.0716 5.99867 48.0716 5.7C48.0716 5.40133 48.1623 5.16667 48.3436 4.996C48.5356 4.81467 48.765 4.724 49.0316 4.724C49.2983 4.724 49.5223 4.81467 49.7036 4.996C49.8956 5.16667 49.9916 5.40133 49.9916 5.7C49.9916 5.99867 49.8956 6.23867 49.7036 6.42C49.5223 6.59067 49.2983 6.676 49.0316 6.676ZM58.8616 15.428C59.2136 15.428 59.523 15.4227 59.7896 15.412C60.067 15.3907 60.2963 15.3587 60.4776 15.316V12.836C60.371 12.7827 60.195 12.74 59.9496 12.708C59.715 12.6653 59.427 12.644 59.0856 12.644C58.8616 12.644 58.6216 12.66 58.3656 12.692C58.1203 12.724 57.891 12.7933 57.6776 12.9C57.475 12.996 57.3043 13.1347 57.1656 13.316C57.027 13.4867 56.9576 13.716 56.9576 14.004C56.9576 14.5373 57.1283 14.9107 57.4696 15.124C57.811 15.3267 58.275 15.428 58.8616 15.428ZM58.7336 7.972C59.331 7.972 59.8323 8.052 60.2376 8.212C60.6536 8.36133 60.9843 8.58 61.2296 8.868C61.4856 9.14533 61.667 9.48133 61.7736 9.876C61.8803 10.26 61.9336 10.6867 61.9336 11.156V16.356C61.8056 16.3773 61.6243 16.4093 61.3896 16.452C61.1656 16.484 60.9096 16.516 60.6216 16.548C60.3336 16.58 60.019 16.6067 59.6776 16.628C59.347 16.66 59.0163 16.676 58.6856 16.676C58.2163 16.676 57.7843 16.628 57.3896 16.532C56.995 16.436 56.6536 16.2867 56.3656 16.084C56.0776 15.8707 55.8536 15.5933 55.6936 15.252C55.5336 14.9107 55.4536 14.5 55.4536 14.02C55.4536 13.5613 55.5443 13.1667 55.7256 12.836C55.9176 12.5053 56.1736 12.2387 56.4936 12.036C56.8136 11.8333 57.187 11.684 57.6136 11.588C58.0403 11.492 58.4883 11.444 58.9576 11.444C59.107 11.444 59.2616 11.4547 59.4216 11.476C59.5816 11.4867 59.731 11.508 59.8696 11.54C60.019 11.5613 60.147 11.5827 60.2536 11.604C60.3603 11.6253 60.435 11.6413 60.4776 11.652V11.236C60.4776 10.9907 60.451 10.7507 60.3976 10.516C60.3443 10.2707 60.2483 10.0573 60.1096 9.876C59.971 9.684 59.779 9.53467 59.5336 9.428C59.299 9.31067 58.9896 9.252 58.6056 9.252C58.115 9.252 57.683 9.28933 57.3096 9.364C56.947 9.428 56.675 9.49733 56.4936 9.572L56.3176 8.34C56.5096 8.25467 56.8296 8.17467 57.2776 8.1C57.7256 8.01467 58.211 7.972 58.7336 7.972ZM70.181 12.356C70.181 11.3853 69.941 10.6387 69.461 10.116C68.981 9.59333 68.341 9.332 67.541 9.332C67.093 9.332 66.741 9.348 66.485 9.38C66.2397 9.412 66.0423 9.44933 65.893 9.492V14.74C66.0743 14.8893 66.3357 15.0333 66.677 15.172C67.0183 15.3107 67.3917 15.38 67.797 15.38C68.2237 15.38 68.5863 15.3053 68.885 15.156C69.1943 14.996 69.445 14.7827 69.637 14.516C69.829 14.2387 69.9677 13.9187 70.053 13.556C70.1383 13.1827 70.181 12.7827 70.181 12.356ZM71.733 12.356C71.733 12.9853 71.6477 13.5667 71.477 14.1C71.317 14.6333 71.077 15.092 70.757 15.476C70.437 15.86 70.0423 16.1587 69.573 16.372C69.1143 16.5853 68.5863 16.692 67.989 16.692C67.509 16.692 67.0823 16.628 66.709 16.5C66.3463 16.372 66.0743 16.2493 65.893 16.132V19.46H64.405V8.436C64.757 8.35067 65.1943 8.26 65.717 8.164C66.2503 8.05733 66.8637 8.004 67.557 8.004C68.197 8.004 68.773 8.10533 69.285 8.308C69.797 8.51067 70.2343 8.79867 70.597 9.172C70.9597 9.54533 71.237 10.004 71.429 10.548C71.6317 11.0813 71.733 11.684 71.733 12.356ZM79.6029 12.356C79.6029 11.3853 79.3629 10.6387 78.8829 10.116C78.4029 9.59333 77.7629 9.332 76.9629 9.332C76.5149 9.332 76.1629 9.348 75.9069 9.38C75.6615 9.412 75.4642 9.44933 75.3149 9.492V14.74C75.4962 14.8893 75.7575 15.0333 76.0989 15.172C76.4402 15.3107 76.8135 15.38 77.2189 15.38C77.6455 15.38 78.0082 15.3053 78.3069 15.156C78.6162 14.996 78.8669 14.7827 79.0589 14.516C79.2509 14.2387 79.3895 13.9187 79.4749 13.556C79.5602 13.1827 79.6029 12.7827 79.6029 12.356ZM81.1549 12.356C81.1549 12.9853 81.0695 13.5667 80.8989 14.1C80.7389 14.6333 80.4989 15.092 80.1789 15.476C79.8589 15.86 79.4642 16.1587 78.9949 16.372C78.5362 16.5853 78.0082 16.692 77.4109 16.692C76.9309 16.692 76.5042 16.628 76.1309 16.5C75.7682 16.372 75.4962 16.2493 75.3149 16.132V19.46H73.8269V8.436C74.1789 8.35067 74.6162 8.26 75.1389 8.164C75.6722 8.05733 76.2855 8.004 76.9789 8.004C77.6189 8.004 78.1949 8.10533 78.7069 8.308C79.2189 8.51067 79.6562 8.79867 80.0189 9.172C80.3815 9.54533 80.6589 10.004 80.8509 10.548C81.0535 11.0813 81.1549 11.684 81.1549 12.356ZM85.1848 15.428C85.7928 15.428 86.2408 15.348 86.5288 15.188C86.8274 15.028 86.9768 14.772 86.9768 14.42C86.9768 14.0573 86.8328 13.7693 86.5448 13.556C86.2568 13.3427 85.7821 13.1027 85.1208 12.836C84.8008 12.708 84.4914 12.58 84.1928 12.452C83.9048 12.3133 83.6541 12.1533 83.4408 11.972C83.2274 11.7907 83.0568 11.572 82.9288 11.316C82.8008 11.06 82.7368 10.7453 82.7368 10.372C82.7368 9.636 83.0088 9.05467 83.5528 8.628C84.0968 8.19067 84.8381 7.972 85.7768 7.972C86.0114 7.972 86.2461 7.988 86.4808 8.02C86.7154 8.04133 86.9341 8.07333 87.1368 8.116C87.3394 8.148 87.5154 8.18533 87.6648 8.228C87.8248 8.27067 87.9474 8.308 88.0328 8.34L87.7608 9.62C87.6008 9.53467 87.3501 9.44933 87.0088 9.364C86.6674 9.268 86.2568 9.22 85.7768 9.22C85.3608 9.22 84.9981 9.30533 84.6888 9.476C84.3794 9.636 84.2248 9.892 84.2248 10.244C84.2248 10.4253 84.2568 10.5853 84.3207 10.724C84.3954 10.8627 84.5021 10.9907 84.6408 11.108C84.7901 11.2147 84.9714 11.316 85.1848 11.412C85.3981 11.508 85.6541 11.6093 85.9528 11.716C86.3474 11.8653 86.6994 12.0147 87.0088 12.164C87.3181 12.3027 87.5794 12.468 87.7928 12.66C88.0168 12.852 88.1874 13.0867 88.3048 13.364C88.4221 13.6307 88.4808 13.9613 88.4808 14.356C88.4808 15.124 88.1928 15.7053 87.6168 16.1C87.0514 16.4947 86.2408 16.692 85.1848 16.692C84.4488 16.692 83.8728 16.628 83.4568 16.5C83.0408 16.3827 82.7581 16.292 82.6088 16.228L82.8808 14.948C83.0514 15.012 83.3234 15.108 83.6968 15.236C84.0701 15.364 84.5661 15.428 85.1848 15.428Z" fill="#1B8EFF"/>
</svg>
