<svg width="50" height="50" viewBox="0 0 50 50" fill="none" xmlns="http://www.w3.org/2000/svg">
<path d="M39.275 29.7581L39.2517 29.7364C38.8846 29.3968 37.76 28.3003 37.3807 27.821C36.9355 27.2231 37.0382 26.8313 37.3719 26.2442C37.7934 25.5023 38.6382 24.3644 39.5322 23.1593C42.3955 19.301 44.2442 16.6299 43.8636 14.7326L43.6586 13.7192L33.0841 13.7238C33.047 13.8237 32.4952 16.2526 30.1666 20.3883C28.478 23.3871 27.3705 24.3292 26.9804 24.4955L26.9201 24.4771C26.7931 24.32 26.5713 23.896 26.4801 22.803C26.385 21.6581 26.4693 20.272 26.551 18.9315C26.6465 17.3596 26.7288 16.0021 26.5316 15.0308L26.2105 13.4484C25.8224 13.3862 24.4015 12.837 20.4427 12.7952C17.0155 12.7601 16.0086 13.2561 15.5142 13.6933L13.8788 15.1392L15.946 15.8361C16.7327 16.1013 16.9938 16.4074 17.208 17.9244C17.3478 18.9131 17.4209 20.5747 17.27 22.0582C17.0532 24.1852 16.5332 24.581 16.5063 24.602C16.4167 24.5714 15.6573 24.2385 14.3388 21.4454C13.4241 19.5084 12.6223 17.217 12.0364 15.5439C11.3659 13.6278 11.4866 14.0358 11.1464 13.1305L0.916016 13.1302L1.57805 14.846C4.33806 22.0062 6.87039 27.5978 10.2593 31.614C14.0035 36.0512 18.6568 38.3745 24.9248 38.3745H26.1845V37.1122C26.1845 35.9322 26.282 35.0825 26.4909 34.4382C26.6186 34.0457 26.7882 33.7213 26.9663 33.3811C27.2307 32.8801 27.4892 32.6655 27.6303 32.6336C27.7583 32.6044 27.9833 32.6984 28.2326 32.8847C28.9485 33.4195 29.5167 34.1223 30.1184 34.8665C30.9864 35.9404 31.884 37.0504 33.3081 37.7772C34.0863 38.1743 35.5127 38.3748 36.2978 38.3748C36.5054 38.3748 43.9069 38.3745 43.9161 38.3745L43.862 37.0603C43.7813 35.0953 42.2377 32.6382 39.275 29.7581ZM36.3467 35.85H36.3263C35.785 35.8589 34.7519 35.681 34.4514 35.5279C33.5046 35.0447 32.8429 34.2259 32.0762 33.2779C31.4034 32.4453 30.7076 31.5844 29.7388 30.8609C28.9554 30.2755 28.2438 30.1042 27.6789 30.1042C27.4532 30.1042 27.2504 30.1315 27.0765 30.1709C26.4207 30.3189 25.4828 30.7915 24.7371 32.2046C24.5268 32.6067 24.2883 33.0619 24.0951 33.6575C23.8927 34.2808 23.7667 34.9733 23.7067 35.8158C18.9832 35.5469 15.2974 33.6746 12.1834 29.9842C9.28822 26.5529 7.01047 21.7534 4.59821 15.6537C4.77274 15.6537 9.14617 15.6543 9.40436 15.6543C9.48342 15.8768 9.56872 16.1207 9.65927 16.3791C10.2908 18.184 11.1559 20.6556 12.1752 22.7632C13.6348 25.7814 14.9677 27.1275 16.4968 27.1275C17.2602 27.1275 17.9449 26.8034 18.4767 26.1897C19.2348 25.315 19.6751 23.8713 19.8227 21.7758C19.9392 20.1234 19.8309 18.4776 19.703 17.5707C19.5973 16.8245 19.4467 16.0412 19.0793 15.3394C20.6452 15.2687 22.7418 15.3805 24.0702 15.5715C24.1909 16.2302 24.1122 17.525 24.036 18.7777C23.852 21.8037 23.662 24.9264 25.2607 26.3875C25.5419 26.6446 25.8401 26.7823 25.8486 26.7879L26.6622 27.038C26.9762 26.9411 28.7946 27.8654 32.238 21.8445C33.3413 19.9153 34.3684 17.6923 34.9216 16.2404C36.2043 16.2378 40.5744 16.2427 41.0879 16.2434C40.3605 17.8471 38.6369 20.1346 37.5103 21.6529C36.5281 22.9762 35.68 24.1191 35.1824 24.9948C34.2579 26.6216 34.4134 28.0715 35.3763 29.3505L35.3913 29.3702C35.9287 30.0556 37.2557 31.3244 37.531 31.5801C39.525 33.5198 40.4859 34.9132 40.9432 35.8497H36.3467V35.85Z" fill="#195084"/>
</svg>
