<svg width="50" height="50" viewBox="0 0 50 50" fill="none" xmlns="http://www.w3.org/2000/svg">
<path d="M4.69431 7H45.7476C46.6598 7 47.4419 7.7749 47.4419 8.67887V44.3211C47.4419 45.2251 46.6598 46 45.7476 46H4.69431C3.78202 46 3 45.2251 3 44.3211V8.67887C3 7.7749 3.78202 7 4.69431 7ZM27.7624 23.2716H36.755C37.2763 23.2716 37.797 23.7882 37.797 24.3048V33.2152C37.797 33.7317 37.4066 34.2483 36.755 34.2483H27.7624C27.2411 34.2483 26.7196 33.7317 26.7196 33.2152V24.3048C26.7196 23.7882 27.2411 23.2716 27.7624 23.2716ZM35.7121 25.3377H28.6748V32.3113H35.7121V25.3377ZM24.2433 23.2716C24.7646 23.2716 25.2862 23.7882 25.2862 24.3048C25.2862 24.8213 24.7646 25.3377 24.2433 25.3377H13.8173C13.296 25.3377 12.7745 24.9505 12.7745 24.3048C12.7745 23.7882 13.1657 23.2716 13.8173 23.2716H24.2433ZM24.2433 27.7914C24.7646 27.7914 25.2862 28.1788 25.2862 28.8245C25.2862 29.3411 24.7646 29.8576 24.2433 29.8576H13.8173C13.296 29.8576 12.7745 29.3411 12.7745 28.8245C12.7745 28.3079 13.296 27.7914 13.8173 27.7914H24.2433ZM24.2433 32.3113C24.7646 32.3113 25.2862 32.8279 25.2862 33.3444C25.2862 33.861 24.7646 34.3776 24.2433 34.3776H13.8173C13.296 34.3776 12.7745 33.861 12.7745 33.3444C12.7745 32.8279 13.1657 32.3113 13.8173 32.3113H24.2433ZM36.755 36.702C37.2763 36.702 37.797 37.2186 37.797 37.7351C37.797 38.2517 37.4066 38.7683 36.755 38.7683H13.6869C13.1656 38.7683 12.6441 38.2517 12.6441 37.7351C12.6441 37.2186 13.1656 36.702 13.6869 36.702H36.755ZM41.4465 12.1657C42.3588 12.1657 43.1409 12.9404 43.1409 13.8443C43.1409 14.7483 42.3588 15.5232 41.4465 15.5232C40.5343 15.5232 39.7522 14.7483 39.7522 13.8443C39.7522 12.9404 40.5343 12.1657 41.4465 12.1657ZM37.276 12.1657C38.1883 12.1657 38.9703 12.9404 38.9703 13.8443C38.9703 14.7483 38.1883 15.5232 37.276 15.5232C36.3637 15.5232 35.5817 14.7483 35.5817 13.8443C35.5817 12.9404 36.2334 12.1657 37.276 12.1657ZM32.975 12.1657C33.8873 12.1657 34.6693 12.9404 34.6693 13.8443C34.6693 14.7483 33.8873 15.5232 32.975 15.5232C32.0627 15.5232 31.2807 14.7483 31.2807 13.8443C31.2807 12.9404 32.0627 12.1657 32.975 12.1657ZM6.38862 17.4602H44.0532V10.4868H6.38862V17.4602ZM44.1837 19.3974H6.51908V42.5132H44.1837V19.3974Z" fill="#195084"/>
</svg>
