<svg width="50" height="50" viewBox="0 0 50 50" fill="none" xmlns="http://www.w3.org/2000/svg">
<path fill-rule="evenodd" clip-rule="evenodd" d="M34.4616 11.6175C35.2458 11.6175 36.0299 10.9453 36.0299 10.0491C36.0299 9.26496 35.2458 8.48081 34.4616 8.48081C33.5654 8.48081 32.8933 9.26496 32.8933 10.0491C32.8933 10.9453 33.5654 11.6175 34.4616 11.6175ZM39.5027 11.6175C40.2869 11.6175 41.071 10.9453 41.071 10.0491C41.071 9.26496 40.2869 8.48081 39.5027 8.48081C38.6065 8.48081 37.9344 9.26496 37.9344 10.0491C37.9344 10.9453 38.6065 11.6175 39.5027 11.6175ZM42.8632 12.9617H8.1366V7.24856H42.8632V12.9617ZM44.4315 4H6.5683C5.67212 4 5 4.67213 5 5.5683V19.459C5 20.2432 5.67212 21.0273 6.5683 21.0273C7.35245 21.0273 8.1366 20.2432 8.1366 19.459V14.8661H42.8632V19.571C42.8632 20.3552 43.5354 21.1393 44.4315 21.1393C45.2157 21.1393 46 20.3552 46 19.571V5.68026C46 4.67206 45.2157 4 44.4315 4ZM42.8632 31.8934H8.1366V26.1803H42.8632V31.8934ZM42.8632 41.8634H8.1366V33.6858H42.8632V41.8634ZM44.4315 22.9317H6.5683C5.67212 22.9317 5 23.6038 5 24.5V43.4317C5 44.2159 5.67212 45 6.5683 45H44.4315C45.2157 45 46 44.2159 46 43.4317V24.5C46 23.6038 45.2157 22.9317 44.4315 22.9317ZM29.4207 11.6175C30.3168 11.6175 30.989 10.9453 30.989 10.0491C30.989 9.26496 30.3168 8.48081 29.4207 8.48081C28.6365 8.48081 27.8524 9.26496 27.8524 10.0491C27.7403 10.9453 28.5245 11.6175 29.4207 11.6175ZM34.4616 30.6612C35.2458 30.6612 36.0299 29.8771 36.0299 29.0929C36.0299 28.1967 35.2458 27.5246 34.4616 27.5246C33.5654 27.5246 32.8933 28.1967 32.8933 29.0929C32.8933 29.8771 33.5654 30.6612 34.4616 30.6612ZM29.4207 30.6612C30.3168 30.6612 30.989 29.8771 30.989 29.0929C30.989 28.1967 30.3168 27.5246 29.4207 27.5246C28.6365 27.5246 27.8524 28.1967 27.8524 29.0929C27.7403 29.8771 28.5245 30.6612 29.4207 30.6612ZM39.5027 30.6612C40.2869 30.6612 41.071 29.8771 41.071 29.0929C41.071 28.1967 40.2869 27.5246 39.5027 27.5246C38.6065 27.5246 37.9344 28.1967 37.9344 29.0929C37.9344 29.8771 38.6065 30.6612 39.5027 30.6612Z" fill="#195084"/>
</svg>
