<svg width="65" height="15" viewBox="0 0 65 15" fill="none" xmlns="http://www.w3.org/2000/svg">
<path d="M6.272 2.444C5.952 2.444 5.64267 2.47067 5.344 2.524C5.056 2.56667 4.8 2.64667 4.576 2.764C4.352 2.87067 4.17067 3.02533 4.032 3.228C3.89333 3.42 3.824 3.66533 3.824 3.964C3.824 4.52933 4.02133 4.91867 4.416 5.132C4.82133 5.34533 5.41867 5.452 6.208 5.452H7.248V2.46C7.12 2.44933 6.98133 2.444 6.832 2.444C6.68267 2.444 6.496 2.444 6.272 2.444ZM6.384 0.299999C6.832 0.299999 7.35467 0.326666 7.952 0.379999C8.56 0.433332 9.15733 0.523999 9.744 0.651999V11.5H7.248V7.516H6.48C6.34133 7.516 6.208 7.516 6.08 7.516C5.952 7.516 5.79733 7.50533 5.616 7.484C5.264 7.964 4.87467 8.56667 4.448 9.292C4.032 10.0067 3.64267 10.7427 3.28 11.5H0.64C0.832 11.0627 1.03467 10.6307 1.248 10.204C1.472 9.77733 1.696 9.372 1.92 8.988C2.144 8.604 2.36267 8.252 2.576 7.932C2.78933 7.60133 2.98667 7.31333 3.168 7.068C2.93333 6.96133 2.69867 6.82267 2.464 6.652C2.24 6.47067 2.03733 6.25733 1.856 6.012C1.67467 5.76667 1.52533 5.47867 1.408 5.148C1.30133 4.80667 1.248 4.41733 1.248 3.98C1.248 3.372 1.36533 2.83867 1.6 2.38C1.84533 1.92133 2.18667 1.53733 2.624 1.228C3.072 0.918667 3.61067 0.689333 4.24 0.539999C4.88 0.379999 5.59467 0.299999 6.384 0.299999Z" fill="#FF4433"/>
<path d="M14.4873 10.236C14.4873 10.716 14.3326 11.084 14.0233 11.34C13.7246 11.5853 13.3833 11.708 12.9993 11.708C12.6153 11.708 12.2686 11.5853 11.9593 11.34C11.6606 11.084 11.5113 10.716 11.5113 10.236C11.5113 9.756 11.6606 9.39333 11.9593 9.148C12.2686 8.892 12.6153 8.764 12.9993 8.764C13.3833 8.764 13.7246 8.892 14.0233 9.148C14.3326 9.39333 14.4873 9.756 14.4873 10.236ZM22.7928 11.5C22.5688 11.1373 22.3021 10.748 21.9928 10.332C21.6941 9.90533 21.3634 9.484 21.0008 9.068C20.6488 8.64133 20.2808 8.236 19.8968 7.852C19.5128 7.45733 19.1288 7.11067 18.7448 6.812V11.5H16.2488V0.412H18.7448V4.604C19.3954 3.92133 20.0461 3.212 20.6968 2.476C21.3581 1.72933 21.9714 1.04133 22.5368 0.412H25.4968C24.7394 1.308 23.9768 2.172 23.2088 3.004C22.4514 3.836 21.6514 4.67333 20.8088 5.516C21.6941 6.252 22.5474 7.12667 23.3688 8.14C24.2008 9.15333 24.9954 10.2733 25.7528 11.5H22.7928ZM30.086 9.836C30.3207 9.836 30.5447 9.83067 30.758 9.82C30.9713 9.80933 31.142 9.79333 31.27 9.772V7.964C31.174 7.94267 31.03 7.92133 30.838 7.9C30.646 7.87867 30.47 7.868 30.31 7.868C30.086 7.868 29.8727 7.884 29.67 7.916C29.478 7.93733 29.3073 7.98533 29.158 8.06C29.0087 8.13467 28.8913 8.236 28.806 8.364C28.7207 8.492 28.678 8.652 28.678 8.844C28.678 9.21733 28.8007 9.47867 29.046 9.628C29.302 9.76667 29.6487 9.836 30.086 9.836ZM29.894 2.86C30.598 2.86 31.1847 2.94 31.654 3.1C32.1233 3.26 32.4967 3.48933 32.774 3.788C33.062 4.08667 33.2647 4.44933 33.382 4.876C33.4993 5.30267 33.558 5.77733 33.558 6.3V11.26C33.2167 11.3347 32.742 11.42 32.134 11.516C31.526 11.6227 30.79 11.676 29.926 11.676C29.382 11.676 28.886 11.628 28.438 11.532C28.0007 11.436 27.622 11.2813 27.302 11.068C26.982 10.844 26.7367 10.556 26.566 10.204C26.3953 9.852 26.31 9.42 26.31 8.908C26.31 8.41733 26.406 8.00133 26.598 7.66C26.8007 7.31867 27.0673 7.04667 27.398 6.844C27.7287 6.64133 28.1073 6.49733 28.534 6.412C28.9607 6.316 29.4033 6.268 29.862 6.268C30.1713 6.268 30.4433 6.284 30.678 6.316C30.9233 6.33733 31.1207 6.36933 31.27 6.412V6.188C31.27 5.78267 31.1473 5.45733 30.902 5.212C30.6567 4.96667 30.23 4.844 29.622 4.844C29.2167 4.844 28.8167 4.876 28.422 4.94C28.0273 4.99333 27.686 5.07333 27.398 5.18L27.094 3.26C27.2327 3.21733 27.4033 3.17467 27.606 3.132C27.8193 3.07867 28.0487 3.036 28.294 3.004C28.5393 2.96133 28.7953 2.92933 29.062 2.908C29.3393 2.876 29.6167 2.86 29.894 2.86ZM41.1058 7.356C41.1058 6.62 40.9404 6.03333 40.6098 5.596C40.2791 5.148 39.7884 4.924 39.1378 4.924C38.9244 4.924 38.7271 4.93467 38.5458 4.956C38.3644 4.96667 38.2151 4.98267 38.0978 5.004V9.308C38.2471 9.404 38.4391 9.484 38.6738 9.548C38.9191 9.612 39.1644 9.644 39.4098 9.644C40.5404 9.644 41.1058 8.88133 41.1058 7.356ZM43.5378 7.292C43.5378 7.94267 43.4578 8.53467 43.2978 9.068C43.1378 9.60133 42.9031 10.06 42.5938 10.444C42.2844 10.828 41.9004 11.1267 41.4418 11.34C40.9831 11.5533 40.4551 11.66 39.8578 11.66C39.5271 11.66 39.2178 11.628 38.9298 11.564C38.6418 11.5 38.3644 11.4093 38.0978 11.292V14.46H35.7138V3.372C35.9271 3.308 36.1724 3.24933 36.4498 3.196C36.7271 3.132 37.0151 3.07867 37.3138 3.036C37.6231 2.99333 37.9324 2.96133 38.2418 2.94C38.5618 2.908 38.8658 2.892 39.1538 2.892C39.8471 2.892 40.4658 2.99867 41.0098 3.212C41.5538 3.41467 42.0124 3.708 42.3858 4.092C42.7591 4.46533 43.0418 4.924 43.2338 5.468C43.4364 6.012 43.5378 6.62 43.5378 7.292ZM52.33 5.036H49.642V11.5H47.258V5.036H44.57V3.084H52.33V5.036ZM64.7203 11.5H62.3363V3.084H64.7203V11.5ZM57.3443 9.836C57.7816 9.836 58.1229 9.756 58.3683 9.596C58.6243 9.42533 58.7523 9.15333 58.7523 8.78C58.7523 8.588 58.7096 8.428 58.6243 8.3C58.5389 8.16133 58.4216 8.05467 58.2723 7.98C58.1229 7.89467 57.9469 7.836 57.7443 7.804C57.5523 7.772 57.3443 7.756 57.1203 7.756C56.9603 7.756 56.7843 7.76667 56.5923 7.788C56.4003 7.80933 56.2563 7.83067 56.1603 7.852V9.772C56.2883 9.79333 56.4589 9.80933 56.6723 9.82C56.8856 9.83067 57.1096 9.836 57.3443 9.836ZM56.1603 6.076C56.3096 6.03333 56.5016 6.00133 56.7363 5.98C56.9816 5.948 57.2589 5.932 57.5683 5.932C58.0589 5.932 58.5176 5.99067 58.9443 6.108C59.3816 6.22533 59.7603 6.40667 60.0803 6.652C60.4003 6.88667 60.6509 7.19067 60.8323 7.564C61.0243 7.92667 61.1203 8.35333 61.1203 8.844C61.1203 9.33467 61.0349 9.76133 60.8643 10.124C60.6936 10.476 60.4483 10.7693 60.1283 11.004C59.8083 11.228 59.4243 11.3933 58.9763 11.5C58.5389 11.6173 58.0483 11.676 57.5043 11.676C56.8003 11.676 56.1549 11.6387 55.5683 11.564C54.9816 11.5 54.3843 11.3933 53.7763 11.244V3.084H56.1603V6.076Z" fill="#333333" fill-opacity="0.7"/>
</svg>
