<svg width="30" height="30" viewBox="0 0 30 30" fill="none" xmlns="http://www.w3.org/2000/svg">
<path fill-rule="evenodd" clip-rule="evenodd" d="M9.13602 9.06044C9.11667 12.3849 11.8383 15.1364 15.1575 15.1478C18.5103 15.1593 21.2508 12.4703 21.2679 9.15269C21.2848 5.75663 18.589 3.00907 15.2304 3.00002C11.8786 2.99072 9.15513 5.69933 9.13602 9.06044ZM15.2062 6.10225C16.8536 6.10376 18.1682 7.41784 18.174 9.06849C18.1795 10.7189 16.8685 12.0415 15.2216 12.0473C13.5697 12.0533 12.2438 10.7485 12.2315 9.10418C12.2186 7.43845 13.545 6.10049 15.2062 6.10225ZM9.04992 18.129C10.4862 19.2523 12.1637 19.7105 14.0242 19.9046C13.9737 19.9586 13.9301 20.0061 13.8905 20.0493C13.8271 20.1185 13.7739 20.1766 13.7183 20.2326C13.4532 20.4984 13.1881 20.7642 12.923 21.0301C11.8238 22.1324 10.7244 23.2349 9.6225 24.3352C9.33973 24.6175 9.13714 24.9322 9.11703 25.3441C9.08787 25.9532 9.46566 26.5592 10.0594 26.847C10.6179 27.1182 11.191 27.0327 11.6726 26.5579C12.7451 25.5005 13.8113 24.437 14.8605 23.3569C15.1229 23.087 15.2659 23.0282 15.5633 23.3391C16.2502 24.0579 16.9555 24.7591 17.6609 25.4603C18.0048 25.8021 18.3486 26.1439 18.6904 26.4878C18.9626 26.762 19.269 26.9576 19.6619 26.9847C20.282 27.0272 20.9144 26.6303 21.1969 26.0271C21.4553 25.4751 21.3573 24.8867 20.888 24.4121C20.0124 23.5268 19.1326 22.6456 18.2528 21.7644C17.7485 21.2592 17.2442 20.7541 16.7406 20.2482C16.669 20.1762 16.6106 20.1122 16.5218 20.015C16.4915 19.9818 16.4577 19.9448 16.4186 19.9023C17.4364 19.7807 18.4647 19.5974 19.4035 19.2334C20.3963 18.8484 21.2899 18.2967 22.0329 17.534C22.5173 17.0366 22.5223 16.4112 22.1292 15.7705C21.7851 15.2095 21.1871 14.974 20.5459 15.1386C20.2161 15.2236 19.9316 15.39 19.6654 15.5941C16.9787 17.4013 13.3016 17.3506 10.6249 15.5114C10.4937 15.4204 10.3567 15.3357 10.2129 15.2678C9.47044 14.9177 8.75608 15.0808 8.33054 15.6906C7.83311 16.4032 7.89645 17.0947 8.52509 17.6984C8.65512 17.8232 8.79881 17.9344 8.94228 18.0454C8.97825 18.0732 9.0142 18.101 9.04992 18.129Z" fill="#195084" fill-opacity="0.5"/>
</svg>
