<svg width="30" height="30" viewBox="0 0 30 30" fill="none" xmlns="http://www.w3.org/2000/svg">
<path d="M27 7.30894C26.117 7.70094 25.168 7.96494 24.172 8.08394C25.189 7.47494 25.97 6.50994 26.337 5.35994C25.386 5.92394 24.332 6.33394 23.21 6.55494C22.313 5.59794 21.032 4.99994 19.616 4.99994C16.437 4.99994 14.101 7.96594 14.819 11.0449C10.728 10.8399 7.1 8.87994 4.671 5.90094C3.381 8.11394 4.002 11.0089 6.194 12.4749C5.388 12.4489 4.628 12.2279 3.965 11.8589C3.911 14.1399 5.546 16.2739 7.914 16.7489C7.221 16.9369 6.462 16.9809 5.69 16.8329C6.316 18.7889 8.134 20.2119 10.29 20.2519C8.22 21.8749 5.612 22.5999 3 22.2919C5.179 23.6889 7.768 24.5039 10.548 24.5039C19.69 24.5039 24.855 16.7829 24.543 9.85794C25.505 9.16294 26.34 8.29594 27 7.30894Z" fill="#195084" fill-opacity="0.5"/>
</svg>
