<svg width="30" height="30" viewBox="0 0 30 30" fill="none" xmlns="http://www.w3.org/2000/svg">
<path fill-rule="evenodd" clip-rule="evenodd" d="M26.4493 8.9651C26.6163 8.40885 26.4494 8 25.6553 8H23.0297C22.362 8 22.0544 8.35314 21.8875 8.74267C21.8875 8.74267 20.5522 11.9971 18.6607 14.1111C18.0487 14.7231 17.7706 14.9176 17.4367 14.9176C17.2698 14.9176 17.0283 14.7231 17.0283 14.1668V8.9651C17.0283 8.29745 16.8345 8 16.2781 8H12.1521C11.735 8 11.4841 8.30982 11.4841 8.60352C11.4841 9.23648 12.4297 9.38238 12.5272 11.1625V15.0291C12.5272 15.8768 12.3742 16.0306 12.0404 16.0306C11.1503 16.0306 8.98527 12.7614 7.70097 9.0208C7.44929 8.29369 7.19685 8 6.52582 8H3.90021C3.15003 8 3 8.35314 3 8.74267C3 9.43809 3.89027 12.8874 7.14472 17.4492C9.3146 20.5643 12.3712 22.2533 15.1528 22.2533C16.822 22.2533 17.0283 21.8782 17.0283 21.2321V18.8775C17.0283 18.1274 17.1864 17.9777 17.7147 17.9777C18.1044 17.9777 18.7719 18.1724 20.3298 19.6744C22.11 21.4544 22.4033 22.2533 23.4048 22.2533H26.0304C26.7806 22.2533 27.1556 21.8782 26.9392 21.138C26.7025 20.4002 25.8526 19.3301 24.7247 18.0612C24.1127 17.3378 23.1947 16.5589 22.9168 16.1696C22.5272 15.6689 22.6385 15.4464 22.9168 15.0016C22.9168 15.0016 26.1155 10.4953 26.4493 8.96529V8.9651Z" fill="#195084" fill-opacity="0.5"/>
</svg>
